<?xml version="1.0" encoding="utf-8"?>
<!-- Generator: Adobe Illustrator 16.0.0, SVG Export Plug-In . SVG Version: 6.00 Build 0)  -->
<!DOCTYPE svg PUBLIC "-//W3C//DTD SVG 1.1//EN" "http://www.w3.org/Graphics/SVG/1.1/DTD/svg11.dtd">
<svg version="1.1" id="圖層_1" xmlns="http://www.w3.org/2000/svg" xmlns:xlink="http://www.w3.org/1999/xlink" x="0px" y="0px"
	 width="400px" height="65px" viewBox="0 0 400 65" enable-background="new 0 0 400 65" xml:space="preserve">
<g>
	<g>
		<g>
			<rect x="0.85" y="5.639" fill="none" width="53.721" height="53.72"/>
			<g>
				<g>
					<path fill="#FFFFFF" stroke="#FFFFFF" stroke-width="0.5" stroke-miterlimit="10" d="M3.301,31.705
						c0.295-0.004,0.591-0.021,0.886-0.012C4.37,31.7,4.43,31.649,4.442,31.456c0.053-0.823,0.125-1.646,0.2-2.469
						c0.011-0.123-0.005-0.176-0.133-0.203c-0.324-0.068-0.645-0.15-0.989-0.232c0.329-2.109,0.931-4.113,1.817-6.058
						c0.417,0.164,0.809,0.319,1.204,0.474c0.402-0.767,0.802-1.528,1.215-2.316c-0.317-0.213-0.655-0.438-1.019-0.679
						c1.203-1.908,2.665-3.584,4.259-5.184c0.302,0.285,0.585,0.553,0.866,0.817c0.749-0.641,1.483-1.271,2.232-1.913
						c-0.194-0.293-0.392-0.594-0.611-0.928c1.708-1.321,3.582-2.317,5.594-3.129c0.17,0.435,0.328,0.841,0.488,1.247
						c0.821-0.263,1.631-0.523,2.467-0.79c-0.079-0.379-0.161-0.774-0.25-1.206c0.412-0.083,0.808-0.173,1.207-0.245
						c1.367-0.246,2.747-0.366,4.133-0.431c0.067-0.002,0.133-0.019,0.201-0.029c0.378,0,0.757,0,1.137,0c0,0.372,0,0.741,0,1.114
						c1.013,0.083,1.981,0.162,2.972,0.244c0.056-0.251,0.117-0.516,0.171-0.781c0.068-0.335,0.068-0.346,0.415-0.279
						c0.698,0.138,1.398,0.264,2.086,0.44c1.212,0.311,2.381,0.748,3.499,1.314c0.06,0.03,0.117,0.066,0.19,0.107
						c-0.173,0.361-0.343,0.712-0.511,1.066c0.786,0.424,1.562,0.842,2.367,1.276c0.214-0.322,0.44-0.659,0.677-1.015
						c1.94,1.167,3.643,2.594,5.165,4.28c-0.24,0.253-0.473,0.498-0.7,0.738c0.602,0.763,1.199,1.52,1.81,2.294
						c0.303-0.187,0.63-0.386,1.002-0.614c1.295,1.702,2.191,3.597,2.942,5.599c-0.391,0.175-0.753,0.337-1.11,0.497
						c0.266,0.828,0.525,1.638,0.795,2.483c0.375-0.078,0.771-0.159,1.206-0.248c0.09,0.455,0.208,0.902,0.263,1.356
						c0.143,1.217,0.258,2.438,0.386,3.657c0.005,0.058,0.022,0.116,0.034,0.175c0,0.5,0,1,0,1.502
						c-0.341,0.004-0.681,0.002-1.022,0.018c-0.052,0.003-0.141,0.072-0.145,0.121c-0.09,0.916-0.169,1.836-0.254,2.785
						c0.337,0.072,0.704,0.154,1.113,0.244c-0.259,2.145-0.887,4.159-1.867,6.084c-0.436-0.177-0.819-0.332-1.187-0.479
						c-0.406,0.788-0.8,1.554-1.205,2.342c0.318,0.206,0.658,0.433,0.998,0.651c-0.332,0.849-3.229,4.439-4.209,5.217
						c-0.291-0.27-0.584-0.541-0.877-0.813c-0.753,0.604-1.503,1.199-2.273,1.815c0.191,0.319,0.392,0.655,0.59,0.989
						c-0.576,0.685-4.46,2.758-5.594,2.98c-0.164-0.384-0.329-0.77-0.491-1.148c-0.824,0.259-1.63,0.513-2.463,0.771
						c0.076,0.381,0.157,0.776,0.243,1.203c-2.199,0.486-4.408,0.68-6.693,0.639c0-0.188,0-0.365,0-0.543c0-0.174,0-0.347,0-0.521
						c-1.009-0.092-1.993-0.184-2.998-0.277c-0.063,0.363-0.127,0.732-0.198,1.141c-2.135-0.318-4.163-0.926-6.108-1.894
						c0.162-0.388,0.319-0.763,0.476-1.14c-0.771-0.396-1.532-0.791-2.31-1.194c-0.216,0.331-0.437,0.665-0.672,1.024
						c-1.911-1.19-3.594-2.646-5.206-4.229c0.271-0.291,0.532-0.569,0.792-0.85c-0.624-0.734-1.235-1.453-1.863-2.191
						c-0.317,0.188-0.653,0.39-0.984,0.585c-0.967-1.076-2.677-4.359-2.924-5.624c0.355-0.151,0.715-0.304,1.083-0.459
						C5.621,39.813,5.374,39,5.115,38.152c-0.378,0.072-0.775,0.149-1.208,0.23c-0.081-0.429-0.187-0.847-0.233-1.271
						c-0.127-1.166-0.229-2.334-0.342-3.502c-0.006-0.074-0.021-0.15-0.031-0.223C3.301,32.827,3.301,32.267,3.301,31.705z
						 M18.838,10.188c-1.701,0.729-3.291,1.59-4.78,2.665c0.222,0.341,0.427,0.655,0.631,0.968
						c-1.617,1.199-3.059,2.552-4.417,4.018c0.328,0.355,0.633,0.688,0.939,1.019c-1.192,1.651-2.327,3.321-3.195,5.16
						c-0.824-0.328-1.63-0.649-2.457-0.979c-0.723,1.683-1.245,3.396-1.553,5.189c0.397,0.095,0.762,0.183,1.129,0.271
						c-0.288,1.97-0.378,3.93-0.261,5.928c0.499,0,0.958,0,1.438,0c0.207,2.044,0.655,4.007,1.381,5.907
						c-0.821,0.346-1.606,0.677-2.398,1.008c0.596,1.754,1.485,3.318,2.523,4.814c0.355-0.211,0.684-0.407,1.01-0.602
						c1.197,1.598,2.514,3.041,4.014,4.348c0.348-0.336,0.677-0.654,0.999-0.967c1.63,1.252,3.371,2.271,5.18,3.207
						c-0.33,0.787-0.657,1.564-0.99,2.354c1.665,0.792,3.388,1.306,5.205,1.619c0.07-0.4,0.136-0.775,0.195-1.117
						c1.025,0.094,2.025,0.227,3.029,0.264c1.011,0.039,2.025-0.016,3.032-0.027c0-0.524,0-0.98,0-1.459
						c2.036-0.17,4.004-0.619,5.912-1.379c0.351,0.83,0.688,1.629,1.032,2.442c1.716-0.663,3.284-1.536,4.806-2.542
						c-0.219-0.369-0.427-0.719-0.637-1.074c1.646-1.127,3.137-2.398,4.423-3.983c-0.355-0.335-0.697-0.653-1.034-0.972
						c1.411-1.543,2.42-3.312,3.289-5.176c0.825,0.338,1.634,0.667,2.468,1.01c0.772-1.679,1.324-3.39,1.597-5.211
						c-0.406-0.09-0.788-0.173-1.172-0.258c0-0.045-0.003-0.074,0-0.104c0.109-0.881,0.25-1.756,0.321-2.637
						c0.082-1.028,0.065-2.061-0.09-3.085c-0.026-0.176-0.095-0.2-0.252-0.183c-0.389,0.044-0.781,0.071-1.194,0.107
						c-0.1-2.066-0.594-4.028-1.327-5.945c0.798-0.353,1.578-0.696,2.38-1.05c-0.676-1.702-1.46-3.312-2.506-4.809
						c-0.375,0.229-0.721,0.441-1.082,0.663c-0.53-0.883-1.143-1.669-1.819-2.409c-0.673-0.737-1.383-1.436-2.175-2.093
						c-0.343,0.36-0.672,0.705-1.003,1.049c-1.664-1.292-3.415-2.391-5.342-3.241c0.383-0.792,0.758-1.571,1.142-2.363
						c-0.098-0.051-0.17-0.092-0.245-0.126c-1.534-0.708-3.135-1.198-4.803-1.478c-0.144-0.024-0.189,0.023-0.215,0.15
						c-0.063,0.318-0.135,0.634-0.207,0.973c-0.088-0.013-0.161-0.024-0.233-0.033c-0.519-0.067-1.035-0.153-1.555-0.196
						c-1.279-0.105-2.559-0.105-3.839-0.012c-0.311,0.023-0.312,0.017-0.313,0.339c-0.001,0.369,0,0.739,0,1.122
						c-2.085,0.223-4.091,0.617-5.985,1.505C19.5,11.909,19.176,11.07,18.838,10.188z M44.347,49.982
						c1.426-1.478,2.736-3.006,3.836-4.726c-0.362-0.237-0.703-0.459-1.014-0.663c0.445-0.852,0.88-1.685,1.33-2.541
						c-0.37-0.152-0.68-0.279-0.999-0.408c-0.803,1.656-1.719,3.209-2.935,4.638c0.339,0.315,0.676,0.625,1.049,0.97
						c-0.659,0.725-1.288,1.416-1.928,2.118C43.895,49.564,44.109,49.764,44.347,49.982z M9.683,17.836
						c0.662-0.685,1.307-1.352,1.964-2.033c-0.213-0.203-0.423-0.403-0.646-0.615c-1.429,1.46-2.75,2.98-3.87,4.699
						c0.36,0.241,0.702,0.469,1.009,0.675c-0.453,0.851-0.892,1.673-1.338,2.514c0.375,0.149,0.688,0.273,1.003,0.399
						c0.817-1.629,1.813-3.118,2.852-4.584C10.34,18.547,10.032,18.214,9.683,17.836z M48.173,25.016
						c0.62,1.72,1.032,3.449,1.186,5.253c0.459-0.037,0.896-0.072,1.349-0.108c0.249,0.974,0.239,1.964,0.272,2.948
						c0.233,0,0.438-0.006,0.641,0.002c0.183,0.01,0.228-0.068,0.224-0.242c-0.039-1.773-0.182-3.537-0.512-5.283
						c-0.035-0.181-0.082-0.36-0.126-0.55c-0.424,0.089-0.814,0.171-1.181,0.249c-0.284-0.91-0.563-1.8-0.848-2.709
						C48.807,24.738,48.498,24.874,48.173,25.016z M45.103,15.949c-1.401-1.515-2.946-2.811-4.688-3.891
						c-0.247,0.367-0.475,0.704-0.706,1.047c-0.052-0.033-0.082-0.056-0.113-0.074c-0.761-0.421-1.521-0.843-2.285-1.258
						c-0.053-0.028-0.186-0.019-0.204,0.014c-0.156,0.291-0.294,0.591-0.444,0.902c1.691,0.799,3.246,1.769,4.773,2.913
						c0.337-0.356,0.668-0.705,1.027-1.085c0.708,0.656,1.407,1.302,2.116,1.958C44.74,16.312,44.909,16.143,45.103,15.949z
						 M20.063,12.187c0.042-0.004,0.067,0,0.085-0.008c1.587-0.682,3.256-1.036,4.96-1.242c0.25-0.03,0.298-0.127,0.294-0.339
						C25.393,10.221,25.4,9.844,25.4,9.424c0.95-0.042,1.869-0.083,2.79-0.124c0-0.194-0.011-0.376,0.001-0.557
						c0.016-0.212-0.056-0.296-0.28-0.278c-1.357,0.115-2.717,0.207-4.073,0.337c-0.569,0.055-1.13,0.186-1.722,0.287
						c0.089,0.438,0.171,0.84,0.247,1.205c-0.916,0.289-1.8,0.568-2.702,0.853C19.811,11.534,19.937,11.862,20.063,12.187z
						 M13.822,49.473c-0.173,0.193-0.342,0.399-0.526,0.59c-0.414,0.422-0.428,0.434-0.879,0.028
						c-0.558-0.498-1.096-1.021-1.66-1.547c-0.185,0.192-0.38,0.397-0.59,0.621c1.468,1.427,2.999,2.735,4.72,3.846
						c0.237-0.356,0.464-0.7,0.669-1.011c0.848,0.445,1.667,0.876,2.508,1.318c0.152-0.361,0.279-0.664,0.41-0.973
						C16.865,51.488,15.331,50.568,13.822,49.473z M3.571,31.991c0.032,2.047,0.143,4.054,0.563,6.058
						c0.423-0.08,0.826-0.154,1.232-0.232c0.193,0.935,0.458,1.819,0.8,2.697c0.344-0.146,0.657-0.277,0.987-0.416
						c-0.618-1.709-1.011-3.451-1.223-5.259c-0.424,0-0.825-0.005-1.226,0.004c-0.153,0.003-0.217-0.044-0.221-0.202
						c-0.022-0.736-0.054-1.468-0.08-2.202c-0.005-0.148-0.001-0.297-0.001-0.447C4.117,31.991,3.864,31.991,3.571,31.991z
						 M35.172,52.943c-0.066,0.022-0.101,0.035-0.136,0.047c-1.527,0.563-3.099,0.936-4.715,1.128
						c-0.419,0.052-0.419,0.059-0.401,0.479c0.013,0.323,0.031,0.646,0.048,1c-0.99,0.051-1.947,0.1-2.923,0.148
						c0.013,0.273,0.024,0.531,0.039,0.809c2.062-0.025,4.071-0.173,6.057-0.604c-0.088-0.429-0.168-0.826-0.245-1.21
						c0.475-0.133,0.921-0.245,1.361-0.381c0.438-0.135,0.87-0.289,1.324-0.443C35.436,53.573,35.308,53.268,35.172,52.943z"/>
					<path fill="#FFFFFF" stroke="#FFFFFF" stroke-width="0.5" stroke-miterlimit="10" d="M27.508,52.855
						c-11.269-0.023-20.21-9.073-20.38-20.037c-0.176-11.357,8.875-20.456,19.881-20.708c11.506-0.264,20.936,9.015,20.859,20.507
						C47.795,43.801,38.721,52.824,27.508,52.855z M47.3,32.496c0.028-10.832-8.754-19.689-19.547-19.824
						C16.811,12.536,7.71,21.345,7.689,32.439c-0.02,11.167,9.135,19.991,20.077,19.848C38.535,52.145,47.308,43.314,47.3,32.496z"
						/>
				</g>
				<g>
					<path fill="#FFFFFF" d="M29.292,35.043c-0.066,0.02-0.132,0.057-0.188,0.047c-0.155-0.025-0.485-0.402-0.5-0.556
						c-0.003-0.035,0.004-0.091,0.024-0.099c0.034-0.019,0.1-0.024,0.122-0.004c0.173,0.166,0.339,0.338,0.506,0.512
						C29.27,34.957,29.271,34.984,29.292,35.043z"/>
					<path fill="#FFFFFF" d="M29.23,33.749c-0.358,0.079-0.572-0.05-0.621-0.324c-0.008-0.047,0.008-0.13,0.034-0.139
						c0.048-0.019,0.131-0.015,0.164,0.016C28.946,33.432,29.071,33.578,29.23,33.749z"/>
					<g>
						<g>
							<path fill="#FFFFFF" d="M36.202,35.71c0.068,0.005,0.122,0.001,0.172,0.017c0.045,0.015,0.114,0.039,0.118,0.07
								c0.005,0.04-0.031,0.098-0.065,0.127c-0.246,0.227-0.269,0.284-0.233,0.625c0.087,0.031,0.171,0.061,0.254,0.09
								c-0.038,0.092-0.059,0.2-0.121,0.272c-0.279,0.327-0.247,0.698-0.172,1.075c0.009,0.053,0.031,0.104,0.04,0.154
								c0.023,0.146-0.053,0.258-0.182,0.26c-0.071,0-0.178-0.115-0.208-0.202c-0.05-0.142-0.052-0.302-0.073-0.442
								c-0.188,0.117-0.353,0.239-0.535,0.323c-0.082,0.038-0.197,0.003-0.296,0c0.014-0.097-0.001-0.211,0.046-0.284
								c0.235-0.367,0.492-0.716,0.726-1.081c0.059-0.093,0.063-0.22,0.092-0.332c-0.018-0.016-0.038-0.032-0.058-0.051
								c-0.103,0.048-0.203,0.099-0.305,0.146c-0.088,0.041-0.175,0.103-0.268,0.109c-0.082,0.01-0.17-0.043-0.256-0.068
								c0.041-0.08,0.061-0.19,0.126-0.235c0.167-0.117,0.345-0.228,0.534-0.3c0.229-0.088,0.292-0.254,0.305-0.469
								c0.007-0.099-0.021-0.207,0.014-0.291c0.037-0.092,0.128-0.16,0.197-0.238c0.057,0.084,0.125,0.164,0.169,0.258
								c0.018,0.039-0.018,0.101-0.019,0.152C36.199,35.496,36.202,35.602,36.202,35.71z"/>
							<path fill="#FFFFFF" d="M37.371,36.982c-0.099,0.019-0.2,0.035-0.281,0.053c0-0.146,0.015-0.275-0.004-0.396
								c-0.027-0.162,0.029-0.263,0.176-0.32c0.012,0.009,0.03,0.014,0.033,0.023c0.044,0.108,0.084,0.215,0.126,0.319
								c0.098-0.065,0.206-0.117,0.291-0.196c0.083-0.074,0.135-0.184,0.219-0.257c0.045-0.04,0.127-0.037,0.192-0.052
								c-0.021,0.052-0.034,0.109-0.066,0.154c-0.088,0.106-0.186,0.207-0.292,0.324c0.132,0.039,0.235,0.071,0.358,0.108
								c-0.194,0.077-0.346,0.14-0.498,0.2c0.005,0.025,0.012,0.051,0.017,0.076c0.105,0.023,0.209,0.047,0.335,0.074
								c-0.077,0.112-0.131,0.189-0.214,0.313c0.152,0.017,0.269,0.03,0.387,0.046c0.012,0.015,0.023,0.029,0.036,0.048
								c-0.065,0.047-0.128,0.136-0.195,0.138c-0.204,0.006-0.261,0.121-0.306,0.293c-0.073,0.273-0.154,0.314-0.381,0.225
								c0.016-0.104,0.033-0.211,0.047-0.301c-0.092-0.028-0.168-0.053-0.244-0.074c0.035-0.077,0.07-0.153,0.104-0.229
								c0.079-0.177,0.156-0.354,0.233-0.528C37.418,37.009,37.395,36.995,37.371,36.982z"/>
							<path fill="#FFFFFF" d="M38.604,35.898c-0.656,0.19-1.273,0.367-1.875,0.543c0.022-0.092,0.022-0.092,0.609-0.362
								c-0.045-0.028-0.083-0.045-0.111-0.072c-0.026-0.022-0.041-0.06-0.07-0.104c-0.039,0.043-0.061,0.084-0.098,0.103
								c-0.062,0.029-0.129,0.047-0.196,0.056c-0.015,0-0.059-0.074-0.049-0.104c0.021-0.064,0.065-0.175,0.1-0.174
								c0.28,0.003,0.238-0.188,0.236-0.36c0-0.028-0.011-0.067,0.002-0.09c0.036-0.054,0.081-0.103,0.123-0.151
								c0.047,0.051,0.134,0.101,0.136,0.149c0.002,0.213-0.023,0.425-0.04,0.66c0.201-0.222,0.322-0.457,0.331-0.753
								c0.004-0.113,0.055-0.23,0.111-0.329c0.019-0.037,0.12-0.048,0.175-0.034c0.024,0.005,0.048,0.104,0.039,0.152
								c-0.035,0.156-0.084,0.31-0.078,0.486c0.085-0.052,0.165-0.129,0.256-0.146c0.08-0.015,0.171,0.041,0.257,0.063
								c-0.046,0.065-0.077,0.161-0.141,0.191c-0.155,0.074-0.326,0.117-0.488,0.178c-0.053,0.021-0.098,0.063-0.197,0.124
								C37.999,35.982,38.295,35.611,38.604,35.898z"/>
							<path fill="#FFFFFF" d="M38.056,38.207c-0.093-0.063-0.16-0.107-0.227-0.155c0-0.019,0-0.038,0-0.06
								c0.067-0.012,0.142-0.049,0.2-0.03c0.114,0.035,0.227,0.087,0.325,0.155c0.061,0.039,0.134,0.126,0.128,0.185
								c-0.008,0.063-0.094,0.146-0.161,0.164c-0.179,0.046-0.366,0.058-0.549,0.086c-0.014-0.024-0.028-0.049-0.042-0.071
								C37.833,38.395,37.937,38.307,38.056,38.207z"/>
						</g>
						<g>
							<path fill="#FFFFFF" d="M19.042,37.807c0.067-0.086,0.103-0.115,0.117-0.15c0.021-0.057,0.026-0.117,0.039-0.176
								c-0.072,0.004-0.151-0.008-0.214,0.019c-0.075,0.028-0.148,0.142-0.204,0.128c-0.152-0.031-0.296-0.105-0.439-0.172
								c-0.018-0.008-0.012-0.117-0.002-0.12c0.059-0.015,0.134-0.035,0.184-0.012c0.081,0.04,0.16,0.172,0.23,0.034
								c0.025-0.049-0.079-0.185-0.147-0.258c-0.057-0.059-0.149-0.082-0.226-0.123c0.008-0.026,0.016-0.056,0.022-0.086
								c0.187,0.036,0.373,0.068,0.595,0.108c-0.003,0.008,0.02-0.017,0.027-0.046c0.034-0.123,0.062-0.252,0.092-0.377
								c-0.119,0.02-0.247,0.016-0.356,0.063c-0.151,0.062-0.213,0.004-0.248-0.129c-0.076-0.277,0.037-0.568,0.272-0.736
								c0.06-0.043,0.102-0.115,0.127-0.197c-0.472,0.26-0.787,0.64-0.963,1.145c-0.089,0.26-0.201,0.51-0.322,0.754
								c-0.088,0.178-0.728,0.399-0.919,0.323c-0.199-0.077-0.273-0.239-0.261-0.456c0.011-0.188,0.033-0.326,0.264-0.378
								c0.438-0.094,0.562-0.373,0.405-0.839c-0.116,0.055-0.227,0.124-0.348,0.152c-0.077,0.016-0.184-0.014-0.246-0.064
								c-0.033-0.025-0.025-0.161,0.013-0.204c0.042-0.048,0.14-0.041,0.21-0.065c0.18-0.064,0.372-0.106,0.528-0.205
								c0.118-0.074,0.226-0.129,0.315-0.026c0.038,0.045-0.011,0.185-0.049,0.267c-0.069,0.149-0.18,0.281-0.234,0.435
								c-0.024,0.067,0.031,0.239,0.075,0.249c0.207,0.048,0.226,0.21,0.278,0.436c0.07-0.13,0.127-0.197,0.143-0.271
								c0.135-0.68,0.616-1.115,1.084-1.557c0.058-0.057,0.223-0.084,0.269-0.047c0.068,0.06,0.123,0.209,0.092,0.284
								c-0.058,0.146-0.188,0.259-0.273,0.396c-0.067,0.107-0.121,0.229-0.155,0.35c-0.007,0.025,0.096,0.1,0.158,0.122
								c0.12,0.044,0.31,0.032,0.356,0.11c0.052,0.089,0.003,0.264-0.045,0.381c-0.09,0.22-0.07,0.303,0.158,0.388
								c0.064,0.021,0.15,0.019,0.193,0.06c0.067,0.069,0.16,0.181,0.144,0.25c-0.019,0.078-0.138,0.158-0.229,0.186
								C19.41,37.786,19.256,37.782,19.042,37.807z M17.15,37.096c-0.012-0.021-0.025-0.046-0.039-0.066
								c-0.125,0.054-0.269,0.085-0.372,0.169c-0.063,0.052-0.102,0.19-0.08,0.271c0.018,0.067,0.139,0.152,0.213,0.152
								c0.154-0.004,0.313-0.045,0.458-0.1c0.065-0.025,0.104-0.119,0.156-0.185c-0.075,0.015-0.149,0.029-0.225,0.04
								c-0.067,0.012-0.136,0.02-0.203,0.025c0.004-0.069,0.001-0.139,0.017-0.205C17.084,37.16,17.124,37.131,17.15,37.096z"/>
							<path fill="#FFFFFF" d="M17.368,34.838c-0.009-0.169-0.017-0.32-0.026-0.504c0.192,0.077,0.389,0.107,0.371,0.316
								C17.698,34.813,17.555,34.874,17.368,34.838z"/>
							<path fill="#FFFFFF" d="M17.287,35.006c0.113,0.051,0.235,0.09,0.334,0.161c0.03,0.021,0.018,0.144-0.013,0.198
								c-0.064,0.119-0.156,0.139-0.234,0.002c-0.05-0.09-0.093-0.186-0.139-0.275C17.252,35.063,17.27,35.034,17.287,35.006z"/>
						</g>
						<g>
							<path fill="#FFFFFF" d="M23.513,37.469c0,0.295-0.382,0.539-0.633,0.399c-0.044-0.022-0.097-0.116-0.13-0.161
								c0.039-0.027,0.07-0.009,0.113-0.02c0.15-0.021,0.3-0.076,0.293-0.373c-0.014-0.565-0.036-1.133-0.048-1.697
								c-0.003-0.165-0.071-0.407,0.177-0.418c0.201-0.01,0.114,0.056,0.145,0.367C23.414,36.16,23.513,37.159,23.513,37.469z"/>
							<path fill="#FFFFFF" d="M21.223,35.874c0.064-0.123,0.265-0.21,0.434-0.278c0.06-0.025,0.124-0.021,0.182-0.033
								c0.069-0.016,0.133-0.028,0.189-0.021c0.034,0.003,0.069,0.018,0.098,0.023c0.031,0.01,0.077,0.026,0.104,0.041
								c0.107,0.063,0.143,0.152,0.2,0.365c0.125,0.459,0.028,0.918,0.019,1.377c0,0.063-0.037,0.133-0.074,0.188
								c-0.076,0.113-0.164,0.134-0.242-0.002c-0.055-0.098-0.107-0.198-0.163-0.305c0.256-0.074,0.238-0.317,0.262-0.51
								c0.031-0.261,0.015-0.527,0.002-0.793c-0.008-0.174-0.107-0.265-0.292-0.216c-0.137,0.042-0.271,0.089-0.409,0.129
								c-0.044,0.013-0.113,0.048-0.164,0.058C21.33,35.904,21.269,35.864,21.223,35.874z"/>
							<path fill="#FFFFFF" d="M21.008,36.047c0.065,0.006,0.097-0.035,0.11,0.033c0.008,0.049,0.015,0.053,0.015,0.089
								c0,0.099,0.047,0.146,0.056,0.19c0.018,0.076,0.02,0.086,0.012,0.174c-0.002,0.033-0.015,0.093-0.019,0.126
								c-0.005,0.034,0.005,0.075,0,0.106c-0.006,0.032,0.005,0.131-0.016,0.157c-0.041,0.052-0.028,0.115-0.039,0.231
								c-0.004,0.033-0.023,0.089-0.049,0.109c-0.031,0.021-0.045,0.135-0.083,0.176c-0.043,0.052-0.065,0.072-0.128,0.1
								c-0.023,0.01-0.103,0.009-0.109-0.02c0.017-0.088,0.01-0.146,0.024-0.218c0.012-0.063,0.067-0.116,0.077-0.171
								c0.013-0.072,0.002-0.096,0.01-0.16c0.008-0.066,0.045-0.164,0.058-0.253c0.006-0.04,0.053-0.235,0.06-0.278
								c0.013-0.084,0.002-0.209,0.007-0.289C20.996,36.109,20.973,36.072,21.008,36.047z"/>
							<path fill="#FFFFFF" d="M22.939,36.953c-0.267,0.084-0.279-0.587-0.196-0.735c0.015-0.026,0.07-0.063,0.081-0.056
								c0.045,0.029,0.112,0.072,0.114,0.115C22.95,36.488,22.939,36.686,22.939,36.953z"/>
							<path fill="#FFFFFF" d="M22.074,36.576c-0.055-0.049-0.094-0.047-0.11-0.079c-0.048-0.095,0.057-0.177,0.073-0.329
								c0.009-0.089,0.036-0.191-0.021-0.254c-0.029-0.032-0.07-0.029-0.146-0.047c-0.024,0.086-0.018,0.186-0.055,0.277
								c-0.024,0.06-0.012,0.08-0.083,0.146c-0.014-0.018-0.054-0.018-0.06-0.03c-0.018-0.05,0.026-0.104-0.007-0.11
								c-0.044-0.008-0.15-0.026-0.197,0c-0.016,0.01-0.005,0.018-0.012,0.039c-0.01,0.033,0.026,0.125,0.011,0.185
								c-0.005,0.024-0.054,0.038-0.06,0.06c-0.016,0.082-0.07,0.051-0.086,0.108c-0.03,0.112-0.016,0.26-0.022,0.3
								c-0.018,0.09-0.018,0.295,0.03,0.313c0.066,0.022,0.137,0.031,0.218,0.004c0.026-0.01,0.069-0.031,0.094-0.044
								c0.03-0.015,0.039-0.05,0.062-0.076c0.026-0.029,0.064-0.062,0.095-0.084c0.033-0.024,0.062-0.089,0.136-0.101
								c0.037-0.006,0.064-0.021,0.089-0.045C22.071,36.757,22.105,36.604,22.074,36.576z M21.536,37.014l-0.06-0.019l-0.024-0.067
								l-0.02-0.027l0.026-0.146h0.071l0.008,0.162L21.536,37.014z M21.814,36.77h-0.107l0.012-0.271h0.095V36.77z"/>
						</g>
						<g>
							<path fill="#FFFFFF" d="M32.662,37.734c-0.09,0.021-0.18,0.053-0.272,0.065c-0.059,0.007-0.143,0.017-0.178-0.018
								c-0.04-0.036-0.058-0.121-0.047-0.183c0.013-0.08,0.047-0.162,0.096-0.228c0.236-0.308,0.3-0.654,0.292-1.032
								c-0.002-0.063,0.103-0.173,0.171-0.184c0.207-0.034,0.423-0.021,0.632-0.045c0.132-0.018,0.264-0.057,0.382-0.113
								c0.048-0.023,0.085-0.125,0.078-0.186c-0.006-0.043-0.091-0.107-0.144-0.109c-0.247-0.016-0.495-0.041-0.716,0.13
								c-0.212,0.164-0.469,0.215-0.732,0.176c-0.094-0.013-0.222-0.067-0.256-0.143c-0.03-0.062,0.053-0.177,0.084-0.269
								c0.015,0.021,0.029,0.041,0.044,0.064c0.194-0.02,0.389-0.037,0.637-0.061c-0.103-0.156-0.171-0.244-0.221-0.345
								c-0.027-0.055-0.04-0.133-0.019-0.187c0.01-0.028,0.116-0.051,0.16-0.031c0.184,0.08,0.436,0.059,0.5,0.33
								c0.008,0.031,0.109,0.052,0.17,0.061c0.156,0.021,0.33,0,0.467,0.063c0.108,0.048,0.208,0.179,0.251,0.296
								c0.056,0.149-0.015,0.286-0.19,0.325c-0.212,0.046-0.425,0.092-0.639,0.121c-0.123,0.018-0.25,0.004-0.417,0.004
								c0.109,0.181,0.15,0.316-0.062,0.389c-0.02,0.006-0.02,0.173,0.022,0.229c0.09,0.121,0.048,0.164-0.053,0.25
								c-0.136,0.113-0.241,0.268-0.375,0.422c0.346,0.109,0.474,0.041,0.532-0.238c0.07-0.339,0.149-0.363,0.447-0.158
								c0.066,0.044,0.15,0.064,0.23,0.081c0.146,0.03,0.137,0.116,0.053,0.188c-0.096,0.082-0.212,0.188-0.324,0.192
								c-0.296,0.021-0.358,0.235-0.453,0.438c-0.034,0.074-0.062,0.156-0.116,0.217c-0.035,0.04-0.109,0.046-0.166,0.064
								c-0.012-0.064-0.052-0.143-0.03-0.194c0.049-0.114,0.128-0.218,0.194-0.324C32.686,37.775,32.674,37.754,32.662,37.734z"/>
							<path fill="#FFFFFF" d="M33.307,37.846c0.168,0.051,0.297,0.081,0.419,0.135c0.045,0.018,0.102,0.086,0.096,0.123
								c-0.008,0.057-0.059,0.123-0.109,0.147c-0.215,0.103-0.35,0.021-0.374-0.217C33.335,37.992,33.325,37.947,33.307,37.846z"/>
						</g>
					</g>
					<g>
						<g>
							<path fill="#FFFFFF" d="M27.975,36.402c-0.195-0.012-0.321,0.016-0.415-0.03c-0.093-0.044-0.152-0.157-0.227-0.241
								c0.081-0.033,0.162-0.091,0.244-0.095c0.438-0.015,0.877-0.015,1.315-0.021c0.061-0.002,0.127-0.013,0.18,0.01
								c0.061,0.022,0.111,0.078,0.166,0.117c-0.056,0.049-0.105,0.129-0.167,0.145c-0.147,0.031-0.301,0.031-0.451,0.045
								c-0.233,0.021-0.255,0.04-0.392,0.287c0.086,0.044,0.168,0.09,0.254,0.13c0.177,0.077,0.235,0.199,0.154,0.384
								c-0.148,0.338-0.078,0.45,0.287,0.512c0.092,0.015,0.172,0.105,0.258,0.162c-0.086,0.067-0.168,0.19-0.257,0.194
								c-0.431,0.022-0.863,0.017-1.293,0.013c-0.122-0.002-0.25-0.055-0.216-0.197c0.016-0.063,0.143-0.113,0.229-0.143
								c0.076-0.021,0.173,0.016,0.246-0.014c0.079-0.031,0.19-0.104,0.196-0.167c0.007-0.081-0.075-0.171-0.123-0.255
								c-0.008-0.018-0.04-0.021-0.06-0.03c-0.241-0.112-0.243-0.147-0.105-0.366C27.875,36.723,27.908,36.575,27.975,36.402z"/>
							<path fill="#FFFFFF" d="M26.391,38.066c-0.012-0.174-0.037-0.351-0.036-0.522c0.003-0.485,0.01-0.971,0.035-1.452
								c0.004-0.102,0.091-0.197,0.141-0.297c0.047,0.104,0.138,0.206,0.135,0.309c-0.013,0.596-0.046,1.193-0.082,1.789
								c-0.003,0.063-0.057,0.123-0.088,0.186C26.461,38.074,26.426,38.068,26.391,38.066z"/>
							<path fill="#FFFFFF" d="M26.744,37.424c0.067-0.111,0.128-0.313,0.206-0.316c0.184-0.015,0.177,0.179,0.194,0.317
								c0.018,0.127,0.042,0.257,0.027,0.382c-0.008,0.072-0.088,0.135-0.136,0.202c-0.067-0.06-0.166-0.104-0.193-0.179
								c-0.044-0.117-0.04-0.251-0.057-0.378C26.772,37.441,26.757,37.432,26.744,37.424z"/>
							<path fill="#FFFFFF" d="M26.881,36.928c0-0.379-0.012-0.705,0.007-1.027c0.004-0.094,0.106-0.152,0.198-0.045
								c0.1,0.117,0.095,0.828-0.009,0.941C27.04,36.837,26.984,36.857,26.881,36.928z"/>
							<path fill="#FFFFFF" d="M26.229,36.364c-0.016,0.157-0.016,0.274-0.045,0.382c-0.013,0.055-0.08,0.096-0.121,0.141
								c-0.038-0.045-0.102-0.088-0.107-0.134c-0.031-0.256-0.06-0.513-0.062-0.771c-0.001-0.075,0.09-0.15,0.138-0.227
								c0.051,0.067,0.131,0.128,0.15,0.201C26.217,36.104,26.219,36.258,26.229,36.364z"/>
							<path fill="#FFFFFF" d="M25.912,37.592c0-0.111-0.01-0.228,0.003-0.338c0.007-0.049,0.063-0.09,0.098-0.135
								c0.041,0.037,0.122,0.126,0.124,0.166c0.013,0.23,0.013,0.404,0.005,0.636c-0.001,0.038-0.079,0.074-0.121,0.108
								c-0.037-0.047-0.097-0.092-0.106-0.146c-0.019-0.095-0.006-0.194-0.006-0.293C25.909,37.592,25.911,37.592,25.912,37.592z"/>
						</g>
						<g>
							<path fill="#FFFFFF" d="M27.587,46.917c-7.909,0-14.366-6.446-14.386-14.299c-0.021-7.914,6.315-14.312,14.085-14.467
								c8.212-0.163,14.779,6.526,14.691,14.542C41.893,40.536,35.468,46.938,27.587,46.917z M15.086,26.71
								c-0.053,0.098-0.115,0.192-0.159,0.293c-0.896,2.065-1.278,4.22-1.125,6.47c0.124,1.854,0.576,3.625,1.444,5.264
								c2.251,4.248,5.753,6.781,10.525,7.492c2.199,0.328,4.355,0.08,6.444-0.672c5.772-2.072,9.457-7.582,9.18-13.704
								c-0.077-1.698-0.469-3.323-1.151-4.879c-0.024-0.053-0.06-0.102-0.105-0.176c-0.19,0.952-0.749,1.544-1.563,1.929
								c-0.085,0.04-0.177,0.119-0.209,0.202c-0.299,0.764-0.871,1.235-1.609,1.541c-0.084,0.035-0.175,0.111-0.215,0.19
								c-0.475,0.941-1.273,1.417-2.285,1.484c-0.929,0.063-1.863,0.017-2.796,0.024c-0.096,0.001-0.261,0.031-0.272,0.076
								c-0.021,0.094,0.02,0.217,0.068,0.311c0.095,0.185,0.213,0.357,0.351,0.583c-0.537,0-1.017,0-1.496,0
								c0,0.139,0,0.247,0,0.393c0.583,0,1.151,0,1.764,0c-0.904,0.861-1.318,1.875-1.289,3.066c0.03,1.202,0.551,2.178,1.461,3.038
								c-1.087,0-2.103,0-3.125,0c-0.025,0.368-0.133,0.665-0.377,0.909c-0.066,0.064-0.132,0.167-0.138,0.255
								c-0.096,1.308-0.178,2.615-0.272,3.923c-0.025,0.346-0.075,0.693-0.136,1.034c-0.037,0.205-0.187,0.285-0.402,0.285
								c-0.221,0-0.342-0.099-0.398-0.295c-0.025-0.088-0.047-0.177-0.054-0.267c-0.048-0.619-0.093-1.238-0.137-1.857
								c-0.066-0.938-0.129-1.874-0.198-2.813c-0.005-0.07-0.023-0.166-0.071-0.203c-0.311-0.246-0.423-0.578-0.457-0.98
								c-1.024,0-2.041,0-3.116,0c0.913-0.854,1.43-1.837,1.457-3.038c0.027-1.192-0.394-2.211-1.3-3.065
								c0.579,0,1.102-0.006,1.625,0.002c0.14,0,0.186-0.049,0.183-0.188c-0.003-0.13-0.015-0.217-0.182-0.213
								c-0.355,0.01-0.712,0.003-1.068,0.003c-0.078-0.001-0.153-0.01-0.262-0.019c0.135-0.225,0.25-0.41,0.359-0.599
								c0.146-0.247,0.09-0.347-0.19-0.348c-0.902-0.002-1.804,0.007-2.707-0.014c-0.288-0.007-0.592-0.054-0.862-0.153
								c-0.701-0.261-1.291-0.666-1.58-1.403c-0.021-0.055-0.106-0.096-0.17-0.122c-0.75-0.296-1.33-0.768-1.625-1.547
								c-0.029-0.076-0.115-0.149-0.194-0.188c-0.861-0.419-1.475-1.024-1.568-2.034c0.12-0.006,0.241-0.017,0.361-0.017
								c2.442-0.002,4.884-0.002,7.325,0c0.149,0.001,0.241-0.033,0.326-0.175c0.203-0.342,0.53-0.452,0.917-0.4
								c0.334,0.045,0.561,0.228,0.667,0.541c0.119,0.356,0.123,0.712-0.166,0.995c-0.131,0.129-0.113,0.25-0.067,0.39
								c0.258,0.785,0.813,1.347,1.351,1.873c0.276-0.175,0.517-0.345,0.774-0.482c0.129-0.067,0.209-0.114,0.23-0.281
								c0.054-0.428,0.454-0.73,0.888-0.712c0.393,0.017,0.682,0.323,0.731,0.763c0.007,0.057,0.038,0.135,0.082,0.163
								c0.294,0.179,0.594,0.348,0.922,0.538c0.503-0.478,1.007-1.018,1.297-1.721c0.037-0.09,0.068-0.189,0.066-0.284
								c-0.001-0.08-0.036-0.175-0.089-0.234c-0.269-0.3-0.291-0.643-0.169-1c0.11-0.318,0.338-0.51,0.685-0.55
								c0.391-0.047,0.709,0.068,0.916,0.41c0.071,0.12,0.143,0.169,0.282,0.168c2.494-0.009,4.989-0.013,7.483-0.02
								c0.057,0,0.113-0.012,0.166-0.019c0.003-0.034,0.008-0.051,0.003-0.063c-0.024-0.056-0.048-0.111-0.076-0.165
								c-0.753-1.515-1.732-2.868-2.991-3.999c-3.543-3.187-7.678-4.357-12.339-3.378c-3.819,0.802-6.749,2.964-8.832,6.262
								C15.541,25.75,15.331,26.241,15.086,26.71z M19.459,30.6c-0.015,0.021-0.03,0.041-0.044,0.062
								c0.09,0.106,0.166,0.229,0.272,0.314c0.454,0.37,0.977,0.585,1.562,0.593c1,0.016,2.001,0.004,3.001,0.005
								c0.27,0,0.357,0.085,0.354,0.352c-0.004,0.2-0.026,0.401-0.041,0.612c0.168,0,0.343,0,0.512,0
								c0.011-0.036,0.018-0.05,0.018-0.064c0.057-0.665,0.102-1.33,0.361-1.957c0.017-0.042-0.038-0.131-0.082-0.176
								c-0.176-0.177-0.378-0.33-0.538-0.519c-0.519-0.607-0.913-1.283-1.033-2.088c-0.03-0.198-0.066-0.396,0.187-0.518
								c0.079-0.038,0.13-0.223,0.116-0.332c-0.01-0.079-0.149-0.201-0.227-0.197c-0.106,0.005-0.246,0.086-0.304,0.177
								c-0.071,0.112-0.071,0.267-0.107,0.431c-2.487,0-4.991,0-7.502,0c0.145,0.459,0.814,0.966,1.261,0.967
								c1.531,0.001,3.063-0.001,4.593,0.002c0.084,0,0.209,0.01,0.244,0.063c0.114,0.173,0.193,0.368,0.312,0.602
								c-1.645,0-3.235,0-4.835,0c0.161,0.496,0.917,1.013,1.455,1.016c1.25,0.002,2.5,0,3.751,0.001
								c0.07,0.001,0.174,0.001,0.207,0.044c0.14,0.181,0.256,0.377,0.409,0.61C22.015,30.6,20.738,30.6,19.459,30.6z
								 M39.244,27.281c-2.531,0-5.039,0-7.539,0c-0.012-0.124-0.006-0.233-0.035-0.333c-0.043-0.155-0.143-0.293-0.315-0.27
								c-0.098,0.013-0.227,0.104-0.265,0.193c-0.069,0.166,0.032,0.295,0.174,0.4c0.065,0.048,0.131,0.144,0.134,0.222
								c0.02,0.492-0.162,0.935-0.379,1.362c-0.314,0.615-0.74,1.141-1.233,1.514c0.13,0.749,0.252,1.452,0.376,2.169
								c0.139,0,0.314,0,0.479,0c-0.019-0.197-0.046-0.375-0.049-0.552c-0.008-0.357,0.059-0.417,0.426-0.417
								c0.969,0,1.94,0.008,2.911-0.002c0.595-0.007,1.125-0.223,1.584-0.598c0.104-0.085,0.177-0.208,0.265-0.315
								c-0.012-0.019-0.023-0.037-0.036-0.055c-1.283,0-2.566,0-3.898,0c0.108-0.174,0.201-0.3,0.27-0.438
								c0.087-0.169,0.205-0.223,0.397-0.221c1.152,0.01,2.305-0.01,3.457,0.013c0.523,0.009,0.944-0.189,1.325-0.502
								c0.154-0.128,0.264-0.309,0.393-0.466c-0.016-0.024-0.033-0.048-0.048-0.073c-1.591,0-3.183,0-4.805,0
								c0.078-0.161,0.149-0.279,0.194-0.405c0.068-0.193,0.185-0.25,0.392-0.249c1.494,0.01,2.987,0.005,4.481,0.004
								C38.4,28.261,39.05,27.799,39.244,27.281z M28.237,33.906c-0.126,0.074-0.263,0.152-0.402,0.229
								c-0.133,0.071-0.27,0.138-0.403,0.207c-0.128,0.067-0.254,0.14-0.381,0.206c-0.018-0.027-0.036-0.053-0.054-0.08
								c0.548-0.298,0.91-0.758,1.167-1.309c-0.783,0-1.58,0-2.385,0c0,1.676,0,3.33,0,4.994c1.24,0,2.464,0,3.701,0
								c0-1.67,0-3.324,0-4.994c-0.396,0-0.777,0-1.212,0c0.111,0.227,0.17,0.451,0.31,0.604c0.181,0.195,0.428,0.33,0.643,0.495
								c0.062,0.048,0.111,0.112,0.166,0.165c-0.019,0.024-0.035,0.047-0.054,0.07C28.911,34.418,28.627,34.063,28.237,33.906z
								 M27.585,44.964c0.012,0.007,0.026,0.011,0.039,0.019c0.083-1.52,0.165-3.039,0.254-4.56
								c0.006-0.096,0.066-0.205,0.134-0.278c0.126-0.145,0.223-0.283,0.16-0.506c-0.305,0-0.607-0.003-0.909,0
								c-0.267,0-0.323,0.088-0.199,0.324c0.039,0.07,0.111,0.124,0.156,0.191c0.042,0.063,0.095,0.137,0.101,0.207
								c0.052,0.832,0.096,1.664,0.142,2.494C27.502,43.559,27.544,44.261,27.585,44.964z M25.793,31.705c1.204,0,2.41,0,3.614,0
								c0.026-0.314,0.02-0.324-0.272-0.324c-1.021,0-2.041,0-3.063,0C25.78,31.381,25.774,31.389,25.793,31.705z M25.735,32.251
								c-0.031,0.306-0.031,0.308,0.244,0.307c1.097-0.005,2.195-0.013,3.292-0.02c0.039,0,0.085,0.013,0.112-0.005
								c0.047-0.033,0.106-0.079,0.117-0.129c0.035-0.178-0.095-0.168-0.212-0.168c-1.128,0-2.256,0-3.385,0
								C25.853,32.236,25.8,32.246,25.735,32.251z M26.008,30.842c1.064,0,2.114,0,3.175,0c-0.027-0.221-0.114-0.324-0.351-0.322
								c-0.817,0.013-1.636,0.013-2.454,0.001C26.154,30.518,26.037,30.59,26.008,30.842z M27.602,39.316
								c0.674,0,1.348,0.002,2.021-0.006c0.066,0,0.13-0.071,0.196-0.109c-0.065-0.03-0.13-0.088-0.195-0.088
								c-1.347-0.008-2.695-0.008-4.043,0c-0.065,0-0.13,0.056-0.195,0.086c0.064,0.039,0.128,0.111,0.194,0.111
								C26.253,39.318,26.928,39.316,27.602,39.316z M28.55,30.011c-0.442-0.462-1.699-0.363-1.895,0
								C27.275,30.011,27.894,30.011,28.55,30.011z M25.355,38.573c0.037,0.11,0.042,0.217,0.089,0.241
								c0.061,0.033,0.178,0.028,0.229-0.014c0.043-0.033,0.026-0.144,0.036-0.229C25.591,38.573,25.502,38.573,25.355,38.573z
								 M26.793,38.579c0.011,0.082-0.002,0.202,0.037,0.222c0.07,0.037,0.182,0.039,0.253,0.006
								c0.04-0.021,0.031-0.141,0.047-0.228C27.007,38.579,26.917,38.579,26.793,38.579z M26.418,38.824
								c-0.005-0.096-0.008-0.167-0.011-0.238c-0.112,0-0.207,0-0.317,0c0.005,0.087,0.009,0.158,0.013,0.238
								C26.209,38.824,26.296,38.824,26.418,38.824z M28.463,38.818c-0.004-0.09-0.008-0.162-0.011-0.229c-0.112,0-0.207,0-0.294,0
								C28.096,38.877,28.265,38.846,28.463,38.818z M28.87,38.813c0.319,0.039,0.328,0.033,0.29-0.229
								c-0.031-0.004-0.068-0.013-0.104-0.013c-0.058,0-0.116,0.006-0.186,0.009C28.87,38.661,28.87,38.732,28.87,38.813z
								 M29.515,38.809c0.308,0.053,0.34,0.024,0.267-0.226c-0.087,0-0.176,0-0.267,0C29.515,38.668,29.515,38.739,29.515,38.809z
								 M27.471,38.807c0.304,0.059,0.337,0.029,0.267-0.224c-0.087,0-0.175,0-0.267,0C27.471,38.666,27.471,38.739,27.471,38.807z"
								/>
							<path fill="#FFFFFF" d="M28.351,35.109c-0.37,0.185-0.649,0.527-1.082,0.523c-0.016-0.021-0.031-0.046-0.047-0.068
								c0.082-0.08,0.152-0.181,0.248-0.24c0.306-0.193,0.475-0.477,0.579-0.813c0.024-0.075,0.095-0.14,0.142-0.212
								c0.055,0.063,0.131,0.113,0.16,0.188c0.164,0.395,0.445,0.678,0.794,0.906c0.058,0.039,0.091,0.113,0.173,0.225
								C28.844,35.617,28.633,35.277,28.351,35.109z"/>
							<path fill="#FFFFFF" d="M26.674,34.38c0,0.31,0.006,0.62-0.005,0.929c-0.004,0.073-0.074,0.145-0.113,0.215
								c-0.042-0.07-0.118-0.142-0.12-0.213c-0.011-0.621-0.013-1.24-0.004-1.86c0.001-0.071,0.085-0.14,0.131-0.21
								c0.041,0.07,0.112,0.139,0.116,0.21c0.012,0.312,0.005,0.62,0.005,0.931C26.68,34.38,26.678,34.38,26.674,34.38z"/>
							<path fill="#FFFFFF" d="M27.09,33.279c0.01,0.168,0.018,0.339,0.026,0.48c0.157-0.154,0.336-0.291,0.508-0.404
								c0.048-0.033,0.121-0.032,0.182-0.049c0.002,0.07,0.026,0.147,0.003,0.209c-0.03,0.07-0.088,0.142-0.151,0.193
								c-0.225,0.18-0.457,0.35-0.697,0.532C26.838,33.854,26.885,33.42,27.09,33.279z"/>
							<path fill="#FFFFFF" d="M26.925,34.537c0.289,0.296,0.251,0.873-0.043,0.97C26.822,35.189,26.79,34.885,26.925,34.537z"/>
							<path fill="#FFFFFF" d="M27.807,34.568c-0.091,0.15-0.174,0.303-0.272,0.439c-0.022,0.033-0.113,0.059-0.134,0.04
								c-0.04-0.028-0.078-0.104-0.065-0.146c0.045-0.151,0.101-0.303,0.177-0.439c0.025-0.045,0.129-0.063,0.195-0.056
								C27.739,34.411,27.764,34.495,27.807,34.568z"/>
							<path fill="#FFFFFF" d="M26.046,34.473c0.162,0.189,0.232,0.687,0.129,0.857c-0.026,0.042-0.095,0.079-0.144,0.079
								c-0.038,0.001-0.108-0.06-0.108-0.093c0-0.061-0.021-0.125,0.003-0.18c0.014-0.031,0.033-0.135,0.014-0.258
								c-0.015-0.102,0.008-0.195,0.016-0.295C25.958,34.55,26.006,34.521,26.046,34.473z"/>
							<path fill="#FFFFFF" d="M26.056,33.242c0.112,0.195,0.167,0.322,0.178,0.48c0.007,0.082,0.009,0.188-0.012,0.278
								c-0.016,0.063-0.108,0.108-0.166,0.16c-0.125-0.07-0.125-0.136-0.131-0.208c-0.009-0.074,0.019-0.094,0.023-0.135
								c0.006-0.045-0.003-0.094,0-0.15c0.004-0.072-0.015-0.202-0.009-0.273C25.944,33.342,25.973,33.279,26.056,33.242z"/>
						</g>
					</g>
				</g>
				<g>
					<path fill="#FFFFFF" d="M23.386,18.292c-0.713,0.068-1.201-0.446-1.797-0.751c-0.179,0.674-0.407,1.301-1.002,1.696
						c-0.022-0.01-0.043-0.02-0.065-0.03c0.042-0.104,0.077-0.212,0.129-0.313c0.167-0.321,0.353-0.634,0.505-0.963
						c0.133-0.288,0.161-0.598,0.076-0.91c-0.107-0.393-0.215-0.786-0.346-1.253c-0.304,0.254-0.563,0.481-0.835,0.69
						c-0.096,0.073-0.227,0.102-0.342,0.151c0.005-0.133-0.032-0.29,0.025-0.395c0.176-0.324,0.476-0.529,0.8-0.679
						c0.194-0.088,0.208-0.188,0.145-0.366c-0.056-0.157-0.071-0.328-0.069-0.504c0.279,0.118,0.303,0.411,0.458,0.606
						c0.252-0.042,0.502-0.099,0.755-0.12c0.162-0.012,0.333,0.017,0.493,0.054c0.076,0.019,0.136,0.105,0.249,0.195
						c-0.491,0.083-0.909,0.153-1.343,0.228c0.164,0.505,0.304,0.967,0.464,1.422c0.104,0.297,0.354,0.466,0.62,0.602
						c0.282,0.145,0.573,0.272,0.857,0.414c0.09,0.045,0.17,0.111,0.254,0.168C23.407,18.254,23.397,18.274,23.386,18.292z"/>
					<g>
						<path fill="#FFFFFF" d="M12.461,38.816c-0.735,0.356-1.469,0.711-2.22,1.076c-0.097-0.191-0.188-0.373-0.288-0.572
							c0.362-0.18,0.712-0.354,1.063-0.526c0.605-0.295,1.214-0.583,1.814-0.888c0.174-0.09,0.244-0.063,0.315,0.119
							c0.097,0.244,0.228,0.477,0.352,0.725c-0.59,0.509-1.171,1.011-1.752,1.516c0.007,0.012,0.013,0.025,0.02,0.039
							c0.336-0.068,0.674-0.134,1.01-0.201c0.364-0.074,0.728-0.144,1.089-0.227c0.116-0.027,0.181-0.014,0.233,0.104
							c0.124,0.266,0.257,0.527,0.393,0.807c-1.026,0.5-2.043,0.996-3.083,1.504c-0.097-0.195-0.187-0.376-0.286-0.577
							c0.751-0.37,1.493-0.733,2.234-1.098c-0.006-0.015-0.012-0.029-0.017-0.044c-0.478,0.102-0.957,0.205-1.437,0.307
							c-0.296,0.063-0.593,0.121-0.886,0.191c-0.144,0.037-0.225,0.002-0.279-0.139c-0.054-0.143-0.127-0.274-0.201-0.428
							c0.653-0.553,1.305-1.1,1.958-1.648C12.483,38.844,12.472,38.831,12.461,38.816z"/>
						<path fill="#FFFFFF" d="M46.535,33.641c-0.017,0.244-0.031,0.455-0.047,0.688c-0.437-0.031-0.851-0.064-1.263-0.086
							c-0.099-0.006-0.214,0.007-0.3,0.052c-0.519,0.267-1.033,0.541-1.547,0.813c-0.032,0.019-0.06,0.041-0.111,0.078
							c0.098,0.032,0.172,0.062,0.271,0.094c-0.08,0.322-0.158,0.635-0.241,0.969c0.422,0.111,0.83,0.22,1.237,0.327
							c0.446,0.118,0.891,0.241,1.339,0.348c0.139,0.033,0.174,0.091,0.132,0.22c-0.048,0.158-0.089,0.317-0.139,0.5
							c-0.917-0.24-1.817-0.474-2.745-0.715c-0.089,0.323-0.176,0.641-0.268,0.973c-0.188-0.049-0.361-0.094-0.556-0.146
							c0.16-0.616,0.325-1.211,0.468-1.812c0.103-0.434,0.167-0.875,0.263-1.31c0.017-0.079,0.091-0.168,0.163-0.206
							c0.4-0.207,0.808-0.402,1.249-0.617c-0.377-0.262-0.717-0.515-1.074-0.733c-0.178-0.112-0.229-0.237-0.198-0.429
							c0.026-0.155,0.032-0.312,0.052-0.514c0.33,0.242,0.632,0.463,0.934,0.685c0.2,0.148,0.414,0.283,0.597,0.455
							c0.246,0.226,0.532,0.291,0.851,0.301C45.901,33.585,46.202,33.615,46.535,33.641z"/>
						<path fill="#FFFFFF" d="M38.525,43.605c0.465-0.513,0.898-1.029,1.373-1.502c0.325-0.328,0.75-0.314,1.123-0.047
							c0.381,0.276,0.509,0.697,0.338,1.123c-0.024,0.063-0.051,0.123-0.087,0.211c0.638-0.17,1.229,0.053,1.881,0.111
							c-0.178,0.212-0.321,0.402-0.492,0.566c-0.054,0.053-0.184,0.043-0.275,0.033c-0.347-0.033-0.693-0.066-1.038-0.119
							c-0.36-0.057-0.618,0.084-0.82,0.41c0.352,0.306,0.709,0.614,1.076,0.93c-0.154,0.178-0.297,0.342-0.458,0.525
							C40.275,45.104,39.416,44.368,38.525,43.605z M40.104,44.036c0.226-0.28,0.442-0.531,0.636-0.8
							c0.141-0.189,0.101-0.393-0.073-0.543c-0.182-0.155-0.38-0.17-0.547,0c-0.236,0.238-0.448,0.504-0.681,0.77
							C39.667,43.661,39.871,43.835,40.104,44.036z"/>
						<path fill="#FFFFFF" d="M32.032,49.65c-0.148-0.703-0.296-1.41-0.448-2.137c0.222-0.045,0.417-0.082,0.628-0.127
							c0.241,1.131,0.475,2.231,0.709,3.338c-0.048,0.018-0.076,0.024-0.104,0.035c-0.397,0.164-0.692,0.077-0.972-0.277
							c-0.33-0.422-0.733-0.784-1.103-1.176c-0.082-0.086-0.157-0.181-0.234-0.269c-0.019,0.012-0.038,0.024-0.056,0.039
							c0.144,0.687,0.288,1.373,0.438,2.087c-0.214,0.046-0.409,0.09-0.625,0.138c-0.24-1.122-0.474-2.223-0.713-3.35
							c0.209-0.048,0.404-0.108,0.603-0.124c0.073-0.008,0.164,0.088,0.229,0.156c0.487,0.51,0.971,1.022,1.451,1.537
							c0.049,0.053,0.079,0.125,0.117,0.188C31.978,49.691,32.005,49.672,32.032,49.65z"/>
						<path fill="#FFFFFF" d="M20.981,46.496c0.197,0.104,0.37,0.197,0.567,0.303c-0.538,1.006-1.072,2.001-1.62,3.021
							c-0.188-0.1-0.371-0.182-0.537-0.291c-0.053-0.035-0.077-0.141-0.082-0.215c-0.048-0.703-0.089-1.405-0.133-2.107
							c-0.005-0.074-0.013-0.146-0.071-0.239c-0.333,0.617-0.667,1.233-1.011,1.871c-0.19-0.103-0.368-0.196-0.567-0.302
							c0.543-1.012,1.078-2.008,1.622-3.021c0.186,0.099,0.359,0.172,0.512,0.277c0.058,0.042,0.089,0.152,0.094,0.232
							c0.041,0.682,0.073,1.361,0.109,2.041c0.006,0.111,0.02,0.224,0.081,0.35C20.287,47.783,20.628,47.148,20.981,46.496z"/>
						<path fill="#FFFFFF" d="M23.648,49.736c-0.286-0.086-0.523-0.158-0.776-0.235c0.052-0.187,0.101-0.356,0.155-0.553
							c0.475,0.134,0.937,0.267,1.43,0.407c-0.125,0.431-0.241,0.848-0.368,1.265c-0.014,0.046-0.081,0.088-0.132,0.108
							c-0.699,0.305-1.724,0.117-2.25-0.406c-0.485-0.482-0.525-1.077-0.37-1.69c0.174-0.679,0.566-1.184,1.297-1.339
							c0.726-0.154,1.66,0.284,1.884,0.896c0.058,0.156,0.063,0.332,0.098,0.523c-0.235-0.018-0.422-0.021-0.606-0.05
							c-0.046-0.007-0.105-0.078-0.122-0.13c-0.2-0.669-1.044-0.906-1.511-0.396c-0.361,0.393-0.5,0.885-0.378,1.413
							c0.131,0.567,0.936,0.908,1.435,0.603C23.541,50.089,23.57,49.896,23.648,49.736z"/>
						<path fill="#FFFFFF" d="M13.939,45.617c-0.181-0.225-0.34-0.407-0.477-0.604c-0.04-0.06-0.032-0.175-0.005-0.248
							c0.168-0.453,0.347-0.902,0.521-1.354c0.024-0.06,0.042-0.124,0.057-0.168c-0.704-0.372-1.105,0.164-1.574,0.518
							c-0.145-0.182-0.281-0.351-0.437-0.544c0.893-0.712,1.778-1.416,2.687-2.138c0.144,0.179,0.283,0.354,0.435,0.543
							c-0.384,0.31-0.753,0.604-1.169,0.938c0.275,0.021,0.495,0.043,0.715,0.061c0.385,0.029,0.771,0.049,1.155,0.092
							c0.097,0.01,0.208,0.073,0.275,0.146c0.157,0.17,0.294,0.359,0.471,0.582c-0.369-0.037-0.688-0.065-1.007-0.096
							c-0.204-0.021-0.41-0.022-0.609-0.064c-0.187-0.038-0.251,0.037-0.305,0.199c-0.212,0.654-0.436,1.305-0.655,1.957
							C14,45.484,13.976,45.529,13.939,45.617z"/>
						<path fill="#FFFFFF" d="M36.279,45.438c0.673-0.53,1.325-1.047,1.997-1.578c0.117,0.147,0.232,0.293,0.361,0.457
							c-0.486,0.387-0.957,0.762-1.443,1.148c0.156,0.196,0.299,0.379,0.461,0.585c0.451-0.354,0.894-0.7,1.348-1.057
							c0.118,0.147,0.23,0.291,0.359,0.452c-0.448,0.356-0.883,0.703-1.34,1.066c0.192,0.243,0.378,0.479,0.573,0.725
							c0.5-0.394,0.986-0.774,1.491-1.174c0.121,0.146,0.234,0.283,0.371,0.447c-0.682,0.542-1.354,1.073-2.046,1.621
							C37.702,47.236,37.001,46.35,36.279,45.438z"/>
						<path fill="#FFFFFF" d="M42.628,39.492c-0.089,0.173-0.163,0.34-0.257,0.49c-0.029,0.047-0.121,0.082-0.179,0.076
							c-0.411-0.041-0.837,0.459-0.719,0.854c0.048,0.163,0.223,0.239,0.382,0.146c0.14-0.086,0.263-0.203,0.383-0.316
							c0.154-0.145,0.294-0.307,0.45-0.447c0.425-0.395,0.851-0.443,1.303-0.167c0.397,0.241,0.57,0.706,0.423,1.21
							c-0.112,0.381-0.306,0.723-0.607,0.994c-0.347,0.313-0.889,0.372-1.292,0.136c0.004-0.024,0.006-0.057,0.017-0.084
							c0.073-0.166,0.148-0.329,0.229-0.504c0.122,0.019,0.24,0.05,0.357,0.045c0.408-0.018,0.792-0.563,0.683-0.96
							c-0.076-0.275-0.356-0.38-0.582-0.188c-0.218,0.184-0.41,0.4-0.616,0.601c-0.258,0.249-0.544,0.445-0.923,0.409
							c-0.601-0.057-0.972-0.613-0.768-1.23c0.108-0.326,0.308-0.644,0.533-0.906C41.746,39.296,42.212,39.256,42.628,39.492z"/>
						<path fill="#FFFFFF" d="M17.439,44.136c0.167,0.14,0.34,0.273,0.5,0.423c0.038,0.032,0.058,0.127,0.041,0.176
							c-0.362,1.113-0.73,2.227-1.098,3.336c-0.002,0.007-0.011,0.01-0.042,0.039c-0.16-0.135-0.328-0.271-0.483-0.418
							c-0.031-0.028-0.031-0.11-0.019-0.162c0.024-0.104,0.067-0.2,0.103-0.301c0.129-0.367,0.128-0.367-0.164-0.612
							c-0.203-0.173-0.41-0.337-0.607-0.511c-0.1-0.09-0.188-0.116-0.297-0.027c-0.024,0.02-0.052,0.031-0.078,0.045
							c-0.543,0.322-0.595,0.314-1.034-0.207C15.318,45.323,16.371,44.732,17.439,44.136z M17.185,45.074
							c-0.013-0.014-0.026-0.026-0.039-0.039c-0.354,0.209-0.706,0.418-1.083,0.64c0.248,0.206,0.463,0.386,0.708,0.591
							C16.917,45.848,17.051,45.461,17.185,45.074z"/>
						<path fill="#FFFFFF" d="M8.89,35.223c0.856,0.11,1.665,0.219,2.475,0.324c0.323,0.043,0.645,0.09,0.969,0.123
							c0.144,0.014,0.209,0.073,0.24,0.215c0.125,0.547,0.13,0.547-0.34,0.879c-0.786,0.553-1.573,1.104-2.36,1.654
							c-0.055,0.042-0.112,0.076-0.196,0.129c-0.054-0.227-0.108-0.426-0.149-0.631c-0.008-0.04,0.027-0.093,0.05-0.135
							c0.009-0.02,0.035-0.031,0.055-0.038c0.527-0.209,0.571-0.563,0.415-1.072c-0.188-0.61-0.146-0.626-0.777-0.696
							c-0.154-0.019-0.248-0.066-0.27-0.234C8.982,35.575,8.934,35.416,8.89,35.223z M11.764,36.294
							c-0.005-0.017-0.01-0.034-0.015-0.052c-0.407-0.043-0.814-0.088-1.248-0.137c0.075,0.316,0.14,0.593,0.214,0.9
							C11.083,36.755,11.423,36.523,11.764,36.294z"/>
						<path fill="#FFFFFF" d="M26.412,48.005c0.234,0,0.438,0,0.687,0c0,0.118,0,0.235,0,0.354c0.005,0.635-0.001,1.271,0.019,1.908
							c0.014,0.441,0.268,0.651,0.709,0.64c0.395-0.011,0.591-0.188,0.598-0.587c0.012-0.674,0.003-1.348,0.004-2.022
							c0-0.089,0-0.179,0-0.287c0.234,0,0.45,0,0.704,0c0,0.304,0.004,0.612-0.001,0.919c-0.006,0.538,0.001,1.076-0.034,1.61
							c-0.032,0.483-0.321,0.813-0.798,0.89c-0.338,0.053-0.696,0.051-1.035,0.004c-0.452-0.064-0.768-0.408-0.8-0.867
							c-0.044-0.617-0.038-1.241-0.05-1.862C26.409,48.479,26.412,48.252,26.412,48.005z"/>
						<path fill="#FFFFFF" d="M36.226,45.514c0.171,1.176,0.338,2.315,0.503,3.454c0.001,0.009,0.002,0.015,0.003,0.021
							c0.039,0.163-0.097,0.196-0.194,0.228c-0.188,0.059-0.356,0.344-0.554,0.164c-0.86-0.775-1.697-1.574-2.569-2.395
							c0.208-0.108,0.394-0.221,0.589-0.305c0.048-0.021,0.152,0.031,0.201,0.078c0.557,0.524,1.107,1.055,1.66,1.584
							c0.027,0.023,0.056,0.049,0.14,0.122c-0.057-0.354-0.101-0.646-0.149-0.935c-0.083-0.5-0.162-1.002-0.253-1.5
							c-0.027-0.146,0.015-0.223,0.151-0.277C35.906,45.691,36.047,45.605,36.226,45.514z"/>
						<path fill="#FFFFFF" d="M12.328,34.925c-0.206,0.019-0.37,0.035-0.567,0.056c-0.028-0.332-0.055-0.653-0.084-1.012
							c-0.94,0.063-1.872,0.121-2.831,0.182c-0.017-0.232-0.032-0.446-0.048-0.687c0.317-0.024,0.609-0.047,0.902-0.065
							c0.566-0.037,1.133-0.076,1.7-0.101c0.188-0.008,0.25-0.073,0.229-0.26c-0.029-0.248-0.035-0.498-0.054-0.773
							c0.193-0.014,0.369-0.026,0.577-0.041C12.21,33.128,12.268,34.016,12.328,34.925z"/>
						<path fill="#FFFFFF" d="M34.474,50.166c-0.22,0.081-0.422,0.158-0.652,0.244c-0.393-1.073-0.781-2.137-1.178-3.223
							c0.219-0.082,0.427-0.16,0.654-0.244C33.692,48.021,34.08,49.085,34.474,50.166z"/>
						<path fill="#FFFFFF" d="M41.914,38.583c0.091-0.229,0.173-0.431,0.259-0.647c1.063,0.426,2.113,0.844,3.186,1.273
							c-0.087,0.221-0.167,0.423-0.256,0.646C44.04,39.432,42.991,39.016,41.914,38.583z"/>
					</g>
					<g>
						<path fill="#FFFFFF" d="M13.986,24.593c0-0.29,0-0.582,0-0.871c0.013-0.015,0.026-0.028,0.039-0.041
							c0.08,0.109,0.208,0.211,0.228,0.33c0.034,0.202,0.025,0.42-0.012,0.622c-0.053,0.274-0.006,0.365,0.283,0.388
							c0.075,0.006,0.149,0,0.224,0c0.013,0.021,0.027,0.041,0.039,0.06c-0.053,0.046-0.105,0.132-0.162,0.134
							c-0.14,0.004-0.295,0.002-0.416-0.055c-0.141-0.068-0.206-0.037-0.302,0.067c-0.312,0.336-0.766,0.425-1.077,0.229
							c0.171-0.067,0.353-0.117,0.509-0.208c0.158-0.094,0.292-0.23,0.446-0.358c-0.105-0.113-0.185-0.2-0.244-0.265
							c-0.15,0.125-0.27,0.275-0.426,0.346c-0.351,0.161-0.649-0.06-0.582-0.437c0.041-0.229,0.133-0.466,0.263-0.659
							c0.133-0.2,0.412-0.224,0.615-0.105c0.205,0.12,0.252,0.304,0.196,0.527c-0.068,0.263,0.214,0.187,0.287,0.316
							C13.925,24.606,13.957,24.6,13.986,24.593z M13.407,24.177c-0.054-0.098-0.09-0.217-0.171-0.28
							c-0.035-0.027-0.202,0.038-0.239,0.102c-0.102,0.179-0.191,0.375-0.24,0.573c-0.047,0.194,0.088,0.282,0.27,0.205
							C13.285,24.669,13.373,24.461,13.407,24.177z"/>
						<path fill="#FFFFFF" d="M15.165,23.869c-0.104-0.01-0.216,0.003-0.309-0.036c-0.313-0.131-0.617-0.283-0.927-0.423
							c-0.565-0.257-0.902-0.17-1.285,0.324c-0.218,0.281-0.353,0.593-0.41,0.946c-0.042,0.259-0.004,0.498,0.185,0.671
							c0.23,0.212,0.49,0.394,0.743,0.581c0.19,0.139,0.388,0.264,0.582,0.395c-0.017,0.037-0.033,0.075-0.051,0.111
							c-0.119-0.031-0.249-0.042-0.355-0.097c-0.234-0.123-0.454-0.272-0.686-0.4c-0.731-0.397-0.741-1.153-0.493-1.711
							c0.137-0.306,0.348-0.583,0.547-0.859c0.241-0.333,0.605-0.351,0.968-0.302c0.521,0.07,0.969,0.328,1.408,0.602
							c0.044,0.029,0.071,0.087,0.105,0.132C15.18,23.825,15.172,23.847,15.165,23.869z"/>
						<path fill="#FFFFFF" d="M12.629,23.26c-0.049-0.173-0.101-0.354-0.152-0.535c-0.029,0-0.058,0.001-0.086,0.002
							c-0.077,0.104-0.154,0.208-0.232,0.312c-0.018-0.005-0.035-0.009-0.053-0.013c0.009-0.063,0.011-0.126,0.028-0.186
							c0.098-0.332,0.099-0.332-0.265-0.461c-0.091,0.119-0.186,0.241-0.299,0.388c-0.024-0.061-0.063-0.108-0.053-0.13
							c0.111-0.221,0.193-0.438-0.084-0.697c0.147,0,0.22-0.022,0.266,0.003c0.323,0.179,0.655,0.346,0.956,0.559
							C12.945,22.708,12.913,23.037,12.629,23.26z"/>
						<path fill="#FFFFFF" d="M10.955,23.797c0.032,0.281-0.438,0.618,0.159,0.764c0.109-0.122,0.226-0.255,0.343-0.387
							c0.016,0.008,0.032,0.017,0.048,0.026c-0.055,0.16-0.111,0.318-0.167,0.48c0.232,0.286,0.337-0.029,0.487-0.13
							c0.021,0.012,0.043,0.026,0.065,0.039c-0.062,0.146-0.089,0.338-0.201,0.424c-0.082,0.062-0.287,0.022-0.41-0.034
							c-0.349-0.158-0.683-0.344-1.02-0.528c-0.021-0.012-0.002-0.098-0.002-0.149c0.346,0.044,0.443-0.247,0.606-0.448
							C10.88,23.833,10.911,23.823,10.955,23.797z"/>
						<path fill="#FFFFFF" d="M11.83,23.098c0.073,0.114,0.146,0.228,0.228,0.353c0.098-0.06,0.197-0.12,0.295-0.18
							c0.017,0.013,0.033,0.026,0.048,0.039c-0.065,0.1-0.111,0.225-0.2,0.294c-0.127,0.1-0.172,0.208-0.173,0.363
							c0,0.096-0.055,0.19-0.085,0.285c-0.023-0.002-0.045-0.002-0.068-0.003c-0.026-0.111-0.017-0.264-0.086-0.321
							c-0.066-0.055-0.214-0.012-0.364-0.062c0.112-0.095,0.271-0.169,0.326-0.291c0.056-0.125,0.013-0.294,0.013-0.444
							C11.785,23.12,11.807,23.109,11.83,23.098z"/>
						<path fill="#FFFFFF" d="M11.294,22.646c0.06,0.125,0.118,0.248,0.191,0.399c0.112-0.07,0.222-0.14,0.331-0.21
							c-0.213,0.277-0.391,0.574-0.443,0.939c-0.031-0.01-0.062-0.02-0.093-0.029c-0.022-0.121-0.045-0.241-0.071-0.376
							c-0.094,0.044-0.174,0.08-0.319,0.148c0.066-0.132,0.086-0.254,0.15-0.285c0.229-0.108,0.19-0.295,0.179-0.482
							c-0.001-0.027,0.006-0.055,0.01-0.083C11.251,22.661,11.272,22.654,11.294,22.646z"/>
					</g>
					<g>
						<path fill="#FFFFFF" d="M40.541,24.673c0.255,0.068,0.466,0.115,0.672,0.178c0.293,0.09,0.569,0.1,0.851-0.059
							c0.181-0.103,0.391-0.159,0.592-0.222c0.068-0.023,0.149-0.004,0.225-0.004c0.009,0.024,0.018,0.05,0.026,0.074
							c-0.098,0.053-0.19,0.125-0.293,0.155c-0.41,0.122-0.645,0.4-0.749,0.804c-0.058,0.218-0.118,0.437-0.182,0.654
							c-0.021,0.076-0.058,0.148-0.108,0.274c-0.163-0.274-0.067-0.501-0.031-0.716c0.037-0.221,0.107-0.436,0.163-0.655
							C40.808,25.056,40.708,25.02,40.541,24.673z"/>
						<path fill="#FFFFFF" d="M44.583,23.586c-0.337,0.275-0.691,0.461-0.888,0.753c-0.198,0.293-0.242,0.691-0.355,1.05
							c-0.157-0.383,0.01-0.791,0.015-1.211c-0.314,0.035-0.617,0.032-0.811-0.303c0.151,0.022,0.303,0.04,0.452,0.069
							c0.244,0.047,0.473,0.042,0.703-0.083c0.191-0.105,0.401-0.175,0.607-0.249C44.381,23.586,44.469,23.596,44.583,23.586z"/>
						<path fill="#FFFFFF" d="M42.351,23.489c-0.446,0.384-1.127,0.344-1.483,0.881c-0.021-0.016-0.042-0.031-0.063-0.048
							c0.065-0.114,0.104-0.256,0.197-0.338C41.381,23.645,41.84,23.499,42.351,23.489z"/>
						<path fill="#FFFFFF" d="M40.35,23.592c0.11-0.421,1.049-0.963,1.607-0.917C41.441,23.055,40.767,23.097,40.35,23.592z"/>
						<path fill="#FFFFFF" d="M42.251,25.892c-0.118-0.35,0.334-0.824,0.802-0.753C42.775,25.399,42.508,25.652,42.251,25.892z"/>
						<path fill="#FFFFFF" d="M43.87,22.685c-0.009,0.382-0.568,0.72-0.957,0.521C43.24,23.029,43.555,22.857,43.87,22.685z"/>
						<path fill="#FFFFFF" d="M43.401,21.99c-0.034,0.372-0.582,0.638-1.035,0.433C42.731,22.271,43.074,22.127,43.401,21.99z"/>
						<path fill="#FFFFFF" d="M44.171,23.159c-0.062,0.371-0.645,0.605-1.038,0.363C43.495,23.395,43.839,23.275,44.171,23.159z"/>
						<path fill="#FFFFFF" d="M41.336,24.393c0.402-0.065,0.755-0.123,1.098-0.179c-0.017,0.125-0.112,0.223-0.363,0.302
							C41.83,24.592,41.591,24.604,41.336,24.393z"/>
						<path fill="#FFFFFF" d="M43.928,24.909c-0.065-0.24,0.057-0.419,0.202-0.581c0.146-0.166,0.325-0.277,0.636-0.216
							c-0.187,0.149-0.338,0.255-0.469,0.38C44.167,24.616,44.057,24.76,43.928,24.909z"/>
						<path fill="#FFFFFF" d="M40.286,24.22c0.064-0.125,0.109-0.267,0.198-0.373c0.375-0.445,0.859-0.728,1.425-0.825
							c0.685-0.117,1.33-0.298,1.875-0.773c-0.023,0.049-0.039,0.103-0.072,0.144c-0.369,0.479-0.828,0.786-1.456,0.802
							c-0.654,0.018-1.197,0.292-1.644,0.762c-0.092,0.097-0.178,0.199-0.267,0.298C40.326,24.243,40.306,24.231,40.286,24.22z"/>
					</g>
					<g>
						<path fill="#FFFFFF" d="M36.039,16.376c-0.128-0.023-0.258-0.043-0.385-0.07c-0.132-0.026-0.218-0.01-0.277,0.142
							c-0.184,0.472-0.391,0.932-0.579,1.401c-0.062,0.157-0.006,0.278,0.164,0.34c0.172,0.064,0.282,0.188,0.337,0.429
							c-0.135-0.033-0.245-0.042-0.336-0.085c-0.359-0.174-0.714-0.355-1.067-0.542c-0.058-0.03-0.098-0.093-0.147-0.143
							c0.065-0.024,0.13-0.073,0.194-0.071c0.616,0.012,0.617,0.016,0.84-0.558c0.117-0.302,0.231-0.606,0.349-0.91
							c0.044-0.113,0.045-0.19-0.092-0.251c-0.068-0.031-0.102-0.139-0.151-0.213c0.082-0.007,0.174-0.04,0.246-0.014
							c0.254,0.093,0.503,0.201,0.749,0.315c0.073,0.035,0.125,0.112,0.186,0.169C36.059,16.337,36.048,16.357,36.039,16.376z"/>
						<path fill="#FFFFFF" d="M32.944,18.422c-0.194-0.177-0.189-0.388-0.189-0.583c0.003-0.552,0.145-1.076,0.504-1.498
							c0.438-0.515,0.86-1.029,1.04-1.703c0.021,0.005,0.041,0.01,0.062,0.015c-0.011,0.122-0.015,0.243-0.033,0.363
							c-0.056,0.391-0.177,0.771-0.469,1.037c-0.562,0.51-0.753,1.168-0.851,1.878C32.987,18.081,32.969,18.23,32.944,18.422z"/>
						<path fill="#FFFFFF" d="M33.095,15.888c-0.26,0.692-0.518,1.385-0.793,2.12c-0.023-0.173-0.073-0.333-0.062-0.49
							c0.043-0.653,0.385-1.169,0.769-1.664C33.037,15.865,33.066,15.876,33.095,15.888z"/>
						<path fill="#FFFFFF" d="M33.972,16.465c-0.183,0.68-0.358,1.334-0.536,1.99C33.248,17.905,33.467,16.785,33.972,16.465z"/>
						<path fill="#FFFFFF" d="M33.784,14.512c0.167,0.393-0.144,1.015-0.603,1.108C33.389,15.239,33.587,14.875,33.784,14.512z"/>
						<path fill="#FFFFFF" d="M34.757,14.874c0.24,0.322-0.108,1.125-0.613,1.272C34.357,15.705,34.559,15.286,34.757,14.874z"/>
					</g>
				</g>
			</g>
		</g>
		<g>
			<g>
				<path fill="#FFFFFF" d="M63.284,50.299v-7.104h2.156c2.507,0,3.761,1.154,3.761,3.463c0,1.109-0.357,1.994-1.071,2.652
					c-0.714,0.66-1.629,0.988-2.745,0.988H63.284z M64.385,44.141v5.215h0.967c0.838,0,1.496-0.235,1.975-0.705
					c0.479-0.469,0.718-1.125,0.718-1.971c0-0.828-0.228-1.459-0.683-1.892c-0.455-0.433-1.116-0.647-1.981-0.647H64.385z"/>
				<path fill="#FFFFFF" d="M75.068,48.052h-3.486c0.046,1.024,0.567,1.536,1.564,1.536c0.563,0,1.075-0.168,1.536-0.505v0.892
					c-0.453,0.295-1.047,0.443-1.784,0.443c-0.752,0-1.341-0.229-1.766-0.688c-0.425-0.459-0.638-1.103-0.638-1.928
					c0-0.781,0.229-1.428,0.686-1.936s1.029-0.762,1.717-0.762c0.685,0,1.218,0.217,1.599,0.648c0.38,0.434,0.571,1.028,0.571,1.786
					L75.068,48.052L75.068,48.052z M74.022,47.268c-0.003-0.435-0.103-0.768-0.298-1c-0.195-0.231-0.474-0.349-0.835-0.349
					c-0.327,0-0.611,0.123-0.853,0.369c-0.241,0.246-0.391,0.571-0.449,0.979H74.022L74.022,47.268z"/>
				<path fill="#FFFFFF" d="M77.692,49.615v3.019h-1.078v-7.407h1.078v0.844h0.023c0.391-0.643,0.96-0.963,1.706-0.963
					c0.645,0,1.152,0.226,1.522,0.677c0.37,0.45,0.555,1.063,0.555,1.833c0,0.847-0.209,1.525-0.628,2.035
					c-0.419,0.512-0.98,0.767-1.683,0.767c-0.642,0-1.133-0.269-1.472-0.803L77.692,49.615L77.692,49.615z M77.683,48.161
					c0,0.396,0.122,0.726,0.367,0.993c0.245,0.267,0.554,0.4,0.927,0.4c0.449,0,0.798-0.172,1.045-0.516s0.372-0.82,0.372-1.43
					c0-0.522-0.115-0.928-0.344-1.213s-0.551-0.43-0.963-0.43s-0.75,0.15-1.011,0.45c-0.261,0.3-0.392,0.679-0.392,1.138
					L77.683,48.161L77.683,48.161z"/>
				<path fill="#FFFFFF" d="M83.105,45.564c0.517-0.306,1.114-0.457,1.793-0.457c1.281,0,1.921,0.66,1.921,1.984v3.206h-1.045
					v-0.771h-0.023c-0.346,0.593-0.859,0.89-1.541,0.89c-0.499,0-0.891-0.135-1.177-0.403c-0.286-0.27-0.429-0.632-0.429-1.087
					c0-0.954,0.567-1.511,1.702-1.67l1.472-0.2c0-0.757-0.332-1.134-0.995-1.134c-0.608,0-1.168,0.196-1.679,0.591L83.105,45.564
					L83.105,45.564z M84.66,47.941c-0.367,0.049-0.626,0.143-0.777,0.279c-0.151,0.137-0.227,0.34-0.227,0.604
					c0,0.224,0.081,0.405,0.243,0.549c0.162,0.142,0.37,0.213,0.624,0.213c0.361,0,0.661-0.128,0.899-0.383
					c0.239-0.256,0.358-0.577,0.358-0.966V47.79L84.66,47.941z"/>
				<path fill="#FFFFFF" d="M91.549,46.254c-0.159-0.104-0.37-0.156-0.633-0.156c-0.349,0-0.631,0.153-0.846,0.459
					c-0.216,0.307-0.323,0.711-0.323,1.215v2.527h-1.078v-5.072h1.078v1.01h0.023c0.25-0.73,0.694-1.098,1.33-1.098
					c0.189,0,0.339,0.021,0.449,0.064V46.254z"/>
				<path fill="#FFFFFF" d="M95.696,50.244c-0.199,0.111-0.484,0.169-0.857,0.169c-0.963,0-1.445-0.522-1.445-1.567v-2.767h-0.857
					v-0.853h0.857v-1.188l1.073-0.325v1.514h1.229v0.854h-1.229v2.578c0,0.314,0.056,0.542,0.167,0.683
					c0.111,0.142,0.291,0.211,0.539,0.211c0.192,0,0.367-0.055,0.522-0.165L95.696,50.244L95.696,50.244z"/>
				<path fill="#FFFFFF" d="M104.636,50.299h-1.078v-2.908c0-0.5-0.081-0.863-0.243-1.086c-0.162-0.224-0.42-0.336-0.775-0.336
					c-0.306,0-0.569,0.143-0.789,0.424c-0.22,0.28-0.33,0.625-0.33,1.03v2.876h-1.073v-2.98c0-0.898-0.344-1.35-1.032-1.35
					c-0.318,0-0.582,0.137-0.791,0.408s-0.314,0.624-0.314,1.057v2.865h-1.078v-5.072h1.078v0.799h0.023
					c0.364-0.611,0.896-0.918,1.596-0.918c0.712,0,1.194,0.338,1.445,1.014c0.379-0.676,0.945-1.014,1.697-1.014
					c1.11,0,1.665,0.687,1.665,2.06L104.636,50.299L104.636,50.299z"/>
				<path fill="#FFFFFF" d="M110.732,48.052h-3.486c0.046,1.024,0.567,1.536,1.564,1.536c0.563,0,1.075-0.168,1.536-0.505v0.892
					c-0.453,0.295-1.047,0.443-1.784,0.443c-0.752,0-1.341-0.229-1.766-0.688c-0.425-0.459-0.638-1.103-0.638-1.928
					c0-0.781,0.229-1.428,0.686-1.936c0.457-0.508,1.029-0.762,1.717-0.762c0.685,0,1.218,0.217,1.599,0.648
					c0.38,0.434,0.571,1.028,0.571,1.786L110.732,48.052L110.732,48.052z M109.687,47.268c-0.003-0.435-0.103-0.768-0.298-1
					c-0.195-0.231-0.474-0.349-0.835-0.349c-0.327,0-0.611,0.123-0.853,0.369c-0.241,0.246-0.391,0.571-0.449,0.979H109.687
					L109.687,47.268z"/>
				<path fill="#FFFFFF" d="M116.731,50.299h-1.073v-2.865c0-0.977-0.355-1.465-1.064-1.465c-0.358,0-0.654,0.137-0.888,0.406
					s-0.351,0.613-0.351,1.029v2.895h-1.078v-5.072h1.078v0.83h0.023c0.376-0.633,0.926-0.949,1.651-0.949
					c1.134,0,1.702,0.697,1.702,2.092V50.299L116.731,50.299z"/>
				<path fill="#FFFFFF" d="M121.186,50.244c-0.199,0.111-0.484,0.169-0.857,0.169c-0.963,0-1.445-0.522-1.445-1.567v-2.767h-0.857
					v-0.853h0.857v-1.188l1.073-0.325v1.514h1.229v0.854h-1.229v2.578c0,0.314,0.056,0.542,0.167,0.683
					c0.111,0.142,0.291,0.211,0.539,0.211c0.192,0,0.367-0.055,0.522-0.165L121.186,50.244L121.186,50.244z"/>
				<path fill="#FFFFFF" d="M125.067,47.809c0-0.834,0.238-1.494,0.713-1.977c0.476-0.482,1.123-0.725,1.942-0.725
					c0.773,0,1.385,0.232,1.834,0.701c0.45,0.467,0.674,1.106,0.674,1.916c0,0.816-0.237,1.471-0.711,1.959
					c-0.474,0.489-1.107,0.733-1.899,0.733c-0.776,0-1.396-0.235-1.86-0.711C125.299,49.232,125.067,48.602,125.067,47.809z
					 M126.163,47.785c0,0.557,0.135,0.99,0.406,1.303s0.638,0.469,1.103,0.469c0.975,0,1.463-0.602,1.463-1.804
					c0-0.58-0.125-1.022-0.376-1.327s-0.613-0.457-1.087-0.457c-0.474,0-0.844,0.162-1.11,0.486S126.163,47.223,126.163,47.785z"/>
				<path fill="#FFFFFF" d="M134.461,43.672c-0.181-0.086-0.366-0.129-0.555-0.129c-0.544,0-0.816,0.329-0.816,0.986v0.697h1.174
					v0.853h-1.174v4.22h-1.073v-4.22h-0.862v-0.853h0.862v-0.754c0-0.553,0.167-0.99,0.5-1.313s0.76-0.484,1.28-0.484
					c0.269,0,0.491,0.031,0.665,0.092L134.461,43.672L134.461,43.672z"/>
				<path fill="#FFFFFF" d="M139.512,44.094v0.004v5.299V49.4v0.898h-1.102V49.4v-0.004v-5.299v-0.004v-0.898h1.102V44.094z"/>
				<path fill="#FFFFFF" d="M146.044,50.299h-1.073v-2.865c0-0.977-0.354-1.465-1.064-1.465c-0.357,0-0.653,0.137-0.887,0.406
					c-0.234,0.271-0.352,0.613-0.352,1.029v2.895h-1.077v-5.072h1.077v0.83h0.023c0.376-0.633,0.926-0.949,1.651-0.949
					c1.134,0,1.701,0.697,1.701,2.092L146.044,50.299L146.044,50.299z"/>
				<path fill="#FFFFFF" d="M150.686,43.672c-0.181-0.086-0.365-0.129-0.555-0.129c-0.545,0-0.816,0.329-0.816,0.986v0.697h1.174
					v0.853h-1.174v4.22h-1.073v-4.22h-0.862v-0.853h0.862v-0.754c0-0.553,0.166-0.99,0.499-1.313c0.334-0.322,0.76-0.484,1.28-0.484
					c0.269,0,0.49,0.031,0.665,0.092V43.672z"/>
				<path fill="#FFFFFF" d="M151.416,47.809c0-0.834,0.238-1.494,0.713-1.977c0.476-0.482,1.123-0.725,1.942-0.725
					c0.774,0,1.386,0.232,1.835,0.701c0.449,0.467,0.674,1.106,0.674,1.916c0,0.816-0.236,1.471-0.711,1.959
					c-0.474,0.489-1.106,0.733-1.898,0.733c-0.776,0-1.396-0.235-1.859-0.711C151.647,49.232,151.416,48.602,151.416,47.809z
					 M152.512,47.785c0,0.557,0.135,0.99,0.405,1.303s0.639,0.469,1.104,0.469c0.976,0,1.463-0.602,1.463-1.804
					c0-0.58-0.125-1.022-0.376-1.327s-0.613-0.457-1.087-0.457c-0.475,0-0.844,0.162-1.11,0.486
					C152.645,46.779,152.512,47.223,152.512,47.785z"/>
				<path fill="#FFFFFF" d="M161.081,46.254c-0.159-0.104-0.37-0.156-0.633-0.156c-0.349,0-0.631,0.153-0.847,0.459
					c-0.215,0.307-0.323,0.711-0.323,1.215v2.527h-1.077v-5.072h1.077v1.01h0.023c0.25-0.73,0.693-1.098,1.33-1.098
					c0.189,0,0.339,0.021,0.449,0.064L161.081,46.254L161.081,46.254z"/>
				<path fill="#FFFFFF" d="M169.814,50.299h-1.078v-2.908c0-0.5-0.081-0.863-0.242-1.086c-0.162-0.224-0.421-0.336-0.775-0.336
					c-0.306,0-0.569,0.143-0.789,0.424c-0.22,0.28-0.33,0.625-0.33,1.03v2.876h-1.073v-2.98c0-0.898-0.344-1.35-1.032-1.35
					c-0.318,0-0.582,0.137-0.791,0.408s-0.314,0.624-0.314,1.057v2.865h-1.077v-5.072h1.077v0.799h0.023
					c0.363-0.611,0.896-0.918,1.596-0.918c0.713,0,1.194,0.338,1.445,1.014c0.379-0.676,0.944-1.014,1.696-1.014
					c1.11,0,1.665,0.687,1.665,2.06L169.814,50.299L169.814,50.299z"/>
				<path fill="#FFFFFF" d="M171.787,45.564c0.518-0.306,1.115-0.457,1.794-0.457c1.281,0,1.922,0.66,1.922,1.984v3.206h-1.046
					v-0.771h-0.023c-0.346,0.593-0.859,0.89-1.541,0.89c-0.498,0-0.891-0.135-1.176-0.403c-0.286-0.27-0.429-0.632-0.429-1.087
					c0-0.954,0.566-1.511,1.701-1.67l1.472-0.2c0-0.757-0.331-1.134-0.995-1.134c-0.608,0-1.168,0.196-1.679,0.591V45.564
					L171.787,45.564z M173.342,47.941c-0.367,0.049-0.627,0.143-0.778,0.279c-0.15,0.137-0.227,0.34-0.227,0.604
					c0,0.224,0.081,0.405,0.243,0.549c0.162,0.142,0.37,0.213,0.624,0.213c0.36,0,0.66-0.128,0.898-0.383
					c0.238-0.256,0.357-0.577,0.357-0.966V47.79L173.342,47.941z"/>
				<path fill="#FFFFFF" d="M179.957,50.244c-0.198,0.111-0.484,0.169-0.857,0.169c-0.963,0-1.444-0.522-1.444-1.567v-2.767h-0.858
					v-0.853h0.858v-1.188l1.073-0.325v1.514h1.229v0.854h-1.229v2.578c0,0.314,0.056,0.542,0.167,0.683
					c0.111,0.142,0.291,0.211,0.539,0.211c0.192,0,0.367-0.055,0.522-0.165V50.244L179.957,50.244z"/>
				<path fill="#FFFFFF" d="M181.278,43.482c0-0.181,0.063-0.328,0.186-0.446c0.124-0.117,0.281-0.177,0.471-0.177
					c0.187,0,0.344,0.06,0.473,0.177c0.128,0.118,0.192,0.267,0.192,0.446c0,0.181-0.064,0.33-0.192,0.447
					c-0.129,0.117-0.286,0.178-0.473,0.178s-0.343-0.061-0.468-0.18C181.34,43.809,181.278,43.661,181.278,43.482z M181.383,50.299
					v-5.072h1.078v5.072H181.383z"/>
				<path fill="#FFFFFF" d="M184.077,47.809c0-0.834,0.238-1.494,0.713-1.977c0.476-0.482,1.123-0.725,1.942-0.725
					c0.774,0,1.386,0.232,1.835,0.701c0.449,0.467,0.674,1.106,0.674,1.916c0,0.816-0.236,1.471-0.711,1.959
					c-0.474,0.489-1.106,0.733-1.898,0.733c-0.776,0-1.396-0.235-1.859-0.711C184.308,49.232,184.077,48.602,184.077,47.809z
					 M185.173,47.785c0,0.557,0.135,0.99,0.405,1.303s0.639,0.469,1.104,0.469c0.976,0,1.463-0.602,1.463-1.804
					c0-0.58-0.125-1.022-0.376-1.327s-0.613-0.457-1.087-0.457c-0.475,0-0.844,0.162-1.11,0.486
					C185.306,46.779,185.173,47.223,185.173,47.785z"/>
				<path fill="#FFFFFF" d="M195.315,50.299h-1.073v-2.865c0-0.977-0.354-1.465-1.064-1.465c-0.357,0-0.653,0.137-0.887,0.406
					c-0.234,0.271-0.352,0.613-0.352,1.029v2.895h-1.077v-5.072h1.077v0.83h0.023c0.376-0.633,0.926-0.949,1.651-0.949
					c1.134,0,1.701,0.697,1.701,2.092L195.315,50.299L195.315,50.299z"/>
				<path fill="#FFFFFF" d="M200.059,45.564c0.518-0.306,1.115-0.457,1.794-0.457c1.28,0,1.922,0.66,1.922,1.984v3.206h-1.047
					v-0.771h-0.022c-0.347,0.593-0.858,0.89-1.541,0.89c-0.498,0-0.891-0.135-1.176-0.403c-0.286-0.27-0.429-0.632-0.429-1.087
					c0-0.954,0.566-1.511,1.702-1.67l1.471-0.2c0-0.757-0.33-1.134-0.994-1.134c-0.608,0-1.168,0.196-1.679,0.591V45.564
					L200.059,45.564z M201.615,47.941c-0.367,0.049-0.627,0.143-0.778,0.279c-0.149,0.137-0.228,0.34-0.228,0.604
					c0,0.224,0.082,0.405,0.244,0.549c0.162,0.142,0.369,0.213,0.623,0.213c0.36,0,0.66-0.128,0.898-0.383
					c0.238-0.256,0.357-0.577,0.357-0.966V47.79L201.615,47.941z"/>
				<path fill="#FFFFFF" d="M210.078,50.299h-1.073v-2.865c0-0.977-0.354-1.465-1.063-1.465c-0.357,0-0.653,0.137-0.887,0.406
					c-0.234,0.271-0.353,0.613-0.353,1.029v2.895h-1.077v-5.072h1.077v0.83h0.022c0.377-0.633,0.926-0.949,1.651-0.949
					c1.134,0,1.701,0.697,1.701,2.092L210.078,50.299L210.078,50.299z"/>
				<path fill="#FFFFFF" d="M216.48,50.299h-1.073v-0.803h-0.022c-0.367,0.613-0.927,0.922-1.679,0.922
					c-0.644,0-1.153-0.229-1.534-0.686s-0.57-1.074-0.57-1.852c0-0.841,0.213-1.514,0.643-2.02c0.428-0.504,0.984-0.756,1.674-0.756
					c0.688,0,1.178,0.261,1.469,0.779h0.021v-3.096h1.072V50.299L216.48,50.299z M215.417,47.327c0-0.386-0.125-0.708-0.374-0.968
					s-0.559-0.392-0.924-0.392c-0.436,0-0.78,0.167-1.037,0.5c-0.257,0.334-0.385,0.789-0.385,1.367
					c0,0.532,0.119,0.951,0.361,1.259c0.241,0.309,0.57,0.461,0.985,0.461c0.404,0,0.733-0.152,0.989-0.455
					c0.255-0.306,0.383-0.688,0.383-1.154L215.417,47.327L215.417,47.327z"/>
				<path fill="#FFFFFF" d="M225.202,50.299h-3.876v-7.104h1.101v6.16h2.775V50.299L225.202,50.299z"/>
				<path fill="#FFFFFF" d="M226.422,43.482c0-0.181,0.063-0.328,0.186-0.446c0.125-0.117,0.281-0.177,0.472-0.177
					c0.187,0,0.344,0.06,0.473,0.177c0.128,0.118,0.192,0.267,0.192,0.446c0,0.181-0.064,0.33-0.192,0.447
					c-0.129,0.117-0.286,0.178-0.473,0.178s-0.343-0.061-0.468-0.18C226.484,43.809,226.422,43.661,226.422,43.482z M226.527,50.299
					v-5.072h1.078v5.072H226.527z"/>
				<path fill="#FFFFFF" d="M230.625,49.615v0.684h-1.077v-7.508h1.077v3.279h0.023c0.392-0.644,0.963-0.963,1.715-0.963
					c0.643,0,1.146,0.225,1.516,0.676s0.553,1.063,0.553,1.833c0,0.844-0.209,1.521-0.627,2.032c-0.416,0.514-0.975,0.77-1.675,0.77
					c-0.653,0-1.147-0.268-1.481-0.803H230.625z M230.616,48.18c0,0.387,0.122,0.711,0.368,0.979
					c0.246,0.266,0.555,0.398,0.925,0.398c0.45,0,0.799-0.173,1.046-0.517c0.249-0.345,0.372-0.819,0.372-1.429
					c0-0.512-0.117-0.912-0.351-1.204s-0.554-0.438-0.957-0.438c-0.402,0-0.737,0.146-1.004,0.438s-0.398,0.669-0.398,1.131
					L230.616,48.18L230.616,48.18z"/>
				<path fill="#FFFFFF" d="M238.928,46.254c-0.16-0.104-0.371-0.156-0.633-0.156c-0.35,0-0.631,0.153-0.848,0.459
					c-0.215,0.307-0.322,0.711-0.322,1.215v2.527h-1.078v-5.072h1.078v1.01h0.023c0.25-0.73,0.692-1.098,1.33-1.098
					c0.188,0,0.338,0.021,0.448,0.064L238.928,46.254L238.928,46.254z"/>
				<path fill="#FFFFFF" d="M240.299,45.564c0.518-0.306,1.115-0.457,1.793-0.457c1.281,0,1.922,0.66,1.922,1.984v3.206h-1.045
					v-0.771h-0.023c-0.346,0.593-0.858,0.89-1.541,0.89c-0.497,0-0.891-0.135-1.176-0.403c-0.287-0.27-0.43-0.632-0.43-1.087
					c0-0.954,0.566-1.511,1.701-1.67l1.473-0.2c0-0.757-0.332-1.134-0.996-1.134c-0.606,0-1.168,0.196-1.678,0.591V45.564
					L240.299,45.564z M241.854,47.941c-0.367,0.049-0.627,0.143-0.776,0.279s-0.228,0.34-0.228,0.604
					c0,0.224,0.08,0.405,0.242,0.549c0.162,0.142,0.371,0.213,0.625,0.213c0.359,0,0.66-0.128,0.898-0.383
					c0.238-0.256,0.357-0.577,0.357-0.966V47.79L241.854,47.941z"/>
				<path fill="#FFFFFF" d="M248.744,46.254c-0.16-0.104-0.371-0.156-0.633-0.156c-0.35,0-0.631,0.153-0.848,0.459
					c-0.216,0.307-0.322,0.711-0.322,1.215v2.527h-1.078v-5.072h1.078v1.01h0.022c0.25-0.73,0.693-1.098,1.33-1.098
					c0.188,0,0.338,0.021,0.449,0.064L248.744,46.254L248.744,46.254z"/>
				<path fill="#FFFFFF" d="M254.717,45.227l-2.234,5.742c-0.442,1.145-1.086,1.715-1.926,1.715c-0.274,0-0.498-0.029-0.67-0.086
					v-0.908c0.178,0.078,0.361,0.119,0.551,0.119c0.402,0,0.701-0.226,0.896-0.675l0.354-0.844l-2.01-5.063h1.196l1.222,3.619
					c0.026,0.076,0.065,0.237,0.118,0.485h0.021c0.017-0.099,0.058-0.257,0.125-0.478l1.271-3.627H254.717L254.717,45.227z"/>
				<path fill="#FFFFFF" d="M258.494,48.826c0.543,0.443,1.184,0.665,1.922,0.665c0.941,0,1.412-0.322,1.412-0.968
					c0-0.187-0.053-0.354-0.156-0.504c-0.104-0.15-0.244-0.28-0.42-0.394c-0.176-0.11-0.523-0.291-1.043-0.539
					c-0.639-0.306-1.086-0.614-1.34-0.931c-0.254-0.314-0.381-0.686-0.381-1.11c0-0.61,0.242-1.093,0.725-1.444
					c0.484-0.352,1.102-0.526,1.854-0.526c0.713,0,1.25,0.087,1.615,0.262v1.128c-0.438-0.303-0.984-0.454-1.639-0.454
					c-0.418,0-0.756,0.085-1.014,0.253c-0.256,0.168-0.385,0.398-0.385,0.692c0,0.267,0.094,0.483,0.282,0.655
					s0.584,0.399,1.188,0.688c0.707,0.33,1.193,0.661,1.464,0.992c0.271,0.332,0.403,0.714,0.403,1.145
					c0,0.644-0.231,1.133-0.696,1.474c-0.466,0.339-1.109,0.509-1.933,0.509c-0.303,0-0.639-0.036-1.008-0.109
					c-0.371-0.074-0.656-0.172-0.854-0.293v-1.189H258.494z"/>
				<path fill="#FFFFFF" d="M268.205,50.083c-0.373,0.224-0.852,0.335-1.436,0.335c-0.74,0-1.34-0.232-1.8-0.701
					c-0.459-0.469-0.688-1.08-0.688-1.835c0-0.847,0.245-1.521,0.737-2.022s1.148-0.752,1.967-0.752
					c0.507,0,0.914,0.082,1.226,0.242v1.01c-0.358-0.26-0.75-0.391-1.17-0.391c-0.494,0-0.896,0.166-1.203,0.498
					c-0.307,0.332-0.461,0.777-0.461,1.338c0,0.547,0.146,0.977,0.438,1.285c0.293,0.311,0.686,0.467,1.178,0.467
					c0.428,0,0.83-0.139,1.211-0.414V50.083z"/>
				<path fill="#FFFFFF" d="M269.668,43.482c0-0.181,0.063-0.328,0.186-0.446c0.123-0.117,0.281-0.177,0.472-0.177
					c0.187,0,0.344,0.06,0.473,0.177c0.127,0.118,0.191,0.267,0.191,0.446c0,0.181-0.064,0.33-0.191,0.447
					c-0.129,0.117-0.286,0.178-0.473,0.178c-0.188,0-0.345-0.061-0.47-0.18S269.668,43.661,269.668,43.482z M269.773,50.299v-5.072
					h1.078v5.072H269.773z"/>
				<path fill="#FFFFFF" d="M277.039,48.052h-3.486c0.047,1.024,0.568,1.536,1.564,1.536c0.563,0,1.074-0.168,1.537-0.505v0.892
					c-0.453,0.295-1.047,0.443-1.785,0.443c-0.752,0-1.34-0.229-1.766-0.688c-0.424-0.459-0.638-1.103-0.638-1.928
					c0-0.781,0.229-1.428,0.687-1.936s1.029-0.762,1.717-0.762c0.686,0,1.219,0.217,1.6,0.648s0.57,1.028,0.57,1.786V48.052
					L277.039,48.052z M275.994,47.268c-0.004-0.435-0.104-0.768-0.299-1c-0.195-0.231-0.476-0.349-0.834-0.349
					c-0.328,0-0.613,0.123-0.854,0.369s-0.394,0.571-0.448,0.979H275.994L275.994,47.268z"/>
				<path fill="#FFFFFF" d="M283.039,50.299h-1.072v-2.865c0-0.977-0.355-1.465-1.064-1.465c-0.356,0-0.653,0.137-0.887,0.406
					c-0.233,0.271-0.352,0.613-0.352,1.029v2.895h-1.078v-5.072h1.078v0.83h0.023c0.375-0.633,0.926-0.949,1.649-0.949
					c1.136,0,1.701,0.697,1.701,2.092L283.039,50.299L283.039,50.299z"/>
				<path fill="#FFFFFF" d="M288.484,50.083c-0.373,0.224-0.853,0.335-1.437,0.335c-0.739,0-1.34-0.232-1.797-0.701
					c-0.459-0.469-0.688-1.08-0.688-1.835c0-0.847,0.246-1.521,0.737-2.022c0.492-0.502,1.148-0.752,1.97-0.752
					c0.504,0,0.912,0.082,1.225,0.242v1.01c-0.361-0.26-0.752-0.391-1.17-0.391c-0.496,0-0.896,0.166-1.203,0.498
					c-0.309,0.332-0.461,0.777-0.461,1.338c0,0.547,0.145,0.977,0.438,1.285c0.291,0.311,0.685,0.467,1.176,0.467
					c0.429,0,0.832-0.139,1.211-0.414V50.083L288.484,50.083z"/>
				<path fill="#FFFFFF" d="M294.311,48.052h-3.485c0.047,1.024,0.567,1.536,1.563,1.536c0.563,0,1.074-0.168,1.537-0.505v0.892
					c-0.453,0.295-1.047,0.443-1.785,0.443c-0.752,0-1.34-0.229-1.766-0.688c-0.424-0.459-0.637-1.103-0.637-1.928
					c0-0.781,0.229-1.428,0.686-1.936s1.029-0.762,1.717-0.762c0.687,0,1.219,0.217,1.601,0.648
					c0.381,0.432,0.569,1.028,0.569,1.786V48.052L294.311,48.052z M293.266,47.268c-0.004-0.435-0.104-0.768-0.299-1
					c-0.195-0.231-0.475-0.349-0.834-0.349c-0.328,0-0.613,0.123-0.854,0.369c-0.242,0.246-0.394,0.571-0.449,0.979H293.266
					L293.266,47.268z"/>
				<path fill="#FFFFFF" d="M296.867,49.129l-0.771,2.459h-0.807l0.555-2.459H296.867z"/>
				<path fill="#FFFFFF" d="M306.045,44.141h-2.041v6.158h-1.104v-6.158h-2.035v-0.945h5.182L306.045,44.141L306.045,44.141z"/>
				<path fill="#FFFFFF" d="M306.449,45.564c0.518-0.306,1.115-0.457,1.795-0.457c1.281,0,1.922,0.66,1.922,1.984v3.206h-1.047
					v-0.771h-0.023c-0.346,0.593-0.858,0.89-1.541,0.89c-0.498,0-0.891-0.135-1.176-0.403c-0.285-0.27-0.428-0.632-0.428-1.087
					c0-0.954,0.565-1.511,1.701-1.67l1.471-0.2c0-0.757-0.33-1.134-0.994-1.134c-0.608,0-1.168,0.196-1.68,0.591V45.564
					L306.449,45.564z M308.006,47.941c-0.367,0.049-0.627,0.143-0.779,0.279c-0.149,0.137-0.227,0.34-0.227,0.604
					c0,0.224,0.082,0.405,0.244,0.549c0.162,0.142,0.369,0.213,0.623,0.213c0.36,0,0.66-0.128,0.897-0.383
					c0.238-0.256,0.357-0.577,0.357-0.966V47.79L308.006,47.941z"/>
				<path fill="#FFFFFF" d="M319.518,50.299h-1.077v-2.908c0-0.5-0.08-0.863-0.242-1.086c-0.162-0.224-0.42-0.336-0.775-0.336
					c-0.305,0-0.567,0.143-0.789,0.424c-0.219,0.28-0.33,0.625-0.33,1.03v2.876h-1.071v-2.98c0-0.898-0.345-1.35-1.033-1.35
					c-0.318,0-0.582,0.137-0.791,0.408s-0.314,0.624-0.314,1.057v2.865h-1.075v-5.072h1.075v0.799h0.023
					c0.363-0.611,0.896-0.918,1.596-0.918c0.713,0,1.195,0.338,1.445,1.014c0.379-0.676,0.945-1.014,1.697-1.014
					c1.108,0,1.664,0.687,1.664,2.06v3.132H319.518z"/>
				<path fill="#FFFFFF" d="M325.885,50.299h-1.397l-2.019-2.463h-0.022v2.463h-1.078v-7.508h1.078v4.766h0.022l1.912-2.33h1.34
					l-2.166,2.426L325.885,50.299z"/>
				<path fill="#FFFFFF" d="M327.174,45.564c0.519-0.306,1.115-0.457,1.795-0.457c1.281,0,1.922,0.66,1.922,1.984v3.206h-1.047
					v-0.771h-0.022c-0.347,0.593-0.859,0.89-1.541,0.89c-0.498,0-0.892-0.135-1.176-0.403c-0.285-0.27-0.429-0.632-0.429-1.087
					c0-0.954,0.566-1.511,1.701-1.67l1.471-0.2c0-0.757-0.33-1.134-0.993-1.134c-0.609,0-1.168,0.196-1.681,0.591V45.564
					L327.174,45.564z M328.73,47.941c-0.367,0.049-0.628,0.143-0.779,0.279c-0.15,0.137-0.228,0.34-0.228,0.604
					c0,0.224,0.082,0.405,0.244,0.549c0.162,0.142,0.369,0.213,0.623,0.213c0.361,0,0.66-0.128,0.898-0.383
					c0.237-0.256,0.356-0.577,0.356-0.966V47.79L328.73,47.941z"/>
				<path fill="#FFFFFF" d="M337.191,50.299h-1.072v-2.865c0-0.977-0.355-1.465-1.064-1.465c-0.356,0-0.653,0.137-0.887,0.406
					c-0.234,0.271-0.352,0.613-0.352,1.029v2.895h-1.078v-5.072h1.078v0.83h0.022c0.375-0.633,0.926-0.949,1.65-0.949
					c1.135,0,1.701,0.697,1.701,2.092L337.191,50.299L337.191,50.299z"/>
				<path fill="#FFFFFF" d="M343.6,49.831c0,1.901-0.95,2.853-2.852,2.853c-0.646,0-1.193-0.109-1.643-0.33v-0.989
					c0.557,0.312,1.096,0.468,1.618,0.468c1.199,0,1.797-0.613,1.797-1.84v-0.504h-0.018c-0.373,0.619-0.934,0.931-1.684,0.931
					c-0.636,0-1.146-0.228-1.529-0.681c-0.383-0.454-0.576-1.062-0.576-1.818c0-0.855,0.211-1.539,0.631-2.048
					c0.42-0.511,0.98-0.765,1.683-0.765c0.664,0,1.155,0.262,1.477,0.785h0.019v-0.666h1.077V49.831L343.6,49.831z M342.531,47.327
					c0-0.376-0.123-0.696-0.371-0.961s-0.553-0.397-0.918-0.397c-0.443,0-0.793,0.168-1.047,0.504
					c-0.256,0.334-0.384,0.799-0.384,1.392c0,0.514,0.121,0.924,0.365,1.231c0.246,0.307,0.568,0.461,0.969,0.461
					c0.406,0,0.738-0.152,0.998-0.455c0.259-0.303,0.388-0.685,0.388-1.146V47.327L342.531,47.327z"/>
				<path fill="#FFFFFF" d="M353.848,47.354c0,2.043-0.934,3.063-2.801,3.063c-1.793,0-2.688-0.987-2.688-2.963v-4.261h1.1v4.232
					c0,1.35,0.557,2.022,1.67,2.022c1.078,0,1.619-0.651,1.619-1.954v-4.303h1.1V47.354L353.848,47.354z"/>
				<path fill="#FFFFFF" d="M360.289,50.299h-1.074v-2.865c0-0.977-0.354-1.465-1.063-1.465c-0.357,0-0.652,0.137-0.888,0.406
					c-0.234,0.27-0.352,0.613-0.352,1.029v2.895h-1.076v-5.072h1.076v0.83h0.022c0.378-0.633,0.927-0.949,1.652-0.949
					c1.133,0,1.701,0.697,1.701,2.092L360.289,50.299L360.289,50.299z"/>
				<path fill="#FFFFFF" d="M362.023,43.482c0-0.181,0.063-0.328,0.186-0.446c0.123-0.117,0.281-0.177,0.471-0.177
					c0.187,0,0.345,0.06,0.474,0.177c0.127,0.118,0.19,0.267,0.19,0.446c0,0.181-0.063,0.33-0.19,0.447
					c-0.129,0.117-0.287,0.178-0.474,0.178c-0.188,0-0.344-0.061-0.469-0.18S362.023,43.661,362.023,43.482z M362.129,50.299v-5.072
					h1.078v5.072H362.129z"/>
				<path fill="#FFFFFF" d="M369.436,45.227l-1.977,5.072h-1.143l-1.882-5.072h1.171l1.143,3.49
					c0.098,0.301,0.156,0.559,0.178,0.774h0.023c0.026-0.25,0.082-0.501,0.164-0.752l1.188-3.513H369.436L369.436,45.227z"/>
				<path fill="#FFFFFF" d="M374.84,48.052h-3.485c0.045,1.024,0.565,1.536,1.563,1.536c0.563,0,1.074-0.168,1.535-0.505v0.892
					c-0.451,0.295-1.047,0.443-1.783,0.443c-0.752,0-1.342-0.229-1.766-0.688c-0.427-0.459-0.64-1.103-0.64-1.928
					c0-0.781,0.229-1.428,0.687-1.936s1.031-0.762,1.719-0.762c0.685,0,1.217,0.217,1.598,0.648
					c0.382,0.432,0.572,1.028,0.572,1.786V48.052z M373.793,47.268c-0.002-0.435-0.102-0.768-0.297-1
					c-0.197-0.231-0.476-0.349-0.836-0.349c-0.326,0-0.611,0.123-0.854,0.369c-0.239,0.246-0.391,0.571-0.448,0.979H373.793
					L373.793,47.268z"/>
				<path fill="#FFFFFF" d="M379.266,46.254c-0.157-0.104-0.368-0.156-0.633-0.156c-0.348,0-0.631,0.153-0.846,0.459
					c-0.215,0.307-0.324,0.711-0.324,1.215v2.527h-1.076v-5.072h1.076v1.01h0.023c0.25-0.73,0.692-1.098,1.33-1.098
					c0.188,0,0.34,0.021,0.448,0.064L379.266,46.254L379.266,46.254z"/>
				<path fill="#FFFFFF" d="M380.344,49.12c0.476,0.321,0.967,0.481,1.479,0.481c0.672,0,1.008-0.209,1.008-0.625
					c0-0.174-0.07-0.315-0.211-0.429c-0.141-0.11-0.457-0.259-0.949-0.442c-0.516-0.197-0.865-0.41-1.045-0.635
					c-0.182-0.226-0.271-0.507-0.271-0.847c0-0.468,0.195-0.838,0.589-1.108c0.391-0.272,0.875-0.408,1.452-0.408
					c0.443,0,0.857,0.072,1.242,0.22v0.954c-0.385-0.238-0.813-0.357-1.293-0.357c-0.271,0-0.492,0.057-0.66,0.169
					c-0.168,0.113-0.252,0.263-0.252,0.445c0,0.181,0.063,0.321,0.187,0.427c0.123,0.104,0.408,0.241,0.854,0.412
					c0.552,0.202,0.927,0.417,1.127,0.645c0.199,0.229,0.3,0.513,0.3,0.852c0,0.48-0.195,0.857-0.586,1.133
					c-0.394,0.275-0.906,0.413-1.541,0.413c-0.546,0-1.021-0.095-1.429-0.284L380.344,49.12L380.344,49.12z"/>
				<path fill="#FFFFFF" d="M385.326,43.482c0-0.181,0.063-0.328,0.186-0.446c0.125-0.117,0.281-0.177,0.472-0.177
					c0.188,0,0.344,0.06,0.473,0.177c0.129,0.118,0.193,0.267,0.193,0.446c0,0.181-0.064,0.33-0.193,0.447s-0.285,0.178-0.473,0.178
					c-0.187,0-0.343-0.061-0.468-0.18C385.389,43.809,385.326,43.661,385.326,43.482z M385.432,50.299v-5.072h1.078v5.072H385.432z"
					/>
				<path fill="#FFFFFF" d="M391.057,50.244c-0.198,0.111-0.483,0.169-0.856,0.169c-0.963,0-1.445-0.522-1.445-1.567v-2.767h-0.856
					v-0.853h0.856v-1.188l1.074-0.325v1.514h1.229v0.854h-1.229v2.578c0,0.314,0.055,0.542,0.166,0.683
					c0.111,0.142,0.291,0.211,0.539,0.211c0.192,0,0.367-0.055,0.522-0.165V50.244z"/>
				<path fill="#FFFFFF" d="M396.809,45.227l-2.233,5.742c-0.443,1.145-1.086,1.715-1.926,1.715c-0.275,0-0.498-0.029-0.671-0.086
					v-0.908c0.179,0.078,0.361,0.119,0.552,0.119c0.401,0,0.701-0.226,0.895-0.675l0.354-0.844l-2.011-5.063h1.197l1.221,3.619
					c0.027,0.076,0.066,0.237,0.119,0.485h0.021c0.016-0.099,0.057-0.257,0.125-0.478l1.27-3.627H396.809L396.809,45.227z"/>
			</g>
			<g>
				<path fill="#FFFFFF" d="M68.862,28.963c-0.935,2.613-2.292,5.348-4.071,8.202l-2.036-1.419c1.483-2.322,2.773-4.947,3.87-7.875
					L68.862,28.963z M68.795,24.595l-1.618,1.711c-1.717-1.464-3.164-2.54-4.341-3.228l1.685-1.771
					C65.986,22.221,67.411,23.317,68.795,24.595z M68.97,18.504l-1.712,1.735c-1.33-1.383-2.674-2.56-4.031-3.531l1.793-1.638
					C66.539,16.194,67.855,17.339,68.97,18.504z M87.184,35.225l-1.241,1.894c-4.143-0.915-6.745-2.763-7.806-5.545
					c-0.872,2.5-3.672,4.315-8.399,5.448l-1.213-2.063c2.921-0.478,5.076-1.362,6.464-2.657c1.389-1.294,2.033-3.632,1.935-7.013
					h2.427c-0.063,2.37,0.112,4.016,0.526,4.938c1.402-0.874,2.687-1.966,3.855-3.276l1.968,1.371
					c-1.276,1.399-2.84,2.666-4.691,3.798C82.133,33.412,84.191,34.447,87.184,35.225z M86.914,24.619l-1.523,1.687
					c-1.833-1.391-4.292-2.831-7.375-4.319c-1.609,2.014-3.981,3.454-7.118,4.319l-1.402-1.917c1.95-0.413,3.6-1.062,4.948-1.947
					c1.348-0.885,2.132-2.118,2.353-3.695c0.22-1.577,0.308-2.742,0.263-3.495h2.48c-0.027,1.48-0.211,2.937-0.553,4.368
					c1.771-0.946,3.353-2.164,4.746-3.652l1.968,1.311c-0.979,1.157-2.57,2.411-4.772,3.762
					C83.31,22.253,85.305,23.446,86.914,24.619z M75.037,30.431l-1.982,1.311c-0.845-1.205-1.879-2.423-3.101-3.652l1.996-1.262
					C73.028,27.822,74.057,29.023,75.037,30.431z M75.239,19.923l-2.022,1.213c-0.602-1.06-1.568-2.354-2.898-3.883l2.13-1.189
					C73.68,17.457,74.61,18.743,75.239,19.923z"/>
				<path fill="#FFFFFF" d="M96.985,28.769c-0.881,2.395-2.296,5.108-4.247,8.141l-2.211-1.141c1.95-3.042,3.37-5.784,4.26-8.227
					L96.985,28.769z M96.985,24.413l-1.591,1.82c-1.258-1.132-2.872-2.176-4.84-3.13l1.469-1.844
					C93.929,22.148,95.583,23.2,96.985,24.413z M97.484,18.674l-1.793,1.747c-1.222-1.213-2.804-2.415-4.745-3.604l1.712-1.82
					C94.446,16.041,96.055,17.266,97.484,18.674z M114.632,36.268H96.877v-2.207h7.537V17.958H97.66v-2.184h16.259v2.184h-6.903
					v16.103h7.617L114.632,36.268L114.632,36.268z"/>
				<path fill="#FFFFFF" d="M142.351,35.32l-1.483,1.797c-5.456-3.131-9.001-7.297-10.637-12.498
					c-1.717,4.999-5.303,9.104-10.758,12.314l-1.469-1.929c5.635-3.309,9.068-7.361,10.3-12.158h-9.72l-0.027-2.232h10.071
					c0.197-1.739,0.31-3.511,0.337-5.314h2.48c-0.027,2.16-0.108,3.931-0.243,5.314H142v2.232h-10.004
					C133.345,28.187,136.796,32.344,142.351,35.32z"/>
				<path fill="#FFFFFF" d="M169.799,33.186h-10.597v1.541c0,0.559-0.142,1-0.425,1.322c-0.283,0.323-0.643,0.544-1.078,0.661
					c-0.437,0.117-1.257,0.176-2.461,0.176c-0.558,0-1.19-0.016-1.9-0.048l-0.796-2.015c0.629,0.017,1.843,0.024,3.641,0.024
					c0.332,0,0.498-0.139,0.498-0.412v-1.25h-10.934v-1.76h10.934v-1.068c1.366-0.25,2.638-0.574,3.815-0.971H150.25v-1.589h14.695
					v1.589c-1.501,0.639-3.415,1.27-5.743,1.893v0.146h10.597V33.186L169.799,33.186z M169.381,29.533h-2.319v-2.827h-18.47v2.803
					h-2.453v-4.55h1.712l-0.499-8.918c1.789-0.073,3.582-0.389,5.379-0.947l1.133,1.723c-1.285,0.364-2.646,0.619-4.085,0.764
					l0.081,1.323h3.6v1.614h-3.505l0.054,1.408h3.451v1.602h-3.344l0.081,1.432h15.207l0.055-1.432h-3.722v-1.602h3.815l0.081-1.408
					h-3.896v-1.614h3.95l0.081-1.323h-4.22v-1.735h6.619l-0.444,9.112h1.658V29.533L169.381,29.533z M160.996,15.822
					c-0.432,0.518-1.029,1.031-1.793,1.541c0.449,0.356,0.863,0.72,1.24,1.092l-1.47,1.165c-0.458-0.493-0.916-0.906-1.375-1.238
					c-0.952,0.51-1.883,0.931-2.791,1.262l-1.159-1.396c0.8-0.25,1.582-0.583,2.346-0.995c-0.251-0.21-0.76-0.55-1.523-1.019
					l1.335-1.213l1.847,1.189c0.603-0.396,1.079-0.784,1.43-1.165L160.996,15.822z M161.13,23.648l-1.47,1.141
					c-0.691-0.688-1.316-1.217-1.874-1.589c-0.961,0.55-1.9,1.015-2.817,1.395l-1.133-1.371c0.665-0.259,1.456-0.639,2.373-1.14
					c-0.467-0.372-1.074-0.744-1.819-1.117l1.334-1.225c0.485,0.259,1.2,0.7,2.144,1.322c0.755-0.574,1.271-1.015,1.551-1.322
					l1.686,0.897c-0.531,0.526-1.102,1.016-1.713,1.468C160.011,22.593,160.591,23.106,161.13,23.648z"/>
				<path fill="#FFFFFF" d="M204.555,22.799l-1.16,1.99c-0.709-0.129-1.51-0.335-2.398-0.619v9.344h-11.648l1.187,1.236
					c-2.598,1.075-5.662,1.872-9.194,2.391l-1.187-1.99c2.624-0.282,5.137-0.828,7.536-1.637h-4.058v-9.393h5.217l-1.052-1.371
					c3.227-0.736,5.631-2.026,7.213-3.871l2.508,0.498c-0.27,0.445-0.472,0.724-0.606,0.837
					C198.87,21.355,201.417,22.217,204.555,22.799z M188.404,22.107h-8.035v-2.038h8.035V22.107z M188.161,18.152h-7.428v-1.99
					h7.428V18.152z M198.515,26.755v-0.874h-12.31v0.874H198.515z M198.515,29.291v-0.922h-12.31v0.922H198.515z M198.515,31.875
					v-0.971h-12.31v0.971H198.515z M204.068,18.431c-0.854,1.1-1.657,2.026-2.412,2.778l-2.09-1.116
					c0.234-0.243,0.729-0.796,1.483-1.662h-8.695c-0.846,0.874-1.654,1.602-2.427,2.184l-1.874-1.444
					c1.429-0.93,2.8-2.338,4.111-4.223l2.266,0.691c-0.081,0.284-0.257,0.575-0.526,0.874h10.165V18.431z M200.727,24.122
					c-1.853-0.542-3.649-1.338-5.394-2.39c-1.151,0.938-2.647,1.735-4.49,2.39H200.727z M204.393,35.32l-1.32,1.918
					c-2.409-0.696-5.105-1.201-8.089-1.518l1.267-1.869C199.162,34.079,201.876,34.568,204.393,35.32z"/>
				<path fill="#FFFFFF" d="M216.85,19.341h-8.951v-2.002h3.531c-0.144-0.38-0.437-0.894-0.875-1.541l2.426-0.825
					c0.485,0.817,0.891,1.605,1.213,2.366h2.656V19.341z M216.243,23.03h-7.685v-1.99h7.685V23.03z M216.243,26.658h-7.685v-1.966
					h7.685V26.658z M216.27,36.34h-2.427v-1.115h-2.897v1.711h-2.387V28.32h7.711V36.34L216.27,36.34z M213.843,33.186v-2.803
					h-2.897v2.803H213.843z M232.259,31.123c-0.126,1.286-0.375,2.465-0.747,3.538c-0.373,1.071-0.732,1.739-1.08,2.008
					c-0.346,0.267-0.742,0.399-1.191,0.399c-0.549,0-1.022-0.188-1.424-0.563c-0.398-0.376-0.78-1.485-1.146-3.33
					c-0.364-1.845-0.546-3.503-0.546-4.975V17.836h-3.734v6.698h2.967v2.148h-2.967v10.277h-2.373V26.682h-2.562v-2.148h2.562
					v-6.698h-2.238V15.75h10.719v12.947c0,1.925,0.297,3.786,0.891,5.581c0.342-1.133,0.563-2.587,0.66-4.367L232.259,31.123z"/>
				<path fill="#FFFFFF" d="M245.094,33.563c-2.166,1.383-4.916,2.601-8.25,3.651l-1.416-1.819c3.064-0.914,5.576-1.967,7.535-3.154
					L245.094,33.563z M259.586,31.851h-24.023v-2.038h1.859l-0.283-13.02c1.816-0.372,3.582-0.914,5.299-1.626l1.24,1.844
					c-1.168,0.485-2.529,0.935-4.084,1.347l0.027,2.257h3.154v2.014h-3.088l0.026,2.512h3.088v1.978h-3.061l0.053,2.694h15.369
					l0.121-2.694h-2.871v-2.002h2.897l0.082-2.512h-2.979v-1.99h3.032l0.056-2.463h-3.142v-2.063h5.648l-0.352,13.723h1.928v2.039
					H259.586z M246.887,23.491c-0.422,2.087-1.104,3.919-2.049,5.497l-1.9-1.116c0.89-1.658,1.486-3.248,1.793-4.769L246.887,23.491
					z M251.336,18.601h-4.449l-0.27,1.759h4.719c0,1.383-0.049,2.912-0.148,4.586c-0.099,1.674-0.283,2.696-0.553,3.064
					c-0.27,0.368-0.609,0.633-1.018,0.794c-0.41,0.162-1.217,0.214-2.42,0.158l-0.756-2.038c0.358,0.057,0.738,0.084,1.133,0.084
					c0.449,0,0.734-0.038,0.855-0.115c0.122-0.077,0.202-0.164,0.243-0.261c0.039-0.097,0.103-0.633,0.188-1.607
					c0.086-0.975,0.129-1.891,0.129-2.749h-5.002l0.998-7.001h2.373l-0.189,1.408h4.166V18.601z M259.721,35.346l-1.537,1.819
					c-2.641-1.343-5.283-2.396-7.926-3.154l1.482-1.845C254.58,33.048,257.24,34.107,259.721,35.346z"/>
				<path fill="#FFFFFF" d="M286.227,36.995h-2.428v-1.298h-17.283v1.236h-2.373V15.64h22.084V36.995z M283.799,33.756V17.558
					h-17.283v16.198H283.799z M282.924,24.364h-15.518v-1.517h6.619V22.01h-5.515v-3.652h13.308v3.652h-5.476v0.837h6.58
					L282.924,24.364L282.924,24.364z M282.141,32.943h-13.938V25.19h13.938V32.943z M279.822,31.475v-4.792h-9.275v4.792H279.822z
					 M279.418,20.688v-0.995h-8.533v0.995H279.418z M278.367,30.698h-6.377v-3.252h6.377V30.698z M276.291,29.509v-0.874h-2.238
					v0.874H276.291z"/>
				<path fill="#FFFFFF" d="M314.754,28.465h-24.053v-1.614h10.772v-1.116h-8.643v-1.541h8.643v-1.067h-8.225v-1.468h8.225v-1.165
					h-10.825v-1.565h10.825v-1.043h-8.225V16.32h8.225v-1.104h2.427v1.104h8.532v2.609h2.293v1.565h-2.293v2.633H303.9v1.067h8.776
					v1.541H303.9v1.116h10.854V28.465z M312.246,36.959h-2.494V36.34h-13.994v0.619h-2.508v-7.45h18.996V36.959L312.246,36.959z
					 M309.752,32.142v-1.116h-13.994v1.116H309.752z M309.752,34.775v-1.142h-13.994v1.142H309.752z M310.008,18.929v-1.043H303.9
					v1.043H310.008z M310.008,21.659v-1.165H303.9v1.165H310.008z"/>
				<path fill="#FFFFFF" d="M329.139,19.074l-1.295,1.759c-0.422-0.477-0.895-0.922-1.416-1.334v1.614h-5.108v-0.971
					c-0.685,0.55-1.537,1.112-2.562,1.687l-0.688-2.208c2.03-1.092,3.858-2.673,5.485-4.744l2.238,0.716
					c-0.127,0.235-0.262,0.417-0.404,0.546C327.053,17.262,328.303,18.241,329.139,19.074z M328.949,35.369l-2.185,1.02
					c-0.233-0.695-0.444-1.217-0.635-1.564c-2.443,0.955-4.57,1.634-6.377,2.039l-0.66-1.881c0.342-0.234,0.515-0.526,0.515-0.875
					V22.205h8.426v8.105h-6.094v3.773c0.942-0.259,2-0.64,3.168-1.14c-0.146-0.372-0.41-0.821-0.796-1.347l2.115-0.898
					C327.453,32.154,328.293,33.711,328.949,35.369z M325.768,25.335v-1.262h-3.827v1.262H325.768z M325.768,28.441v-1.517h-3.827
					v1.517H325.768z M326.186,19.292c-0.618-0.526-1.34-1.063-2.155-1.614c-0.459,0.51-1.021,1.048-1.687,1.614H326.186z
					 M342.201,22.156h-1.549v5.521h-7.593v1.688h8.535v6.504h-8.535v1.067h-2.426V22.156h-1.188v-4.405h4.936
					c-0.172-0.485-0.539-1.213-1.104-2.184l2.493-0.619c0.468,0.809,0.89,1.743,1.269,2.803h5.162V22.156L342.201,22.156z
					 M339.803,21.562v-1.893h-7.899v1.893H339.803z M338.225,25.735V23.49h-5.164v2.245H338.225z M339.223,33.938v-2.583h-6.162
					v2.583H339.223z"/>
				<path fill="#FFFFFF" d="M369.975,33.186h-10.598v1.541c0,0.559-0.141,1-0.424,1.322c-0.283,0.323-0.644,0.544-1.078,0.661
					c-0.438,0.117-1.258,0.176-2.461,0.176c-0.559,0-1.191-0.016-1.9-0.048l-0.797-2.015c0.629,0.017,1.844,0.024,3.642,0.024
					c0.332,0,0.498-0.139,0.498-0.412v-1.25h-10.935v-1.76h10.935v-1.068c1.366-0.25,2.639-0.574,3.815-0.971h-10.246v-1.589h14.695
					v1.589c-1.502,0.639-3.416,1.27-5.744,1.893v0.146h10.598V33.186z M369.557,29.533h-2.319v-2.827h-18.47v2.803h-2.452v-4.55
					h1.711l-0.498-8.918c1.789-0.073,3.582-0.389,5.379-0.947l1.133,1.723c-1.285,0.364-2.646,0.619-4.086,0.764l0.082,1.323h3.6
					v1.614h-3.506l0.055,1.408h3.451v1.602h-3.344l0.08,1.432h15.207l0.055-1.432h-3.721v-1.602h3.813l0.082-1.408h-3.896v-1.614
					h3.949l0.082-1.323h-4.222v-1.735h6.619l-0.442,9.112h1.657V29.533L369.557,29.533z M361.17,15.822
					c-0.432,0.518-1.029,1.031-1.793,1.541c0.449,0.356,0.863,0.72,1.24,1.092l-1.469,1.165c-0.459-0.493-0.916-0.906-1.375-1.238
					c-0.953,0.51-1.884,0.931-2.791,1.262l-1.16-1.396c0.801-0.25,1.582-0.583,2.346-0.995c-0.25-0.21-0.76-0.55-1.522-1.019
					l1.336-1.213l1.846,1.189c0.604-0.396,1.08-0.784,1.43-1.165L361.17,15.822z M361.305,23.648l-1.469,1.141
					c-0.691-0.688-1.316-1.217-1.875-1.589c-0.961,0.55-1.9,1.015-2.816,1.395l-1.133-1.371c0.664-0.259,1.455-0.639,2.373-1.14
					c-0.467-0.372-1.074-0.744-1.819-1.117l1.334-1.225c0.485,0.259,1.2,0.7,2.145,1.322c0.754-0.574,1.271-1.015,1.551-1.322
					l1.687,0.897c-0.531,0.526-1.103,1.016-1.713,1.468C360.186,22.593,360.766,23.106,361.305,23.648z"/>
				<path fill="#FFFFFF" d="M382.539,31.948c-2.312,1.634-4.84,2.924-7.59,3.87l-1.472-1.782c2.671-0.874,5.074-2.043,7.214-3.507
					L382.539,31.948z M397.273,29.533l-2.063,1.323c-0.637-0.817-1.145-1.424-1.523-1.82c-2.588,0.292-4.854,0.498-6.795,0.619
					v5.072c0.037,0.672-0.186,1.203-0.666,1.597c-0.479,0.392-1.938,0.588-4.375,0.588l-0.971-2.208
					c0.998,0.064,1.937,0.097,2.816,0.097c0.496,0,0.742-0.214,0.742-0.643v-4.295c-3.775,0.17-6.578,0.267-8.412,0.291l-0.58-1.905
					c2.328-0.583,5.043-1.609,8.143-3.082c-3.227,0.146-5.518,0.219-6.875,0.219l-0.391-1.614c3.793-1.068,7.172-2.791,10.139-5.169
					l2.264,1.165c-1.813,1.456-4.053,2.69-6.713,3.701l2.185-0.097l3.33-0.231c0.151-0.016,0.768-0.368,1.848-1.055l1.914-1.274
					l2.156,1.347c-4.322,2.766-8.392,4.744-12.201,5.933c3.219-0.121,6.777-0.4,10.678-0.837c-0.467-0.444-1.012-0.918-1.631-1.419
					l2.184-1.116C394.523,26.439,396.123,28.045,397.273,29.533z M388.809,16.235c-2.77,2.022-6.651,3.64-11.647,4.854l-1.416-1.893
					c4.438-0.857,8.102-2.24,10.988-4.149L388.809,16.235z M397.867,34.302l-1.658,1.675c-1.859-1.416-4.283-2.783-7.266-4.102
					l1.711-1.541C393.604,31.653,396.008,32.975,397.867,34.302z"/>
			</g>
		</g>
	</g>
	<rect x="0.042" fill="none" width="400" height="65"/>
</g>
</svg>
