<?xml version="1.0" encoding="utf-8"?>
<!-- Generator: Adobe Illustrator 16.0.0, SVG Export Plug-In . SVG Version: 6.00 Build 0)  -->
<!DOCTYPE svg PUBLIC "-//W3C//DTD SVG 1.1//EN" "http://www.w3.org/Graphics/SVG/1.1/DTD/svg11.dtd">
<svg version="1.1" id="圖層_1" xmlns="http://www.w3.org/2000/svg" xmlns:xlink="http://www.w3.org/1999/xlink" x="0px" y="0px"
	 width="400px" height="65px" viewBox="0 0 400 65" enable-background="new 0 0 400 65" xml:space="preserve">
<g>
	<g>
		<g>
			<rect x="0.85" y="5.639" fill="none" width="53.721" height="53.721"/>
			<g>
				<g>
					<path fill-rule="evenodd" clip-rule="evenodd" fill="#CE0015" stroke="#CE0015" stroke-width="0.5" stroke-miterlimit="10" d="
						M3.301,31.705c0.295-0.004,0.591-0.021,0.886-0.012C4.37,31.7,4.43,31.649,4.442,31.456c0.053-0.823,0.125-1.646,0.2-2.469
						c0.011-0.123-0.005-0.176-0.133-0.203c-0.324-0.068-0.645-0.15-0.989-0.232c0.329-2.109,0.931-4.113,1.817-6.058
						c0.417,0.164,0.809,0.319,1.204,0.474c0.402-0.767,0.802-1.528,1.215-2.316c-0.317-0.213-0.655-0.438-1.019-0.679
						c1.203-1.908,2.665-3.584,4.259-5.184c0.302,0.285,0.585,0.553,0.866,0.817c0.749-0.641,1.483-1.271,2.232-1.913
						c-0.194-0.293-0.392-0.594-0.611-0.928c1.708-1.321,3.582-2.317,5.594-3.129c0.17,0.435,0.328,0.841,0.488,1.247
						c0.821-0.263,1.631-0.523,2.467-0.79c-0.079-0.379-0.161-0.774-0.25-1.206c0.412-0.083,0.808-0.173,1.207-0.245
						c1.367-0.246,2.747-0.366,4.133-0.431c0.067-0.002,0.133-0.019,0.201-0.029c0.378,0,0.757,0,1.137,0c0,0.372,0,0.741,0,1.114
						c1.013,0.083,1.981,0.162,2.972,0.244c0.056-0.251,0.117-0.516,0.171-0.781c0.068-0.335,0.068-0.346,0.415-0.279
						c0.698,0.138,1.398,0.264,2.086,0.44c1.212,0.311,2.381,0.748,3.499,1.314c0.06,0.03,0.117,0.066,0.19,0.107
						c-0.173,0.361-0.343,0.712-0.511,1.066c0.786,0.424,1.562,0.842,2.367,1.276c0.214-0.322,0.44-0.659,0.677-1.015
						c1.94,1.167,3.643,2.594,5.165,4.28c-0.24,0.253-0.473,0.498-0.7,0.738c0.602,0.763,1.199,1.52,1.81,2.294
						c0.303-0.187,0.63-0.386,1.002-0.614c1.295,1.702,2.191,3.597,2.942,5.599c-0.391,0.175-0.753,0.337-1.11,0.497
						c0.266,0.828,0.525,1.638,0.795,2.483c0.375-0.078,0.771-0.159,1.206-0.248c0.09,0.455,0.208,0.902,0.263,1.356
						c0.143,1.217,0.258,2.438,0.386,3.657c0.005,0.058,0.022,0.116,0.034,0.175c0,0.5,0,1,0,1.502
						c-0.341,0.003-0.681,0.002-1.022,0.018c-0.052,0.002-0.141,0.072-0.145,0.12c-0.09,0.916-0.169,1.837-0.254,2.785
						c0.337,0.073,0.704,0.155,1.113,0.244c-0.259,2.145-0.887,4.16-1.867,6.085c-0.436-0.177-0.819-0.332-1.187-0.48
						c-0.406,0.788-0.8,1.554-1.205,2.342c0.318,0.206,0.658,0.432,0.998,0.651c-0.332,0.849-3.229,4.44-4.209,5.217
						c-0.291-0.27-0.584-0.541-0.877-0.812c-0.753,0.604-1.503,1.199-2.273,1.815c0.191,0.319,0.392,0.655,0.59,0.99
						c-0.576,0.684-4.46,2.757-5.594,2.98c-0.164-0.384-0.329-0.77-0.491-1.149c-0.824,0.259-1.63,0.513-2.463,0.772
						c0.076,0.381,0.157,0.776,0.243,1.203c-2.199,0.487-4.408,0.68-6.693,0.639c0-0.188,0-0.365,0-0.543c0-0.174,0-0.347,0-0.522
						c-1.009-0.092-1.993-0.184-2.998-0.277c-0.063,0.363-0.127,0.732-0.198,1.141c-2.135-0.319-4.163-0.927-6.108-1.894
						c0.162-0.388,0.319-0.763,0.476-1.14c-0.771-0.396-1.532-0.791-2.31-1.194c-0.216,0.331-0.437,0.665-0.672,1.024
						c-1.911-1.19-3.594-2.646-5.206-4.229c0.271-0.291,0.532-0.57,0.792-0.85c-0.624-0.734-1.235-1.453-1.863-2.191
						c-0.317,0.188-0.653,0.389-0.984,0.585c-0.967-1.076-2.677-4.36-2.924-5.624c0.355-0.151,0.715-0.304,1.083-0.459
						c-0.25-0.821-0.497-1.634-0.756-2.482c-0.378,0.072-0.775,0.15-1.208,0.231c-0.081-0.429-0.187-0.847-0.233-1.271
						c-0.127-1.167-0.229-2.335-0.342-3.503c-0.006-0.074-0.021-0.15-0.031-0.222C3.301,32.827,3.301,32.267,3.301,31.705z
						 M18.838,10.188c-1.701,0.729-3.291,1.59-4.78,2.665c0.222,0.341,0.427,0.655,0.631,0.968
						c-1.617,1.199-3.059,2.552-4.417,4.018c0.328,0.355,0.633,0.688,0.939,1.019c-1.192,1.651-2.327,3.321-3.195,5.16
						c-0.824-0.328-1.63-0.649-2.457-0.979c-0.723,1.683-1.245,3.396-1.553,5.189c0.397,0.095,0.762,0.183,1.129,0.271
						c-0.288,1.97-0.378,3.93-0.261,5.928c0.499,0,0.958,0,1.438,0c0.207,2.043,0.655,4.006,1.381,5.907
						c-0.821,0.345-1.606,0.677-2.398,1.008c0.596,1.754,1.485,3.318,2.523,4.814c0.355-0.211,0.684-0.407,1.01-0.601
						c1.197,1.597,2.514,3.041,4.014,4.347c0.348-0.336,0.677-0.654,0.999-0.966c1.63,1.252,3.371,2.271,5.18,3.206
						c-0.33,0.787-0.657,1.565-0.99,2.354c1.665,0.792,3.388,1.306,5.205,1.619c0.07-0.4,0.136-0.775,0.195-1.117
						c1.025,0.094,2.025,0.226,3.029,0.264c1.011,0.039,2.025-0.016,3.032-0.027c0-0.525,0-0.981,0-1.46
						c2.036-0.169,4.004-0.619,5.912-1.379c0.351,0.83,0.688,1.629,1.032,2.443c1.716-0.663,3.284-1.536,4.806-2.542
						c-0.219-0.369-0.427-0.719-0.637-1.075c1.646-1.126,3.137-2.398,4.423-3.983c-0.355-0.334-0.697-0.653-1.034-0.972
						c1.411-1.543,2.42-3.311,3.289-5.175c0.825,0.338,1.634,0.667,2.468,1.01c0.772-1.679,1.324-3.39,1.597-5.211
						c-0.406-0.09-0.788-0.173-1.172-0.258c0-0.045-0.003-0.075,0-0.104c0.109-0.88,0.25-1.756,0.321-2.637
						c0.082-1.028,0.065-2.06-0.09-3.085c-0.026-0.176-0.095-0.2-0.252-0.183c-0.389,0.044-0.781,0.071-1.194,0.107
						c-0.1-2.066-0.594-4.028-1.327-5.945c0.798-0.353,1.578-0.696,2.38-1.05c-0.676-1.702-1.46-3.312-2.506-4.809
						c-0.375,0.229-0.721,0.441-1.082,0.663c-0.53-0.883-1.143-1.669-1.819-2.409c-0.673-0.737-1.383-1.436-2.175-2.093
						c-0.343,0.36-0.672,0.705-1.003,1.049c-1.664-1.292-3.415-2.391-5.342-3.241c0.383-0.792,0.758-1.571,1.142-2.363
						c-0.098-0.051-0.17-0.092-0.245-0.126c-1.534-0.708-3.135-1.198-4.803-1.478c-0.144-0.024-0.189,0.023-0.215,0.15
						c-0.063,0.318-0.135,0.634-0.207,0.973c-0.088-0.013-0.161-0.024-0.233-0.033c-0.519-0.067-1.035-0.153-1.555-0.196
						c-1.279-0.105-2.559-0.105-3.839-0.012c-0.311,0.023-0.312,0.017-0.313,0.339c-0.001,0.369,0,0.739,0,1.122
						c-2.085,0.223-4.091,0.617-5.985,1.505C19.5,11.909,19.176,11.07,18.838,10.188z M44.347,49.983
						c1.426-1.478,2.736-3.007,3.836-4.726c-0.362-0.237-0.703-0.459-1.014-0.663c0.445-0.852,0.88-1.685,1.33-2.541
						c-0.37-0.153-0.68-0.279-0.999-0.409c-0.803,1.657-1.719,3.21-2.935,4.638c0.339,0.315,0.676,0.625,1.049,0.97
						c-0.659,0.724-1.288,1.416-1.928,2.118C43.895,49.564,44.109,49.764,44.347,49.983z M9.683,17.836
						c0.662-0.685,1.307-1.352,1.964-2.033c-0.213-0.203-0.423-0.403-0.646-0.615c-1.429,1.46-2.75,2.98-3.87,4.699
						c0.36,0.241,0.702,0.469,1.009,0.675c-0.453,0.851-0.892,1.673-1.338,2.514c0.375,0.149,0.688,0.273,1.003,0.399
						c0.817-1.629,1.813-3.118,2.852-4.584C10.34,18.547,10.032,18.214,9.683,17.836z M48.173,25.016
						c0.62,1.72,1.032,3.449,1.186,5.253c0.459-0.037,0.896-0.072,1.349-0.108c0.249,0.974,0.239,1.964,0.272,2.949
						c0.233,0,0.438-0.007,0.641,0.002c0.183,0.009,0.228-0.069,0.224-0.243c-0.039-1.773-0.182-3.537-0.512-5.283
						c-0.035-0.181-0.082-0.36-0.126-0.55c-0.424,0.089-0.814,0.171-1.181,0.249c-0.284-0.91-0.563-1.8-0.848-2.709
						C48.807,24.738,48.498,24.874,48.173,25.016z M45.103,15.949c-1.401-1.515-2.946-2.811-4.688-3.891
						c-0.247,0.367-0.475,0.704-0.706,1.047c-0.052-0.033-0.082-0.056-0.113-0.074c-0.761-0.421-1.521-0.843-2.285-1.258
						c-0.053-0.028-0.186-0.019-0.204,0.014c-0.156,0.291-0.294,0.591-0.444,0.902c1.691,0.799,3.246,1.769,4.773,2.913
						c0.337-0.356,0.668-0.705,1.027-1.085c0.708,0.656,1.407,1.302,2.116,1.958C44.74,16.312,44.909,16.143,45.103,15.949z
						 M20.063,12.187c0.042-0.004,0.067,0,0.085-0.008c1.587-0.682,3.256-1.036,4.96-1.242c0.25-0.03,0.298-0.127,0.294-0.339
						c-0.009-0.377-0.002-0.754-0.002-1.174c0.95-0.042,1.869-0.083,2.79-0.124c0-0.194-0.011-0.376,0.001-0.557
						c0.016-0.212-0.056-0.296-0.28-0.278c-1.357,0.115-2.717,0.207-4.073,0.337c-0.569,0.055-1.13,0.186-1.722,0.287
						c0.089,0.438,0.171,0.84,0.247,1.205c-0.916,0.289-1.8,0.568-2.702,0.853C19.811,11.534,19.937,11.862,20.063,12.187z
						 M13.822,49.473c-0.173,0.193-0.342,0.399-0.526,0.589c-0.414,0.423-0.428,0.434-0.879,0.029
						c-0.558-0.498-1.096-1.02-1.66-1.547c-0.185,0.193-0.38,0.398-0.59,0.621c1.468,1.427,2.999,2.736,4.72,3.846
						c0.237-0.357,0.464-0.701,0.669-1.011c0.848,0.445,1.667,0.876,2.508,1.319c0.152-0.362,0.279-0.665,0.41-0.973
						C16.865,51.488,15.331,50.569,13.822,49.473z M3.571,31.991c0.032,2.047,0.143,4.054,0.563,6.058
						c0.423-0.08,0.826-0.155,1.232-0.233c0.193,0.935,0.458,1.82,0.8,2.698c0.344-0.146,0.657-0.277,0.987-0.416
						c-0.618-1.709-1.011-3.452-1.223-5.259c-0.424,0-0.825-0.005-1.226,0.004c-0.153,0.002-0.217-0.044-0.221-0.202
						c-0.022-0.736-0.054-1.468-0.08-2.202c-0.005-0.148-0.001-0.297-0.001-0.447C4.117,31.991,3.864,31.991,3.571,31.991z
						 M35.172,52.944c-0.066,0.022-0.101,0.035-0.136,0.046c-1.527,0.563-3.099,0.936-4.715,1.128
						c-0.419,0.052-0.419,0.059-0.401,0.479c0.013,0.324,0.031,0.646,0.048,1c-0.99,0.051-1.947,0.1-2.923,0.149
						c0.013,0.273,0.024,0.532,0.039,0.809c2.062-0.026,4.071-0.173,6.057-0.605c-0.088-0.429-0.168-0.826-0.245-1.21
						c0.475-0.132,0.921-0.245,1.361-0.38c0.438-0.135,0.87-0.29,1.324-0.444C35.436,53.573,35.308,53.268,35.172,52.944z"/>
					<path fill-rule="evenodd" clip-rule="evenodd" fill="#CE0015" stroke="#CE0015" stroke-width="0.5" stroke-miterlimit="10" d="
						M27.508,52.856c-11.269-0.024-20.21-9.074-20.38-20.037c-0.176-11.357,8.875-20.456,19.881-20.708
						c11.506-0.264,20.936,9.015,20.859,20.507C47.795,43.801,38.721,52.824,27.508,52.856z M47.3,32.496
						c0.028-10.832-8.754-19.689-19.547-19.824C16.811,12.536,7.71,21.345,7.689,32.439c-0.02,11.166,9.135,19.991,20.077,19.848
						C38.535,52.144,47.308,43.315,47.3,32.496z"/>
				</g>
				<g>
					<path fill-rule="evenodd" clip-rule="evenodd" fill="#CE0015" d="M29.292,35.043c-0.066,0.019-0.132,0.056-0.188,0.047
						c-0.155-0.026-0.485-0.402-0.5-0.556c-0.003-0.035,0.004-0.091,0.024-0.099c0.034-0.018,0.1-0.024,0.122-0.003
						c0.173,0.165,0.339,0.338,0.506,0.511C29.27,34.957,29.271,34.984,29.292,35.043z"/>
					<path fill-rule="evenodd" clip-rule="evenodd" fill="#CE0015" d="M29.23,33.749c-0.358,0.079-0.572-0.05-0.621-0.324
						c-0.008-0.047,0.008-0.13,0.034-0.139c0.048-0.019,0.131-0.015,0.164,0.016C28.946,33.432,29.071,33.578,29.23,33.749z"/>
					<g>
						<g>
							<path fill-rule="evenodd" clip-rule="evenodd" fill="#CE0015" d="M36.202,35.71c0.068,0.005,0.122,0.001,0.172,0.016
								c0.045,0.015,0.114,0.04,0.118,0.071c0.005,0.04-0.031,0.097-0.065,0.127c-0.246,0.226-0.269,0.284-0.233,0.625
								c0.087,0.031,0.171,0.061,0.254,0.09c-0.038,0.092-0.059,0.2-0.121,0.272c-0.279,0.327-0.247,0.698-0.172,1.076
								c0.009,0.052,0.031,0.103,0.04,0.153c0.023,0.146-0.053,0.258-0.182,0.261c-0.071,0-0.178-0.116-0.208-0.203
								c-0.05-0.142-0.052-0.302-0.073-0.442c-0.188,0.117-0.353,0.239-0.535,0.323c-0.082,0.038-0.197,0.003-0.296,0
								c0.014-0.096-0.001-0.211,0.046-0.284c0.235-0.367,0.492-0.716,0.726-1.081c0.059-0.093,0.063-0.22,0.092-0.332
								c-0.018-0.016-0.038-0.032-0.058-0.051c-0.103,0.048-0.203,0.098-0.305,0.146c-0.088,0.04-0.175,0.102-0.268,0.109
								c-0.082,0.01-0.17-0.043-0.256-0.069c0.041-0.08,0.061-0.19,0.126-0.235c0.167-0.117,0.345-0.227,0.534-0.299
								c0.229-0.088,0.292-0.255,0.305-0.469c0.007-0.099-0.021-0.207,0.014-0.292c0.037-0.091,0.128-0.16,0.197-0.237
								c0.057,0.084,0.125,0.164,0.169,0.257c0.018,0.039-0.018,0.101-0.019,0.152C36.199,35.496,36.202,35.602,36.202,35.71z"/>
							<path fill-rule="evenodd" clip-rule="evenodd" fill="#CE0015" d="M37.371,36.982c-0.099,0.019-0.2,0.036-0.281,0.053
								c0-0.146,0.015-0.275-0.004-0.397c-0.027-0.162,0.029-0.262,0.176-0.319c0.012,0.008,0.03,0.013,0.033,0.023
								c0.044,0.108,0.084,0.214,0.126,0.319c0.098-0.065,0.206-0.117,0.291-0.196c0.083-0.074,0.135-0.184,0.219-0.257
								c0.045-0.04,0.127-0.037,0.192-0.052c-0.021,0.052-0.034,0.11-0.066,0.154c-0.088,0.107-0.186,0.208-0.292,0.325
								c0.132,0.039,0.235,0.071,0.358,0.108c-0.194,0.078-0.346,0.14-0.498,0.2c0.005,0.026,0.012,0.051,0.017,0.077
								c0.105,0.023,0.209,0.047,0.335,0.074c-0.077,0.112-0.131,0.189-0.214,0.313c0.152,0.017,0.269,0.031,0.387,0.046
								c0.012,0.015,0.023,0.03,0.036,0.048c-0.065,0.047-0.128,0.136-0.195,0.137c-0.204,0.006-0.261,0.122-0.306,0.294
								c-0.073,0.273-0.154,0.314-0.381,0.224c0.016-0.104,0.033-0.211,0.047-0.301c-0.092-0.028-0.168-0.052-0.244-0.074
								c0.035-0.077,0.07-0.153,0.104-0.229c0.079-0.177,0.156-0.354,0.233-0.529C37.418,37.009,37.395,36.995,37.371,36.982z"/>
							<path fill-rule="evenodd" clip-rule="evenodd" fill="#CE0015" d="M38.604,35.898c-0.656,0.191-1.273,0.368-1.875,0.543
								c0.022-0.092,0.022-0.092,0.609-0.362c-0.045-0.028-0.083-0.045-0.111-0.072c-0.026-0.023-0.041-0.06-0.07-0.104
								c-0.039,0.043-0.061,0.084-0.098,0.102c-0.062,0.029-0.129,0.047-0.196,0.055c-0.015,0.001-0.059-0.074-0.049-0.103
								c0.021-0.064,0.065-0.175,0.1-0.174c0.28,0.003,0.238-0.188,0.236-0.36c0-0.029-0.011-0.068,0.002-0.09
								c0.036-0.054,0.081-0.102,0.123-0.152c0.047,0.051,0.134,0.101,0.136,0.15c0.002,0.213-0.023,0.425-0.04,0.66
								c0.201-0.221,0.322-0.457,0.331-0.753c0.004-0.113,0.055-0.23,0.111-0.329c0.019-0.037,0.12-0.047,0.175-0.034
								c0.024,0.005,0.048,0.103,0.039,0.153c-0.035,0.155-0.084,0.309-0.078,0.486c0.085-0.052,0.165-0.129,0.256-0.146
								c0.08-0.015,0.171,0.041,0.257,0.063c-0.046,0.066-0.077,0.162-0.141,0.192c-0.155,0.074-0.326,0.117-0.488,0.178
								c-0.053,0.021-0.098,0.062-0.197,0.124C37.999,35.983,38.295,35.612,38.604,35.898z"/>
							<path fill-rule="evenodd" clip-rule="evenodd" fill="#CE0015" d="M38.056,38.207c-0.093-0.063-0.16-0.108-0.227-0.155
								c0-0.019,0-0.039,0-0.06c0.067-0.011,0.142-0.049,0.2-0.03c0.114,0.035,0.227,0.087,0.325,0.155
								c0.061,0.039,0.134,0.126,0.128,0.185c-0.008,0.063-0.094,0.146-0.161,0.164c-0.179,0.046-0.366,0.058-0.549,0.086
								c-0.014-0.024-0.028-0.049-0.042-0.072C37.833,38.394,37.937,38.307,38.056,38.207z"/>
						</g>
						<g>
							<path fill-rule="evenodd" clip-rule="evenodd" fill="#CE0015" d="M19.042,37.806c0.067-0.086,0.103-0.114,0.117-0.15
								c0.021-0.057,0.026-0.117,0.039-0.176c-0.072,0.004-0.151-0.008-0.214,0.019c-0.075,0.029-0.148,0.141-0.204,0.128
								c-0.152-0.032-0.296-0.105-0.439-0.172c-0.018-0.008-0.012-0.117-0.002-0.12c0.059-0.014,0.134-0.035,0.184-0.012
								c0.081,0.04,0.16,0.172,0.23,0.034c0.025-0.049-0.079-0.184-0.147-0.258c-0.057-0.058-0.149-0.081-0.226-0.122
								c0.008-0.027,0.016-0.056,0.022-0.086c0.187,0.036,0.373,0.068,0.595,0.108c-0.003,0.008,0.02-0.017,0.027-0.046
								c0.034-0.123,0.062-0.252,0.092-0.377c-0.119,0.02-0.247,0.016-0.356,0.062c-0.151,0.062-0.213,0.005-0.248-0.128
								c-0.076-0.277,0.037-0.568,0.272-0.736c0.06-0.044,0.102-0.116,0.127-0.198c-0.472,0.26-0.787,0.64-0.963,1.145
								c-0.089,0.259-0.201,0.51-0.322,0.754c-0.088,0.178-0.728,0.399-0.919,0.323c-0.199-0.077-0.273-0.239-0.261-0.456
								c0.011-0.187,0.033-0.326,0.264-0.378c0.438-0.094,0.562-0.373,0.405-0.839c-0.116,0.054-0.227,0.124-0.348,0.153
								c-0.077,0.015-0.184-0.015-0.246-0.065c-0.033-0.025-0.025-0.161,0.013-0.204c0.042-0.048,0.14-0.041,0.21-0.066
								c0.18-0.064,0.372-0.106,0.528-0.205c0.118-0.074,0.226-0.129,0.315-0.026c0.038,0.045-0.011,0.184-0.049,0.267
								c-0.069,0.149-0.18,0.281-0.234,0.434c-0.024,0.067,0.031,0.239,0.075,0.249c0.207,0.048,0.226,0.21,0.278,0.436
								c0.07-0.13,0.127-0.197,0.143-0.272c0.135-0.679,0.616-1.115,1.084-1.557c0.058-0.056,0.223-0.084,0.269-0.047
								c0.068,0.06,0.123,0.21,0.092,0.285c-0.058,0.146-0.188,0.259-0.273,0.395c-0.067,0.108-0.121,0.229-0.155,0.35
								c-0.007,0.026,0.096,0.099,0.158,0.122c0.12,0.044,0.31,0.032,0.356,0.11c0.052,0.089,0.003,0.264-0.045,0.381
								c-0.09,0.22-0.07,0.303,0.158,0.388c0.064,0.021,0.15,0.018,0.193,0.06c0.067,0.069,0.16,0.18,0.144,0.249
								c-0.019,0.078-0.138,0.159-0.229,0.186C19.41,37.786,19.256,37.782,19.042,37.806z M17.15,37.096
								c-0.012-0.021-0.025-0.046-0.039-0.067c-0.125,0.054-0.269,0.085-0.372,0.169c-0.063,0.052-0.102,0.19-0.08,0.271
								c0.018,0.067,0.139,0.152,0.213,0.152c0.154-0.004,0.313-0.045,0.458-0.1c0.065-0.025,0.104-0.119,0.156-0.184
								c-0.075,0.015-0.149,0.029-0.225,0.04c-0.067,0.011-0.136,0.019-0.203,0.025c0.004-0.069,0.001-0.139,0.017-0.205
								C17.084,37.16,17.124,37.131,17.15,37.096z"/>
							<path fill-rule="evenodd" clip-rule="evenodd" fill="#CE0015" d="M17.368,34.838c-0.009-0.169-0.017-0.32-0.026-0.504
								c0.192,0.077,0.389,0.107,0.371,0.317C17.698,34.813,17.555,34.874,17.368,34.838z"/>
							<path fill-rule="evenodd" clip-rule="evenodd" fill="#CE0015" d="M17.287,35.006c0.113,0.051,0.235,0.09,0.334,0.161
								c0.03,0.021,0.018,0.143-0.013,0.198c-0.064,0.119-0.156,0.139-0.234,0.002c-0.05-0.09-0.093-0.185-0.139-0.275
								C17.252,35.063,17.27,35.034,17.287,35.006z"/>
						</g>
						<g>
							<path fill-rule="evenodd" clip-rule="evenodd" fill="#CE0015" d="M23.513,37.469c0,0.294-0.382,0.539-0.633,0.399
								c-0.044-0.023-0.097-0.116-0.13-0.161c0.039-0.027,0.07-0.009,0.113-0.019c0.15-0.021,0.3-0.077,0.293-0.374
								c-0.014-0.565-0.036-1.132-0.048-1.697c-0.003-0.165-0.071-0.407,0.177-0.418c0.201-0.009,0.114,0.056,0.145,0.368
								C23.414,36.16,23.513,37.159,23.513,37.469z"/>
							<path fill-rule="evenodd" clip-rule="evenodd" fill="#CE0015" d="M21.223,35.874c0.064-0.123,0.265-0.21,0.434-0.279
								c0.06-0.025,0.124-0.021,0.182-0.033c0.069-0.015,0.133-0.028,0.189-0.021c0.034,0.003,0.069,0.018,0.098,0.024
								c0.031,0.009,0.077,0.026,0.104,0.04c0.107,0.063,0.143,0.153,0.2,0.366c0.125,0.459,0.028,0.918,0.019,1.377
								c0,0.063-0.037,0.132-0.074,0.187c-0.076,0.113-0.164,0.134-0.242-0.002c-0.055-0.098-0.107-0.198-0.163-0.304
								c0.256-0.075,0.238-0.318,0.262-0.51c0.031-0.261,0.015-0.528,0.002-0.793c-0.008-0.174-0.107-0.265-0.292-0.216
								c-0.137,0.042-0.271,0.089-0.409,0.129c-0.044,0.013-0.113,0.047-0.164,0.058C21.33,35.905,21.269,35.864,21.223,35.874z"/>
							<path fill-rule="evenodd" clip-rule="evenodd" fill="#CE0015" d="M21.008,36.047c0.065,0.006,0.097-0.035,0.11,0.033
								c0.008,0.049,0.015,0.053,0.015,0.089c0,0.099,0.047,0.146,0.056,0.191c0.018,0.075,0.02,0.086,0.012,0.173
								c-0.002,0.034-0.015,0.093-0.019,0.126c-0.005,0.034,0.005,0.075,0,0.107c-0.006,0.032,0.005,0.131-0.016,0.157
								c-0.041,0.052-0.028,0.115-0.039,0.232c-0.004,0.032-0.023,0.088-0.049,0.108c-0.031,0.021-0.045,0.135-0.083,0.177
								c-0.043,0.051-0.065,0.072-0.128,0.099c-0.023,0.01-0.103,0.009-0.109-0.019c0.017-0.088,0.01-0.147,0.024-0.218
								c0.012-0.063,0.067-0.117,0.077-0.171c0.013-0.072,0.002-0.096,0.01-0.161c0.008-0.066,0.045-0.163,0.058-0.252
								c0.006-0.04,0.053-0.236,0.06-0.278c0.013-0.084,0.002-0.209,0.007-0.29C20.996,36.11,20.973,36.072,21.008,36.047z"/>
							<path fill-rule="evenodd" clip-rule="evenodd" fill="#CE0015" d="M22.939,36.953c-0.267,0.084-0.279-0.587-0.196-0.735
								c0.015-0.027,0.07-0.063,0.081-0.056c0.045,0.03,0.112,0.072,0.114,0.115C22.95,36.488,22.939,36.686,22.939,36.953z"/>
							<path fill-rule="evenodd" clip-rule="evenodd" fill="#CE0015" d="M22.074,36.576c-0.055-0.049-0.094-0.047-0.11-0.079
								c-0.048-0.095,0.057-0.176,0.073-0.329c0.009-0.089,0.036-0.191-0.021-0.254c-0.029-0.032-0.07-0.029-0.146-0.047
								c-0.024,0.086-0.018,0.186-0.055,0.278c-0.024,0.059-0.012,0.079-0.083,0.146c-0.014-0.018-0.054-0.018-0.06-0.03
								c-0.018-0.05,0.026-0.105-0.007-0.111c-0.044-0.008-0.15-0.026-0.197,0.001c-0.016,0.009-0.005,0.017-0.012,0.039
								c-0.01,0.032,0.026,0.124,0.011,0.184c-0.005,0.024-0.054,0.038-0.06,0.06c-0.016,0.082-0.07,0.051-0.086,0.108
								c-0.03,0.113-0.016,0.26-0.022,0.3c-0.018,0.09-0.018,0.295,0.03,0.313c0.066,0.022,0.137,0.03,0.218,0.003
								c0.026-0.009,0.069-0.031,0.094-0.044c0.03-0.015,0.039-0.05,0.062-0.076c0.026-0.029,0.064-0.061,0.095-0.084
								c0.033-0.024,0.062-0.089,0.136-0.101c0.037-0.006,0.064-0.02,0.089-0.045C22.071,36.757,22.105,36.604,22.074,36.576z
								 M21.536,37.013l-0.06-0.018l-0.024-0.067l-0.02-0.027l0.026-0.147h0.071l0.008,0.162L21.536,37.013z M21.814,36.77h-0.107
								l0.012-0.272h0.095V36.77z"/>
						</g>
						<g>
							<path fill-rule="evenodd" clip-rule="evenodd" fill="#CE0015" d="M32.662,37.734c-0.09,0.021-0.18,0.053-0.272,0.066
								c-0.059,0.007-0.143,0.016-0.178-0.018c-0.04-0.036-0.058-0.121-0.047-0.182c0.013-0.08,0.047-0.163,0.096-0.228
								c0.236-0.307,0.3-0.654,0.292-1.032c-0.002-0.063,0.103-0.173,0.171-0.184c0.207-0.034,0.423-0.02,0.632-0.044
								c0.132-0.018,0.264-0.058,0.382-0.114c0.048-0.023,0.085-0.125,0.078-0.185c-0.006-0.044-0.091-0.108-0.144-0.11
								c-0.247-0.016-0.495-0.041-0.716,0.13c-0.212,0.164-0.469,0.215-0.732,0.176c-0.094-0.013-0.222-0.068-0.256-0.143
								c-0.03-0.062,0.053-0.177,0.084-0.269c0.015,0.021,0.029,0.042,0.044,0.065c0.194-0.019,0.389-0.037,0.637-0.061
								c-0.103-0.156-0.171-0.244-0.221-0.344c-0.027-0.055-0.04-0.133-0.019-0.187c0.01-0.028,0.116-0.05,0.16-0.031
								c0.184,0.08,0.436,0.058,0.5,0.33c0.008,0.032,0.109,0.052,0.17,0.061c0.156,0.021,0.33,0,0.467,0.062
								c0.108,0.048,0.208,0.179,0.251,0.296c0.056,0.15-0.015,0.286-0.19,0.325c-0.212,0.046-0.425,0.092-0.639,0.121
								c-0.123,0.018-0.25,0.004-0.417,0.004c0.109,0.181,0.15,0.316-0.062,0.389c-0.02,0.006-0.02,0.173,0.022,0.229
								c0.09,0.121,0.048,0.164-0.053,0.25c-0.136,0.113-0.241,0.267-0.375,0.422c0.346,0.109,0.474,0.04,0.532-0.239
								c0.07-0.339,0.149-0.363,0.447-0.158c0.066,0.044,0.15,0.064,0.23,0.081c0.146,0.03,0.137,0.116,0.053,0.188
								c-0.096,0.082-0.212,0.189-0.324,0.193c-0.296,0.02-0.358,0.235-0.453,0.438c-0.034,0.074-0.062,0.156-0.116,0.217
								c-0.035,0.04-0.109,0.046-0.166,0.065c-0.012-0.065-0.052-0.143-0.03-0.195c0.049-0.114,0.128-0.218,0.194-0.324
								C32.686,37.775,32.674,37.754,32.662,37.734z"/>
							<path fill-rule="evenodd" clip-rule="evenodd" fill="#CE0015" d="M33.307,37.845c0.168,0.052,0.297,0.082,0.419,0.135
								c0.045,0.018,0.102,0.087,0.096,0.124c-0.008,0.056-0.059,0.122-0.109,0.147c-0.215,0.103-0.35,0.021-0.374-0.217
								C33.335,37.992,33.325,37.947,33.307,37.845z"/>
						</g>
					</g>
					<g>
						<g>
							<path fill-rule="evenodd" clip-rule="evenodd" fill="#CE0015" d="M27.975,36.402c-0.195-0.012-0.321,0.016-0.415-0.03
								c-0.093-0.044-0.152-0.157-0.227-0.241c0.081-0.034,0.162-0.091,0.244-0.095c0.438-0.014,0.877-0.014,1.315-0.02
								c0.061-0.002,0.127-0.013,0.18,0.009c0.061,0.023,0.111,0.078,0.166,0.118c-0.056,0.049-0.105,0.128-0.167,0.144
								c-0.147,0.031-0.301,0.031-0.451,0.045c-0.233,0.022-0.255,0.04-0.392,0.287c0.086,0.044,0.168,0.09,0.254,0.13
								c0.177,0.077,0.235,0.199,0.154,0.384c-0.148,0.337-0.078,0.45,0.287,0.511c0.092,0.015,0.172,0.106,0.258,0.162
								c-0.086,0.068-0.168,0.191-0.257,0.195c-0.431,0.022-0.863,0.016-1.293,0.012c-0.122-0.001-0.25-0.054-0.216-0.196
								c0.016-0.063,0.143-0.114,0.229-0.143c0.076-0.022,0.173,0.015,0.246-0.014c0.079-0.031,0.19-0.103,0.196-0.167
								c0.007-0.081-0.075-0.171-0.123-0.255c-0.008-0.017-0.04-0.02-0.06-0.03c-0.241-0.112-0.243-0.147-0.105-0.366
								C27.875,36.722,27.908,36.575,27.975,36.402z"/>
							<path fill-rule="evenodd" clip-rule="evenodd" fill="#CE0015" d="M26.391,38.066c-0.012-0.174-0.037-0.35-0.036-0.522
								c0.003-0.485,0.01-0.971,0.035-1.452c0.004-0.102,0.091-0.198,0.141-0.297c0.047,0.103,0.138,0.206,0.135,0.308
								c-0.013,0.596-0.046,1.194-0.082,1.79c-0.003,0.063-0.057,0.123-0.088,0.185C26.461,38.074,26.426,38.069,26.391,38.066z"/>
							<path fill-rule="evenodd" clip-rule="evenodd" fill="#CE0015" d="M26.744,37.424c0.067-0.111,0.128-0.312,0.206-0.317
								c0.184-0.014,0.177,0.179,0.194,0.318c0.018,0.127,0.042,0.256,0.027,0.382c-0.008,0.072-0.088,0.135-0.136,0.202
								c-0.067-0.06-0.166-0.105-0.193-0.179c-0.044-0.117-0.04-0.251-0.057-0.378C26.772,37.442,26.757,37.432,26.744,37.424z"/>
							<path fill-rule="evenodd" clip-rule="evenodd" fill="#CE0015" d="M26.881,36.928c0-0.379-0.012-0.705,0.007-1.028
								c0.004-0.093,0.106-0.152,0.198-0.045c0.1,0.117,0.095,0.829-0.009,0.942C27.04,36.837,26.984,36.858,26.881,36.928z"/>
							<path fill-rule="evenodd" clip-rule="evenodd" fill="#CE0015" d="M26.229,36.364c-0.016,0.158-0.016,0.274-0.045,0.382
								c-0.013,0.055-0.08,0.096-0.121,0.141c-0.038-0.045-0.102-0.088-0.107-0.134c-0.031-0.256-0.06-0.513-0.062-0.771
								c-0.001-0.075,0.09-0.15,0.138-0.226c0.051,0.067,0.131,0.128,0.15,0.201C26.217,36.104,26.219,36.258,26.229,36.364z"/>
							<path fill-rule="evenodd" clip-rule="evenodd" fill="#CE0015" d="M25.912,37.592c0-0.112-0.01-0.228,0.003-0.338
								c0.007-0.049,0.063-0.09,0.098-0.135c0.041,0.037,0.122,0.126,0.124,0.166c0.013,0.231,0.013,0.405,0.005,0.636
								c-0.001,0.038-0.079,0.074-0.121,0.108c-0.037-0.046-0.097-0.091-0.106-0.145c-0.019-0.095-0.006-0.195-0.006-0.293
								C25.909,37.592,25.911,37.592,25.912,37.592z"/>
						</g>
						<g>
							<path fill-rule="evenodd" clip-rule="evenodd" fill="#CE0015" d="M27.587,46.917c-7.909,0-14.366-6.446-14.386-14.299
								c-0.021-7.914,6.315-14.312,14.085-14.467c8.212-0.163,14.779,6.526,14.691,14.542
								C41.893,40.536,35.468,46.938,27.587,46.917z M15.086,26.71c-0.053,0.098-0.115,0.192-0.159,0.293
								c-0.896,2.065-1.278,4.22-1.125,6.47c0.124,1.854,0.576,3.625,1.444,5.264c2.251,4.247,5.753,6.78,10.525,7.491
								c2.199,0.329,4.355,0.081,6.444-0.671c5.772-2.072,9.457-7.583,9.18-13.704c-0.077-1.698-0.469-3.323-1.151-4.879
								c-0.024-0.053-0.06-0.102-0.105-0.176c-0.19,0.952-0.749,1.544-1.563,1.929c-0.085,0.04-0.177,0.119-0.209,0.202
								c-0.299,0.764-0.871,1.235-1.609,1.541c-0.084,0.035-0.175,0.111-0.215,0.19c-0.475,0.941-1.273,1.417-2.285,1.484
								c-0.929,0.063-1.863,0.017-2.796,0.024c-0.096,0.001-0.261,0.031-0.272,0.076c-0.021,0.094,0.02,0.217,0.068,0.311
								c0.095,0.185,0.213,0.357,0.351,0.583c-0.537,0-1.017,0-1.496,0c0,0.14,0,0.248,0,0.393c0.583,0,1.151,0,1.764,0
								c-0.904,0.861-1.318,1.875-1.289,3.067c0.03,1.202,0.551,2.178,1.461,3.038c-1.087,0-2.103,0-3.125,0
								c-0.025,0.368-0.133,0.665-0.377,0.909c-0.066,0.064-0.132,0.167-0.138,0.255c-0.096,1.308-0.178,2.615-0.272,3.923
								c-0.025,0.346-0.075,0.693-0.136,1.034c-0.037,0.205-0.187,0.285-0.402,0.285c-0.221,0-0.342-0.098-0.398-0.295
								c-0.025-0.088-0.047-0.177-0.054-0.266c-0.048-0.619-0.093-1.239-0.137-1.858c-0.066-0.938-0.129-1.874-0.198-2.812
								c-0.005-0.071-0.023-0.167-0.071-0.204c-0.311-0.245-0.423-0.578-0.457-0.98c-1.024,0-2.041,0-3.116,0
								c0.913-0.854,1.43-1.837,1.457-3.038c0.027-1.192-0.394-2.211-1.3-3.065c0.579,0,1.102-0.006,1.625,0.002
								c0.14,0,0.186-0.05,0.183-0.188c-0.003-0.13-0.015-0.217-0.182-0.213c-0.355,0.01-0.712,0.003-1.068,0.003
								c-0.078-0.001-0.153-0.01-0.262-0.018c0.135-0.225,0.25-0.411,0.359-0.599c0.146-0.247,0.09-0.347-0.19-0.348
								c-0.902-0.002-1.804,0.007-2.707-0.014c-0.288-0.007-0.592-0.054-0.862-0.153c-0.701-0.261-1.291-0.666-1.58-1.403
								c-0.021-0.055-0.106-0.096-0.17-0.122c-0.75-0.296-1.33-0.768-1.625-1.547c-0.029-0.076-0.115-0.149-0.194-0.188
								c-0.861-0.419-1.475-1.024-1.568-2.034c0.12-0.006,0.241-0.017,0.361-0.017c2.442-0.002,4.884-0.002,7.325,0
								c0.149,0.001,0.241-0.033,0.326-0.175c0.203-0.342,0.53-0.452,0.917-0.4c0.334,0.045,0.561,0.228,0.667,0.541
								c0.119,0.356,0.123,0.712-0.166,0.995c-0.131,0.129-0.113,0.25-0.067,0.39c0.258,0.785,0.813,1.347,1.351,1.873
								c0.276-0.175,0.517-0.345,0.774-0.482c0.129-0.067,0.209-0.114,0.23-0.281c0.054-0.428,0.454-0.73,0.888-0.712
								c0.393,0.017,0.682,0.323,0.731,0.763c0.007,0.057,0.038,0.135,0.082,0.163c0.294,0.179,0.594,0.348,0.922,0.538
								c0.503-0.478,1.007-1.018,1.297-1.721c0.037-0.09,0.068-0.189,0.066-0.284c-0.001-0.08-0.036-0.175-0.089-0.234
								c-0.269-0.3-0.291-0.643-0.169-1c0.11-0.318,0.338-0.51,0.685-0.55c0.391-0.047,0.709,0.068,0.916,0.41
								c0.071,0.12,0.143,0.169,0.282,0.168c2.494-0.009,4.989-0.013,7.483-0.02c0.057,0,0.113-0.012,0.166-0.019
								c0.003-0.034,0.008-0.051,0.003-0.063c-0.024-0.056-0.048-0.111-0.076-0.165c-0.753-1.515-1.732-2.868-2.991-3.999
								c-3.543-3.187-7.678-4.357-12.339-3.378c-3.819,0.802-6.749,2.964-8.832,6.262C15.541,25.75,15.331,26.241,15.086,26.71z
								 M19.459,30.6c-0.015,0.021-0.03,0.041-0.044,0.062c0.09,0.106,0.166,0.229,0.272,0.314c0.454,0.37,0.977,0.585,1.562,0.593
								c1,0.016,2.001,0.004,3.001,0.005c0.27,0,0.357,0.085,0.354,0.352c-0.004,0.2-0.026,0.401-0.041,0.612
								c0.168,0,0.343,0,0.512,0c0.011-0.036,0.018-0.05,0.018-0.064c0.057-0.665,0.102-1.33,0.361-1.957
								c0.017-0.042-0.038-0.131-0.082-0.176c-0.176-0.177-0.378-0.33-0.538-0.519c-0.519-0.607-0.913-1.283-1.033-2.088
								c-0.03-0.198-0.066-0.396,0.187-0.518c0.079-0.038,0.13-0.223,0.116-0.332c-0.01-0.079-0.149-0.201-0.227-0.197
								c-0.106,0.005-0.246,0.086-0.304,0.177c-0.071,0.112-0.071,0.267-0.107,0.431c-2.487,0-4.991,0-7.502,0
								c0.145,0.459,0.814,0.966,1.261,0.967c1.531,0.001,3.063-0.001,4.593,0.002c0.084,0,0.209,0.01,0.244,0.063
								c0.114,0.173,0.193,0.368,0.312,0.602c-1.645,0-3.235,0-4.835,0c0.161,0.496,0.917,1.013,1.455,1.016
								c1.25,0.002,2.5,0,3.751,0.001c0.07,0.001,0.174,0.001,0.207,0.044c0.14,0.181,0.256,0.377,0.409,0.61
								C22.015,30.6,20.738,30.6,19.459,30.6z M39.244,27.281c-2.531,0-5.039,0-7.539,0c-0.012-0.124-0.006-0.233-0.035-0.333
								c-0.043-0.155-0.143-0.293-0.315-0.27c-0.098,0.013-0.227,0.104-0.265,0.193c-0.069,0.166,0.032,0.295,0.174,0.4
								c0.065,0.048,0.131,0.144,0.134,0.222c0.02,0.492-0.162,0.935-0.379,1.362c-0.314,0.615-0.74,1.141-1.233,1.514
								c0.13,0.749,0.252,1.452,0.376,2.169c0.139,0,0.314,0,0.479,0c-0.019-0.197-0.046-0.375-0.049-0.552
								c-0.008-0.357,0.059-0.417,0.426-0.417c0.969,0,1.94,0.008,2.911-0.002c0.595-0.007,1.125-0.223,1.584-0.598
								c0.104-0.085,0.177-0.208,0.265-0.315c-0.012-0.019-0.023-0.037-0.036-0.055c-1.283,0-2.566,0-3.898,0
								c0.108-0.174,0.201-0.3,0.27-0.438c0.087-0.169,0.205-0.223,0.397-0.221c1.152,0.01,2.305-0.01,3.457,0.013
								c0.523,0.009,0.944-0.189,1.325-0.502c0.154-0.128,0.264-0.309,0.393-0.466c-0.016-0.024-0.033-0.048-0.048-0.073
								c-1.591,0-3.183,0-4.805,0c0.078-0.161,0.149-0.279,0.194-0.405c0.068-0.193,0.185-0.25,0.392-0.249
								c1.494,0.01,2.987,0.005,4.481,0.004C38.4,28.261,39.05,27.799,39.244,27.281z M28.237,33.906
								c-0.126,0.074-0.263,0.152-0.402,0.23c-0.133,0.071-0.27,0.138-0.403,0.207c-0.128,0.067-0.254,0.139-0.381,0.206
								c-0.018-0.027-0.036-0.053-0.054-0.08c0.548-0.298,0.91-0.758,1.167-1.309c-0.783,0-1.58,0-2.385,0c0,1.676,0,3.33,0,4.995
								c1.24,0,2.464,0,3.701,0c0-1.671,0-3.325,0-4.995c-0.396,0-0.777,0-1.212,0c0.111,0.227,0.17,0.451,0.31,0.603
								c0.181,0.196,0.428,0.331,0.643,0.496c0.062,0.047,0.111,0.112,0.166,0.165c-0.019,0.024-0.035,0.047-0.054,0.07
								C28.911,34.418,28.627,34.063,28.237,33.906z M27.585,44.964c0.012,0.007,0.026,0.011,0.039,0.019
								c0.083-1.52,0.165-3.039,0.254-4.56c0.006-0.096,0.066-0.205,0.134-0.279c0.126-0.144,0.223-0.282,0.16-0.506
								c-0.305,0-0.607-0.002-0.909,0c-0.267,0-0.323,0.088-0.199,0.325c0.039,0.07,0.111,0.124,0.156,0.192
								c0.042,0.063,0.095,0.136,0.101,0.206c0.052,0.832,0.096,1.664,0.142,2.494C27.502,43.559,27.544,44.261,27.585,44.964z
								 M25.793,31.705c1.204,0,2.41,0,3.614,0c0.026-0.314,0.02-0.324-0.272-0.324c-1.021,0-2.041,0-3.063,0
								C25.78,31.381,25.774,31.389,25.793,31.705z M25.735,32.251c-0.031,0.306-0.031,0.308,0.244,0.307
								c1.097-0.005,2.195-0.013,3.292-0.02c0.039,0,0.085,0.013,0.112-0.005c0.047-0.033,0.106-0.079,0.117-0.129
								c0.035-0.178-0.095-0.168-0.212-0.168c-1.128,0-2.256,0-3.385,0C25.853,32.236,25.8,32.246,25.735,32.251z M26.008,30.842
								c1.064,0,2.114,0,3.175,0c-0.027-0.221-0.114-0.324-0.351-0.322c-0.817,0.013-1.636,0.013-2.454,0.001
								C26.154,30.518,26.037,30.59,26.008,30.842z M27.602,39.316c0.674,0,1.348,0.002,2.021-0.006c0.066,0,0.13-0.071,0.196-0.109
								c-0.065-0.03-0.13-0.088-0.195-0.088c-1.347-0.008-2.695-0.008-4.043,0c-0.065,0-0.13,0.056-0.195,0.086
								c0.064,0.039,0.128,0.111,0.194,0.111C26.253,39.318,26.928,39.316,27.602,39.316z M28.55,30.011
								c-0.442-0.462-1.699-0.363-1.895,0C27.275,30.011,27.894,30.011,28.55,30.011z M25.355,38.573
								c0.037,0.11,0.042,0.217,0.089,0.242c0.061,0.032,0.178,0.028,0.229-0.014c0.043-0.034,0.026-0.144,0.036-0.229
								C25.591,38.573,25.502,38.573,25.355,38.573z M26.793,38.579c0.011,0.082-0.002,0.202,0.037,0.222
								c0.07,0.037,0.182,0.039,0.253,0.005c0.04-0.02,0.031-0.14,0.047-0.227C27.007,38.579,26.917,38.579,26.793,38.579z
								 M26.418,38.824c-0.005-0.095-0.008-0.167-0.011-0.238c-0.112,0-0.207,0-0.317,0c0.005,0.087,0.009,0.158,0.013,0.238
								C26.209,38.824,26.296,38.824,26.418,38.824z M28.463,38.818c-0.004-0.089-0.008-0.162-0.011-0.229c-0.112,0-0.207,0-0.294,0
								C28.096,38.877,28.265,38.845,28.463,38.818z M28.87,38.813c0.319,0.038,0.328,0.032,0.29-0.23
								c-0.031-0.004-0.068-0.012-0.104-0.012c-0.058,0-0.116,0.005-0.186,0.008C28.87,38.661,28.87,38.732,28.87,38.813z
								 M29.515,38.809c0.308,0.052,0.34,0.024,0.267-0.226c-0.087,0-0.176,0-0.267,0C29.515,38.668,29.515,38.739,29.515,38.809z
								 M27.471,38.806c0.304,0.059,0.337,0.03,0.267-0.223c-0.087,0-0.175,0-0.267,0C27.471,38.666,27.471,38.739,27.471,38.806z"
								/>
							<path fill-rule="evenodd" clip-rule="evenodd" fill="#CE0015" d="M28.351,35.11c-0.37,0.184-0.649,0.527-1.082,0.523
								c-0.016-0.021-0.031-0.046-0.047-0.068c0.082-0.081,0.152-0.181,0.248-0.241c0.306-0.193,0.475-0.476,0.579-0.813
								c0.024-0.076,0.095-0.14,0.142-0.212c0.055,0.063,0.131,0.113,0.16,0.188c0.164,0.394,0.445,0.677,0.794,0.906
								c0.058,0.039,0.091,0.113,0.173,0.224C28.844,35.617,28.633,35.278,28.351,35.11z"/>
							<path fill-rule="evenodd" clip-rule="evenodd" fill="#CE0015" d="M26.674,34.38c0,0.309,0.006,0.62-0.005,0.929
								c-0.004,0.073-0.074,0.144-0.113,0.215c-0.042-0.071-0.118-0.142-0.12-0.214c-0.011-0.621-0.013-1.24-0.004-1.86
								c0.001-0.071,0.085-0.139,0.131-0.21c0.041,0.071,0.112,0.139,0.116,0.21c0.012,0.312,0.005,0.621,0.005,0.931
								C26.68,34.38,26.678,34.38,26.674,34.38z"/>
							<path fill-rule="evenodd" clip-rule="evenodd" fill="#CE0015" d="M27.09,33.279c0.01,0.168,0.018,0.339,0.026,0.481
								c0.157-0.155,0.336-0.291,0.508-0.405c0.048-0.033,0.121-0.032,0.182-0.048c0.002,0.07,0.026,0.147,0.003,0.208
								c-0.03,0.071-0.088,0.142-0.151,0.194c-0.225,0.179-0.457,0.349-0.697,0.532C26.838,33.854,26.885,33.42,27.09,33.279z"/>
							<path fill-rule="evenodd" clip-rule="evenodd" fill="#CE0015" d="M26.925,34.537c0.289,0.296,0.251,0.873-0.043,0.97
								C26.822,35.19,26.79,34.885,26.925,34.537z"/>
							<path fill-rule="evenodd" clip-rule="evenodd" fill="#CE0015" d="M27.807,34.569c-0.091,0.15-0.174,0.302-0.272,0.439
								c-0.022,0.033-0.113,0.059-0.134,0.04c-0.04-0.029-0.078-0.105-0.065-0.146c0.045-0.151,0.101-0.303,0.177-0.439
								c0.025-0.045,0.129-0.062,0.195-0.056C27.739,34.411,27.764,34.495,27.807,34.569z"/>
							<path fill-rule="evenodd" clip-rule="evenodd" fill="#CE0015" d="M26.046,34.472c0.162,0.19,0.232,0.687,0.129,0.858
								c-0.026,0.042-0.095,0.079-0.144,0.079c-0.038,0.001-0.108-0.06-0.108-0.093c0-0.06-0.021-0.124,0.003-0.179
								c0.014-0.032,0.033-0.135,0.014-0.258c-0.015-0.101,0.008-0.195,0.016-0.295C25.958,34.55,26.006,34.521,26.046,34.472z"/>
							<path fill-rule="evenodd" clip-rule="evenodd" fill="#CE0015" d="M26.056,33.242c0.112,0.195,0.167,0.323,0.178,0.48
								c0.007,0.082,0.009,0.188-0.012,0.279c-0.016,0.064-0.108,0.108-0.166,0.16c-0.125-0.07-0.125-0.136-0.131-0.208
								c-0.009-0.074,0.019-0.094,0.023-0.134c0.006-0.046-0.003-0.094,0-0.151c0.004-0.073-0.015-0.202-0.009-0.274
								C25.944,33.342,25.973,33.279,26.056,33.242z"/>
						</g>
					</g>
				</g>
				<g>
					<path fill-rule="evenodd" clip-rule="evenodd" fill="#CE0015" d="M23.386,18.292c-0.713,0.068-1.201-0.446-1.797-0.751
						c-0.179,0.674-0.407,1.301-1.002,1.696c-0.022-0.01-0.043-0.02-0.065-0.03c0.042-0.104,0.077-0.212,0.129-0.313
						c0.167-0.321,0.353-0.634,0.505-0.963c0.133-0.288,0.161-0.598,0.076-0.91c-0.107-0.393-0.215-0.786-0.346-1.253
						c-0.304,0.254-0.563,0.481-0.835,0.69c-0.096,0.073-0.227,0.102-0.342,0.151c0.005-0.133-0.032-0.29,0.025-0.395
						c0.176-0.324,0.476-0.529,0.8-0.679c0.194-0.088,0.208-0.188,0.145-0.366c-0.056-0.157-0.071-0.328-0.069-0.504
						c0.279,0.118,0.303,0.411,0.458,0.606c0.252-0.042,0.502-0.099,0.755-0.12c0.162-0.012,0.333,0.017,0.493,0.054
						c0.076,0.019,0.136,0.105,0.249,0.195c-0.491,0.083-0.909,0.153-1.343,0.228c0.164,0.505,0.304,0.967,0.464,1.422
						c0.104,0.297,0.354,0.466,0.62,0.602c0.282,0.145,0.573,0.272,0.857,0.414c0.09,0.045,0.17,0.111,0.254,0.168
						C23.407,18.254,23.397,18.274,23.386,18.292z"/>
					<g>
						<path fill-rule="evenodd" clip-rule="evenodd" fill="#CE0015" d="M12.461,38.817c-0.735,0.356-1.469,0.711-2.22,1.076
							c-0.097-0.192-0.188-0.373-0.288-0.573c0.362-0.18,0.712-0.354,1.063-0.526c0.605-0.295,1.214-0.583,1.814-0.888
							c0.174-0.089,0.244-0.062,0.315,0.12c0.097,0.243,0.228,0.476,0.352,0.724c-0.59,0.509-1.171,1.011-1.752,1.515
							c0.007,0.012,0.013,0.026,0.02,0.039c0.336-0.067,0.674-0.133,1.01-0.2c0.364-0.074,0.728-0.144,1.089-0.227
							c0.116-0.027,0.181-0.014,0.233,0.103c0.124,0.266,0.257,0.528,0.393,0.807c-1.026,0.5-2.043,0.996-3.083,1.504
							c-0.097-0.196-0.187-0.376-0.286-0.577c0.751-0.37,1.493-0.733,2.234-1.098c-0.006-0.014-0.012-0.029-0.017-0.044
							c-0.478,0.102-0.957,0.205-1.437,0.307c-0.296,0.063-0.593,0.121-0.886,0.192c-0.144,0.036-0.225,0.001-0.279-0.139
							c-0.054-0.143-0.127-0.275-0.201-0.428c0.653-0.553,1.305-1.1,1.958-1.648C12.483,38.844,12.472,38.831,12.461,38.817z"/>
						<path fill-rule="evenodd" clip-rule="evenodd" fill="#CE0015" d="M46.535,33.64c-0.017,0.245-0.031,0.455-0.047,0.688
							c-0.437-0.031-0.851-0.065-1.263-0.086c-0.099-0.005-0.214,0.007-0.3,0.052c-0.519,0.267-1.033,0.541-1.547,0.814
							c-0.032,0.018-0.06,0.04-0.111,0.077c0.098,0.033,0.172,0.062,0.271,0.095c-0.08,0.321-0.158,0.634-0.241,0.968
							c0.422,0.112,0.83,0.22,1.237,0.327c0.446,0.118,0.891,0.241,1.339,0.348c0.139,0.033,0.174,0.09,0.132,0.22
							c-0.048,0.158-0.089,0.317-0.139,0.499c-0.917-0.239-1.817-0.473-2.745-0.714c-0.089,0.323-0.176,0.64-0.268,0.973
							c-0.188-0.049-0.361-0.095-0.556-0.146c0.16-0.616,0.325-1.211,0.468-1.812c0.103-0.433,0.167-0.875,0.263-1.309
							c0.017-0.079,0.091-0.168,0.163-0.206c0.4-0.207,0.808-0.403,1.249-0.618c-0.377-0.261-0.717-0.514-1.074-0.733
							c-0.178-0.112-0.229-0.237-0.198-0.429c0.026-0.155,0.032-0.312,0.052-0.514c0.33,0.242,0.632,0.463,0.934,0.685
							c0.2,0.148,0.414,0.283,0.597,0.454c0.246,0.226,0.532,0.291,0.851,0.301C45.901,33.585,46.202,33.615,46.535,33.64z"/>
						<path fill-rule="evenodd" clip-rule="evenodd" fill="#CE0015" d="M38.525,43.605c0.465-0.512,0.898-1.029,1.373-1.502
							c0.325-0.327,0.75-0.314,1.123-0.046c0.381,0.276,0.509,0.697,0.338,1.122c-0.024,0.063-0.051,0.124-0.087,0.212
							c0.638-0.17,1.229,0.052,1.881,0.111c-0.178,0.212-0.321,0.403-0.492,0.567c-0.054,0.052-0.184,0.043-0.275,0.033
							c-0.347-0.033-0.693-0.067-1.038-0.119c-0.36-0.057-0.618,0.084-0.82,0.41c0.352,0.305,0.709,0.614,1.076,0.929
							c-0.154,0.178-0.297,0.342-0.458,0.525C40.275,45.103,39.416,44.368,38.525,43.605z M40.104,44.036
							c0.226-0.28,0.442-0.531,0.636-0.799c0.141-0.19,0.101-0.393-0.073-0.543c-0.182-0.156-0.38-0.171-0.547,0
							c-0.236,0.238-0.448,0.503-0.681,0.769C39.667,43.661,39.871,43.835,40.104,44.036z"/>
						<path fill-rule="evenodd" clip-rule="evenodd" fill="#CE0015" d="M32.032,49.651c-0.148-0.704-0.296-1.411-0.448-2.137
							c0.222-0.045,0.417-0.082,0.628-0.127c0.241,1.131,0.475,2.231,0.709,3.337c-0.048,0.018-0.076,0.025-0.104,0.036
							c-0.397,0.164-0.692,0.077-0.972-0.278c-0.33-0.422-0.733-0.784-1.103-1.175c-0.082-0.087-0.157-0.181-0.234-0.269
							c-0.019,0.012-0.038,0.024-0.056,0.039c0.144,0.686,0.288,1.373,0.438,2.087c-0.214,0.046-0.409,0.09-0.625,0.138
							c-0.24-1.122-0.474-2.223-0.713-3.35c0.209-0.047,0.404-0.108,0.603-0.124c0.073-0.007,0.164,0.088,0.229,0.157
							c0.487,0.509,0.971,1.022,1.451,1.536c0.049,0.053,0.079,0.125,0.117,0.189C31.978,49.691,32.005,49.672,32.032,49.651z"/>
						<path fill-rule="evenodd" clip-rule="evenodd" fill="#CE0015" d="M20.981,46.496c0.197,0.104,0.37,0.197,0.567,0.303
							c-0.538,1.005-1.072,2.001-1.62,3.021c-0.188-0.099-0.371-0.182-0.537-0.291c-0.053-0.035-0.077-0.141-0.082-0.215
							c-0.048-0.702-0.089-1.405-0.133-2.107c-0.005-0.074-0.013-0.146-0.071-0.239c-0.333,0.617-0.667,1.233-1.011,1.871
							c-0.19-0.103-0.368-0.196-0.567-0.302c0.543-1.012,1.078-2.008,1.622-3.021c0.186,0.098,0.359,0.172,0.512,0.277
							c0.058,0.042,0.089,0.153,0.094,0.233c0.041,0.681,0.073,1.36,0.109,2.04c0.006,0.112,0.02,0.224,0.081,0.35
							C20.287,47.783,20.628,47.149,20.981,46.496z"/>
						<path fill-rule="evenodd" clip-rule="evenodd" fill="#CE0015" d="M23.648,49.736c-0.286-0.086-0.523-0.158-0.776-0.235
							c0.052-0.186,0.101-0.356,0.155-0.553c0.475,0.134,0.937,0.267,1.43,0.407c-0.125,0.431-0.241,0.848-0.368,1.265
							c-0.014,0.046-0.081,0.088-0.132,0.108c-0.699,0.305-1.724,0.117-2.25-0.406c-0.485-0.482-0.525-1.077-0.37-1.69
							c0.174-0.679,0.566-1.184,1.297-1.339c0.726-0.154,1.66,0.284,1.884,0.897c0.058,0.156,0.063,0.332,0.098,0.523
							c-0.235-0.017-0.422-0.022-0.606-0.05c-0.046-0.007-0.105-0.078-0.122-0.13c-0.2-0.669-1.044-0.906-1.511-0.396
							c-0.361,0.393-0.5,0.885-0.378,1.413c0.131,0.567,0.936,0.908,1.435,0.603C23.541,50.089,23.57,49.896,23.648,49.736z"/>
						<path fill-rule="evenodd" clip-rule="evenodd" fill="#CE0015" d="M13.939,45.617c-0.181-0.224-0.34-0.407-0.477-0.603
							c-0.04-0.06-0.032-0.175-0.005-0.248c0.168-0.453,0.347-0.903,0.521-1.355c0.024-0.059,0.042-0.124,0.057-0.168
							c-0.704-0.372-1.105,0.164-1.574,0.518c-0.145-0.182-0.281-0.351-0.437-0.544c0.893-0.712,1.778-1.416,2.687-2.138
							c0.144,0.179,0.283,0.354,0.435,0.543c-0.384,0.31-0.753,0.605-1.169,0.938c0.275,0.022,0.495,0.043,0.715,0.061
							c0.385,0.03,0.771,0.049,1.155,0.092c0.097,0.01,0.208,0.073,0.275,0.147c0.157,0.17,0.294,0.359,0.471,0.581
							c-0.369-0.036-0.688-0.065-1.007-0.096c-0.204-0.021-0.41-0.022-0.609-0.064c-0.187-0.038-0.251,0.038-0.305,0.199
							c-0.212,0.655-0.436,1.305-0.655,1.957C14,45.485,13.976,45.53,13.939,45.617z"/>
						<path fill-rule="evenodd" clip-rule="evenodd" fill="#CE0015" d="M36.279,45.438c0.673-0.531,1.325-1.048,1.997-1.578
							c0.117,0.147,0.232,0.293,0.361,0.456c-0.486,0.387-0.957,0.762-1.443,1.149c0.156,0.196,0.299,0.379,0.461,0.585
							c0.451-0.354,0.894-0.701,1.348-1.057c0.118,0.148,0.23,0.291,0.359,0.453c-0.448,0.356-0.883,0.703-1.34,1.066
							c0.192,0.243,0.378,0.478,0.573,0.725c0.5-0.394,0.986-0.775,1.491-1.174c0.121,0.146,0.234,0.283,0.371,0.447
							c-0.682,0.542-1.354,1.073-2.046,1.621C37.702,47.237,37.001,46.349,36.279,45.438z"/>
						<path fill-rule="evenodd" clip-rule="evenodd" fill="#CE0015" d="M42.628,39.492c-0.089,0.173-0.163,0.34-0.257,0.491
							c-0.029,0.046-0.121,0.082-0.179,0.076c-0.411-0.041-0.837,0.459-0.719,0.854c0.048,0.163,0.223,0.24,0.382,0.145
							c0.14-0.086,0.263-0.203,0.383-0.316c0.154-0.145,0.294-0.306,0.45-0.447c0.425-0.394,0.851-0.444,1.303-0.167
							c0.397,0.241,0.57,0.706,0.423,1.21c-0.112,0.381-0.306,0.723-0.607,0.994c-0.347,0.313-0.889,0.372-1.292,0.136
							c0.004-0.025,0.006-0.057,0.017-0.084c0.073-0.166,0.148-0.329,0.229-0.504c0.122,0.018,0.24,0.05,0.357,0.045
							c0.408-0.018,0.792-0.563,0.683-0.96c-0.076-0.276-0.356-0.38-0.582-0.188c-0.218,0.184-0.41,0.401-0.616,0.601
							c-0.258,0.249-0.544,0.445-0.923,0.409c-0.601-0.057-0.972-0.613-0.768-1.231c0.108-0.326,0.308-0.643,0.533-0.906
							C41.746,39.296,42.212,39.256,42.628,39.492z"/>
						<path fill-rule="evenodd" clip-rule="evenodd" fill="#CE0015" d="M17.439,44.136c0.167,0.139,0.34,0.273,0.5,0.423
							c0.038,0.032,0.058,0.126,0.041,0.175c-0.362,1.114-0.73,2.227-1.098,3.337c-0.002,0.006-0.011,0.009-0.042,0.039
							c-0.16-0.135-0.328-0.271-0.483-0.418c-0.031-0.029-0.031-0.111-0.019-0.163c0.024-0.103,0.067-0.2,0.103-0.3
							c0.129-0.368,0.128-0.368-0.164-0.613c-0.203-0.172-0.41-0.336-0.607-0.511c-0.1-0.089-0.188-0.116-0.297-0.027
							c-0.024,0.02-0.052,0.031-0.078,0.045c-0.543,0.323-0.595,0.315-1.034-0.207C15.318,45.323,16.371,44.733,17.439,44.136z
							 M17.185,45.074c-0.013-0.013-0.026-0.026-0.039-0.039c-0.354,0.209-0.706,0.418-1.083,0.64
							c0.248,0.206,0.463,0.386,0.708,0.591C16.917,45.848,17.051,45.461,17.185,45.074z"/>
						<path fill-rule="evenodd" clip-rule="evenodd" fill="#CE0015" d="M8.89,35.222c0.856,0.111,1.665,0.219,2.475,0.325
							c0.323,0.043,0.645,0.09,0.969,0.123c0.144,0.014,0.209,0.073,0.24,0.215c0.125,0.546,0.13,0.546-0.34,0.878
							c-0.786,0.553-1.573,1.104-2.36,1.655c-0.055,0.042-0.112,0.076-0.196,0.129c-0.054-0.226-0.108-0.426-0.149-0.631
							c-0.008-0.04,0.027-0.093,0.05-0.135c0.009-0.019,0.035-0.031,0.055-0.038c0.527-0.209,0.571-0.564,0.415-1.072
							c-0.188-0.611-0.146-0.626-0.777-0.697c-0.154-0.018-0.248-0.066-0.27-0.234C8.982,35.575,8.934,35.416,8.89,35.222z
							 M11.764,36.294c-0.005-0.017-0.01-0.034-0.015-0.052c-0.407-0.043-0.814-0.088-1.248-0.136c0.075,0.316,0.14,0.592,0.214,0.9
							C11.083,36.755,11.423,36.524,11.764,36.294z"/>
						<path fill-rule="evenodd" clip-rule="evenodd" fill="#CE0015" d="M26.412,48.005c0.234,0,0.438,0,0.687,0
							c0,0.118,0,0.235,0,0.354c0.005,0.635-0.001,1.271,0.019,1.909c0.014,0.441,0.268,0.651,0.709,0.639
							c0.395-0.011,0.591-0.188,0.598-0.587c0.012-0.674,0.003-1.348,0.004-2.022c0-0.089,0-0.179,0-0.287c0.234,0,0.45,0,0.704,0
							c0,0.303,0.004,0.612-0.001,0.919c-0.006,0.538,0.001,1.076-0.034,1.61c-0.032,0.483-0.321,0.813-0.798,0.89
							c-0.338,0.053-0.696,0.05-1.035,0.004c-0.452-0.065-0.768-0.409-0.8-0.868c-0.044-0.617-0.038-1.241-0.05-1.862
							C26.409,48.479,26.412,48.252,26.412,48.005z"/>
						<path fill-rule="evenodd" clip-rule="evenodd" fill="#CE0015" d="M36.226,45.514c0.171,1.175,0.338,2.315,0.503,3.454
							c0.001,0.008,0.002,0.015,0.003,0.021c0.039,0.163-0.097,0.197-0.194,0.228c-0.188,0.058-0.356,0.343-0.554,0.164
							c-0.86-0.775-1.697-1.575-2.569-2.394c0.208-0.109,0.394-0.222,0.589-0.306c0.048-0.021,0.152,0.032,0.201,0.079
							c0.557,0.524,1.107,1.055,1.66,1.584c0.027,0.023,0.056,0.048,0.14,0.122c-0.057-0.354-0.101-0.645-0.149-0.935
							c-0.083-0.5-0.162-1.002-0.253-1.5c-0.027-0.145,0.015-0.222,0.151-0.277C35.906,45.691,36.047,45.605,36.226,45.514z"/>
						<path fill-rule="evenodd" clip-rule="evenodd" fill="#CE0015" d="M12.328,34.925c-0.206,0.019-0.37,0.035-0.567,0.055
							c-0.028-0.332-0.055-0.653-0.084-1.011c-0.94,0.062-1.872,0.121-2.831,0.181c-0.017-0.232-0.032-0.446-0.048-0.686
							c0.317-0.024,0.609-0.047,0.902-0.066c0.566-0.036,1.133-0.076,1.7-0.1c0.188-0.008,0.25-0.073,0.229-0.26
							c-0.029-0.248-0.035-0.498-0.054-0.773c0.193-0.014,0.369-0.026,0.577-0.041C12.21,33.128,12.268,34.015,12.328,34.925z"/>
						<path fill-rule="evenodd" clip-rule="evenodd" fill="#CE0015" d="M34.474,50.166c-0.22,0.081-0.422,0.158-0.652,0.244
							c-0.393-1.073-0.781-2.136-1.178-3.222c0.219-0.083,0.427-0.16,0.654-0.245C33.692,48.022,34.08,49.085,34.474,50.166z"/>
						<path fill-rule="evenodd" clip-rule="evenodd" fill="#CE0015" d="M41.914,38.583c0.091-0.229,0.173-0.43,0.259-0.647
							c1.063,0.426,2.113,0.844,3.186,1.273c-0.087,0.22-0.167,0.423-0.256,0.646C44.04,39.431,42.991,39.015,41.914,38.583z"/>
					</g>
					<g>
						<path fill-rule="evenodd" clip-rule="evenodd" fill="#CE0015" d="M13.986,24.593c0-0.29,0-0.582,0-0.871
							c0.013-0.015,0.026-0.028,0.039-0.041c0.08,0.109,0.208,0.211,0.228,0.33c0.034,0.202,0.025,0.42-0.012,0.622
							c-0.053,0.274-0.006,0.365,0.283,0.388c0.075,0.006,0.149,0,0.224,0c0.013,0.021,0.027,0.041,0.039,0.06
							c-0.053,0.046-0.105,0.132-0.162,0.134c-0.14,0.004-0.295,0.002-0.416-0.055c-0.141-0.068-0.206-0.037-0.302,0.067
							c-0.312,0.336-0.766,0.425-1.077,0.229c0.171-0.067,0.353-0.117,0.509-0.208c0.158-0.094,0.292-0.23,0.446-0.358
							c-0.105-0.113-0.185-0.2-0.244-0.265c-0.15,0.125-0.27,0.275-0.426,0.346c-0.351,0.161-0.649-0.06-0.582-0.437
							c0.041-0.229,0.133-0.466,0.263-0.659c0.133-0.2,0.412-0.224,0.615-0.105c0.205,0.12,0.252,0.304,0.196,0.527
							c-0.068,0.263,0.214,0.187,0.287,0.316C13.925,24.606,13.957,24.6,13.986,24.593z M13.407,24.177
							c-0.054-0.098-0.09-0.217-0.171-0.28c-0.035-0.027-0.202,0.038-0.239,0.102c-0.102,0.179-0.191,0.375-0.24,0.573
							c-0.047,0.194,0.088,0.282,0.27,0.205C13.285,24.669,13.373,24.461,13.407,24.177z"/>
						<path fill-rule="evenodd" clip-rule="evenodd" fill="#CE0015" d="M15.165,23.869c-0.104-0.01-0.216,0.003-0.309-0.036
							c-0.313-0.131-0.617-0.283-0.927-0.423c-0.565-0.257-0.902-0.17-1.285,0.324c-0.218,0.281-0.353,0.593-0.41,0.946
							c-0.042,0.259-0.004,0.498,0.185,0.671c0.23,0.212,0.49,0.394,0.743,0.581c0.19,0.139,0.388,0.264,0.582,0.395
							c-0.017,0.037-0.033,0.075-0.051,0.111c-0.119-0.031-0.249-0.042-0.355-0.097c-0.234-0.123-0.454-0.272-0.686-0.4
							c-0.731-0.397-0.741-1.153-0.493-1.711c0.137-0.306,0.348-0.583,0.547-0.859c0.241-0.333,0.605-0.351,0.968-0.302
							c0.521,0.07,0.969,0.328,1.408,0.602c0.044,0.029,0.071,0.087,0.105,0.132C15.18,23.825,15.172,23.847,15.165,23.869z"/>
						<path fill-rule="evenodd" clip-rule="evenodd" fill="#CE0015" d="M12.629,23.26c-0.049-0.173-0.101-0.354-0.152-0.535
							c-0.029,0-0.058,0.001-0.086,0.002c-0.077,0.104-0.154,0.208-0.232,0.312c-0.018-0.005-0.035-0.009-0.053-0.013
							c0.009-0.063,0.011-0.126,0.028-0.186c0.098-0.332,0.099-0.332-0.265-0.461c-0.091,0.119-0.186,0.241-0.299,0.388
							c-0.024-0.061-0.063-0.108-0.053-0.13c0.111-0.221,0.193-0.438-0.084-0.697c0.147,0,0.22-0.022,0.266,0.003
							c0.323,0.179,0.655,0.346,0.956,0.559C12.945,22.708,12.913,23.037,12.629,23.26z"/>
						<path fill-rule="evenodd" clip-rule="evenodd" fill="#CE0015" d="M10.955,23.797c0.032,0.281-0.438,0.618,0.159,0.764
							c0.109-0.122,0.226-0.255,0.343-0.387c0.016,0.008,0.032,0.017,0.048,0.026c-0.055,0.16-0.111,0.318-0.167,0.48
							c0.232,0.286,0.337-0.029,0.487-0.13c0.021,0.012,0.043,0.026,0.065,0.039c-0.062,0.146-0.089,0.338-0.201,0.424
							c-0.082,0.062-0.287,0.022-0.41-0.034c-0.349-0.158-0.683-0.344-1.02-0.528c-0.021-0.012-0.002-0.098-0.002-0.149
							c0.346,0.044,0.443-0.247,0.606-0.448C10.88,23.833,10.911,23.823,10.955,23.797z"/>
						<path fill-rule="evenodd" clip-rule="evenodd" fill="#CE0015" d="M11.83,23.098c0.073,0.114,0.146,0.228,0.228,0.353
							c0.098-0.06,0.197-0.12,0.295-0.18c0.017,0.013,0.033,0.026,0.048,0.039c-0.065,0.1-0.111,0.225-0.2,0.294
							c-0.127,0.1-0.172,0.208-0.173,0.363c0,0.096-0.055,0.19-0.085,0.285c-0.023-0.002-0.045-0.002-0.068-0.003
							c-0.026-0.111-0.017-0.264-0.086-0.321c-0.066-0.055-0.214-0.012-0.364-0.062c0.112-0.095,0.271-0.169,0.326-0.291
							c0.056-0.125,0.013-0.294,0.013-0.444C11.785,23.12,11.807,23.109,11.83,23.098z"/>
						<path fill-rule="evenodd" clip-rule="evenodd" fill="#CE0015" d="M11.294,22.646c0.06,0.125,0.118,0.248,0.191,0.399
							c0.112-0.07,0.222-0.14,0.331-0.21c-0.213,0.277-0.391,0.574-0.443,0.939c-0.031-0.01-0.062-0.02-0.093-0.029
							c-0.022-0.121-0.045-0.241-0.071-0.376c-0.094,0.044-0.174,0.08-0.319,0.148c0.066-0.132,0.086-0.254,0.15-0.285
							c0.229-0.108,0.19-0.295,0.179-0.482c-0.001-0.027,0.006-0.055,0.01-0.083C11.251,22.661,11.272,22.654,11.294,22.646z"/>
					</g>
					<g>
						<path fill-rule="evenodd" clip-rule="evenodd" fill="#CE0015" d="M40.541,24.673c0.255,0.068,0.466,0.115,0.672,0.178
							c0.293,0.09,0.569,0.1,0.851-0.059c0.181-0.103,0.391-0.159,0.592-0.222c0.068-0.023,0.149-0.004,0.225-0.004
							c0.009,0.024,0.018,0.05,0.026,0.074c-0.098,0.053-0.19,0.125-0.293,0.155c-0.41,0.122-0.645,0.4-0.749,0.804
							c-0.058,0.218-0.118,0.437-0.182,0.654c-0.021,0.076-0.058,0.148-0.108,0.274c-0.163-0.274-0.067-0.501-0.031-0.716
							c0.037-0.221,0.107-0.436,0.163-0.655C40.808,25.056,40.708,25.02,40.541,24.673z"/>
						<path fill-rule="evenodd" clip-rule="evenodd" fill="#CE0015" d="M44.583,23.586c-0.337,0.275-0.691,0.461-0.888,0.753
							c-0.198,0.293-0.242,0.691-0.355,1.05c-0.157-0.383,0.01-0.791,0.015-1.211c-0.314,0.035-0.617,0.032-0.811-0.303
							c0.151,0.022,0.303,0.04,0.452,0.069c0.244,0.047,0.473,0.042,0.703-0.083c0.191-0.105,0.401-0.175,0.607-0.249
							C44.381,23.586,44.469,23.596,44.583,23.586z"/>
						<path fill-rule="evenodd" clip-rule="evenodd" fill="#CE0015" d="M42.351,23.489c-0.446,0.384-1.127,0.344-1.483,0.881
							c-0.021-0.016-0.042-0.031-0.063-0.048c0.065-0.114,0.104-0.256,0.197-0.338C41.381,23.645,41.84,23.499,42.351,23.489z"/>
						<path fill-rule="evenodd" clip-rule="evenodd" fill="#CE0015" d="M40.35,23.592c0.11-0.421,1.049-0.963,1.607-0.917
							C41.441,23.055,40.767,23.097,40.35,23.592z"/>
						<path fill-rule="evenodd" clip-rule="evenodd" fill="#CE0015" d="M42.251,25.892c-0.118-0.35,0.334-0.824,0.802-0.753
							C42.775,25.399,42.508,25.652,42.251,25.892z"/>
						<path fill-rule="evenodd" clip-rule="evenodd" fill="#CE0015" d="M43.87,22.685c-0.009,0.382-0.568,0.72-0.957,0.521
							C43.24,23.029,43.555,22.857,43.87,22.685z"/>
						<path fill-rule="evenodd" clip-rule="evenodd" fill="#CE0015" d="M43.401,21.99c-0.034,0.372-0.582,0.638-1.035,0.433
							C42.731,22.271,43.074,22.127,43.401,21.99z"/>
						<path fill-rule="evenodd" clip-rule="evenodd" fill="#CE0015" d="M44.171,23.159c-0.062,0.371-0.645,0.605-1.038,0.363
							C43.495,23.395,43.839,23.275,44.171,23.159z"/>
						<path fill-rule="evenodd" clip-rule="evenodd" fill="#CE0015" d="M41.336,24.393c0.402-0.065,0.755-0.123,1.098-0.179
							c-0.017,0.125-0.112,0.223-0.363,0.302C41.83,24.592,41.591,24.604,41.336,24.393z"/>
						<path fill-rule="evenodd" clip-rule="evenodd" fill="#CE0015" d="M43.928,24.909c-0.065-0.24,0.057-0.419,0.202-0.581
							c0.146-0.166,0.325-0.277,0.636-0.216c-0.187,0.149-0.338,0.255-0.469,0.38C44.167,24.616,44.057,24.76,43.928,24.909z"/>
						<path fill-rule="evenodd" clip-rule="evenodd" fill="#CE0015" d="M40.286,24.22c0.064-0.125,0.109-0.267,0.198-0.373
							c0.375-0.445,0.859-0.728,1.425-0.825c0.685-0.117,1.33-0.298,1.875-0.773c-0.023,0.049-0.039,0.103-0.072,0.144
							c-0.369,0.479-0.828,0.786-1.456,0.802c-0.654,0.018-1.197,0.292-1.644,0.762c-0.092,0.097-0.178,0.199-0.267,0.298
							C40.326,24.243,40.306,24.231,40.286,24.22z"/>
					</g>
					<g>
						<path fill-rule="evenodd" clip-rule="evenodd" fill="#CE0015" d="M36.039,16.376c-0.128-0.023-0.258-0.043-0.385-0.07
							c-0.132-0.026-0.218-0.01-0.277,0.142c-0.184,0.472-0.391,0.932-0.579,1.401c-0.062,0.157-0.006,0.278,0.164,0.34
							c0.172,0.064,0.282,0.188,0.337,0.429c-0.135-0.033-0.245-0.042-0.336-0.085c-0.359-0.174-0.714-0.355-1.067-0.542
							c-0.058-0.03-0.098-0.093-0.147-0.143c0.065-0.024,0.13-0.073,0.194-0.071c0.616,0.012,0.617,0.016,0.84-0.558
							c0.117-0.302,0.231-0.606,0.349-0.91c0.044-0.113,0.045-0.19-0.092-0.251c-0.068-0.031-0.102-0.139-0.151-0.213
							c0.082-0.007,0.174-0.04,0.246-0.014c0.254,0.093,0.503,0.201,0.749,0.315c0.073,0.035,0.125,0.112,0.186,0.169
							C36.059,16.337,36.048,16.357,36.039,16.376z"/>
						<path fill-rule="evenodd" clip-rule="evenodd" fill="#CE0015" d="M32.944,18.422c-0.194-0.177-0.189-0.388-0.189-0.583
							c0.003-0.552,0.145-1.076,0.504-1.498c0.438-0.515,0.86-1.029,1.04-1.703c0.021,0.005,0.041,0.01,0.062,0.015
							c-0.011,0.122-0.015,0.243-0.033,0.363c-0.056,0.391-0.177,0.771-0.469,1.037c-0.562,0.51-0.753,1.168-0.851,1.878
							C32.987,18.081,32.969,18.23,32.944,18.422z"/>
						<path fill-rule="evenodd" clip-rule="evenodd" fill="#CE0015" d="M33.095,15.888c-0.26,0.692-0.518,1.385-0.793,2.12
							c-0.023-0.173-0.073-0.333-0.062-0.49c0.043-0.653,0.385-1.169,0.769-1.664C33.037,15.865,33.066,15.876,33.095,15.888z"/>
						<path fill-rule="evenodd" clip-rule="evenodd" fill="#CE0015" d="M33.972,16.465c-0.183,0.68-0.358,1.334-0.536,1.99
							C33.248,17.905,33.467,16.785,33.972,16.465z"/>
						<path fill-rule="evenodd" clip-rule="evenodd" fill="#CE0015" d="M33.784,14.512c0.167,0.393-0.144,1.015-0.603,1.108
							C33.389,15.239,33.587,14.875,33.784,14.512z"/>
						<path fill-rule="evenodd" clip-rule="evenodd" fill="#CE0015" d="M34.757,14.874c0.24,0.322-0.108,1.125-0.613,1.272
							C34.357,15.705,34.559,15.286,34.757,14.874z"/>
					</g>
				</g>
			</g>
		</g>
		<g>
			<g>
				<path d="M63.284,50.299v-7.104h2.156c2.507,0,3.761,1.154,3.761,3.463c0,1.11-0.357,1.994-1.071,2.653s-1.629,0.988-2.745,0.988
					H63.284z M64.385,44.14v5.215h0.967c0.838,0,1.496-0.235,1.975-0.704c0.479-0.47,0.718-1.126,0.718-1.971
					c0-0.828-0.228-1.459-0.683-1.892s-1.116-0.648-1.981-0.648H64.385z"/>
				<path d="M75.068,48.052h-3.486c0.046,1.024,0.567,1.536,1.564,1.536c0.563,0,1.075-0.168,1.536-0.505v0.891
					c-0.453,0.296-1.047,0.444-1.784,0.444c-0.752,0-1.341-0.229-1.766-0.688c-0.425-0.459-0.638-1.102-0.638-1.927
					c0-0.782,0.229-1.428,0.686-1.936c0.457-0.508,1.029-0.761,1.717-0.761c0.685,0,1.218,0.216,1.599,0.648
					c0.38,0.433,0.571,1.028,0.571,1.786V48.052z M74.022,47.268c-0.003-0.435-0.103-0.768-0.298-1s-0.474-0.349-0.835-0.349
					c-0.327,0-0.611,0.123-0.853,0.369c-0.241,0.246-0.391,0.572-0.449,0.979H74.022z"/>
				<path d="M77.692,49.615v3.019h-1.078v-7.407h1.078v0.844h0.023c0.391-0.643,0.96-0.963,1.706-0.963
					c0.645,0,1.152,0.225,1.522,0.676s0.555,1.063,0.555,1.833c0,0.847-0.209,1.525-0.628,2.036s-0.98,0.766-1.683,0.766
					c-0.642,0-1.133-0.268-1.472-0.803H77.692z M77.683,48.161c0,0.395,0.122,0.726,0.367,0.993s0.554,0.401,0.927,0.401
					c0.449,0,0.798-0.172,1.045-0.516s0.372-0.82,0.372-1.429c0-0.523-0.115-0.928-0.344-1.213c-0.229-0.286-0.551-0.43-0.963-0.43
					s-0.75,0.15-1.011,0.45s-0.392,0.679-0.392,1.137V48.161z"/>
				<path d="M83.105,45.565c0.517-0.306,1.114-0.458,1.793-0.458c1.281,0,1.921,0.661,1.921,1.985v3.206h-1.045v-0.771h-0.023
					c-0.346,0.593-0.859,0.89-1.541,0.89c-0.499,0-0.891-0.135-1.177-0.403c-0.286-0.27-0.429-0.632-0.429-1.087
					c0-0.954,0.567-1.511,1.702-1.67l1.472-0.201c0-0.756-0.332-1.133-0.995-1.133c-0.608,0-1.168,0.196-1.679,0.591V45.565z
					 M84.66,47.941c-0.367,0.049-0.626,0.143-0.777,0.279c-0.151,0.138-0.227,0.34-0.227,0.605c0,0.224,0.081,0.406,0.243,0.549
					c0.162,0.142,0.37,0.213,0.624,0.213c0.361,0,0.661-0.128,0.899-0.383c0.239-0.256,0.358-0.577,0.358-0.966V47.79L84.66,47.941z
					"/>
				<path d="M91.549,46.254c-0.159-0.104-0.37-0.156-0.633-0.156c-0.349,0-0.631,0.153-0.846,0.459
					c-0.216,0.306-0.323,0.711-0.323,1.215v2.527h-1.078v-5.072h1.078v1.009h0.023c0.25-0.73,0.694-1.097,1.33-1.097
					c0.189,0,0.339,0.021,0.449,0.064V46.254z"/>
				<path d="M95.696,50.244c-0.199,0.112-0.484,0.169-0.857,0.169c-0.963,0-1.445-0.522-1.445-1.568v-2.766h-0.857v-0.853h0.857
					v-1.188l1.073-0.325v1.514h1.229v0.853h-1.229v2.578c0,0.314,0.056,0.542,0.167,0.683s0.291,0.211,0.539,0.211
					c0.192,0,0.367-0.055,0.522-0.165V50.244z"/>
				<path d="M104.636,50.299h-1.078v-2.908c0-0.501-0.081-0.863-0.243-1.087c-0.162-0.223-0.42-0.335-0.775-0.335
					c-0.306,0-0.569,0.142-0.789,0.423s-0.33,0.625-0.33,1.031v2.876h-1.073v-2.981c0-0.898-0.344-1.349-1.032-1.349
					c-0.318,0-0.582,0.137-0.791,0.408c-0.209,0.272-0.314,0.624-0.314,1.056v2.866h-1.078v-5.072h1.078v0.798h0.023
					c0.364-0.611,0.896-0.917,1.596-0.917c0.712,0,1.194,0.338,1.445,1.013c0.379-0.675,0.945-1.013,1.697-1.013
					c1.11,0,1.665,0.686,1.665,2.059V50.299z"/>
				<path d="M110.732,48.052h-3.486c0.046,1.024,0.567,1.536,1.564,1.536c0.563,0,1.075-0.168,1.536-0.505v0.891
					c-0.453,0.296-1.047,0.444-1.784,0.444c-0.752,0-1.341-0.229-1.766-0.688c-0.425-0.459-0.638-1.102-0.638-1.927
					c0-0.782,0.229-1.428,0.686-1.936c0.457-0.508,1.029-0.761,1.717-0.761c0.685,0,1.218,0.216,1.599,0.648
					c0.38,0.433,0.571,1.028,0.571,1.786V48.052z M109.687,47.268c-0.003-0.435-0.103-0.768-0.298-1s-0.474-0.349-0.835-0.349
					c-0.327,0-0.611,0.123-0.853,0.369c-0.241,0.246-0.391,0.572-0.449,0.979H109.687z"/>
				<path d="M116.731,50.299h-1.073v-2.866c0-0.976-0.355-1.464-1.064-1.464c-0.358,0-0.654,0.136-0.888,0.406
					s-0.351,0.614-0.351,1.03v2.894h-1.078v-5.072h1.078v0.83h0.023c0.376-0.633,0.926-0.949,1.651-0.949
					c1.134,0,1.702,0.696,1.702,2.091V50.299z"/>
				<path d="M121.186,50.244c-0.199,0.112-0.484,0.169-0.857,0.169c-0.963,0-1.445-0.522-1.445-1.568v-2.766h-0.857v-0.853h0.857
					v-1.188l1.073-0.325v1.514h1.229v0.853h-1.229v2.578c0,0.314,0.056,0.542,0.167,0.683s0.291,0.211,0.539,0.211
					c0.192,0,0.367-0.055,0.522-0.165V50.244z"/>
				<path d="M125.067,47.809c0-0.835,0.238-1.494,0.713-1.977c0.476-0.483,1.123-0.725,1.942-0.725c0.773,0,1.385,0.233,1.834,0.701
					c0.45,0.468,0.674,1.107,0.674,1.917c0,0.816-0.237,1.47-0.711,1.959s-1.107,0.733-1.899,0.733c-0.776,0-1.396-0.236-1.86-0.711
					C125.299,49.233,125.067,48.601,125.067,47.809z M126.163,47.785c0,0.557,0.135,0.991,0.406,1.303
					c0.271,0.312,0.638,0.468,1.103,0.468c0.975,0,1.463-0.601,1.463-1.803c0-0.58-0.125-1.023-0.376-1.327
					c-0.251-0.305-0.613-0.457-1.087-0.457c-0.474,0-0.844,0.162-1.11,0.486C126.296,46.779,126.163,47.223,126.163,47.785z"/>
				<path d="M134.461,43.672c-0.181-0.086-0.366-0.129-0.555-0.129c-0.544,0-0.816,0.329-0.816,0.986v0.697h1.174v0.853h-1.174v4.22
					h-1.073v-4.22h-0.862v-0.853h0.862v-0.753c0-0.553,0.167-0.991,0.5-1.313c0.333-0.322,0.76-0.484,1.28-0.484
					c0.269,0,0.491,0.031,0.665,0.092V43.672z"/>
				<path d="M139.512,44.094v0.004v5.298v0.004v0.899h-1.102v-0.899v-0.004v-5.298v-0.004v-0.899h1.102V44.094z"/>
				<path d="M146.044,50.299h-1.073v-2.866c0-0.976-0.354-1.464-1.064-1.464c-0.357,0-0.653,0.136-0.887,0.406
					c-0.234,0.271-0.352,0.614-0.352,1.03v2.894h-1.077v-5.072h1.077v0.83h0.023c0.376-0.633,0.926-0.949,1.651-0.949
					c1.134,0,1.701,0.696,1.701,2.091V50.299z"/>
				<path d="M150.686,43.672c-0.181-0.086-0.365-0.129-0.555-0.129c-0.545,0-0.816,0.329-0.816,0.986v0.697h1.174v0.853h-1.174v4.22
					h-1.073v-4.22h-0.862v-0.853h0.862v-0.753c0-0.553,0.166-0.991,0.499-1.313c0.334-0.322,0.76-0.484,1.28-0.484
					c0.269,0,0.49,0.031,0.665,0.092V43.672z"/>
				<path d="M151.416,47.809c0-0.835,0.238-1.494,0.713-1.977c0.476-0.483,1.123-0.725,1.942-0.725c0.774,0,1.386,0.233,1.835,0.701
					s0.674,1.107,0.674,1.917c0,0.816-0.236,1.47-0.711,1.959c-0.474,0.489-1.106,0.733-1.898,0.733
					c-0.776,0-1.396-0.236-1.859-0.711C151.647,49.233,151.416,48.601,151.416,47.809z M152.512,47.785
					c0,0.557,0.135,0.991,0.405,1.303s0.639,0.468,1.104,0.468c0.976,0,1.463-0.601,1.463-1.803c0-0.58-0.125-1.023-0.376-1.327
					c-0.251-0.305-0.613-0.457-1.087-0.457c-0.475,0-0.844,0.162-1.11,0.486C152.645,46.779,152.512,47.223,152.512,47.785z"/>
				<path d="M161.081,46.254c-0.159-0.104-0.37-0.156-0.633-0.156c-0.349,0-0.631,0.153-0.847,0.459
					c-0.215,0.306-0.323,0.711-0.323,1.215v2.527h-1.077v-5.072h1.077v1.009h0.023c0.25-0.73,0.693-1.097,1.33-1.097
					c0.189,0,0.339,0.021,0.449,0.064V46.254z"/>
				<path d="M169.814,50.299h-1.078v-2.908c0-0.501-0.081-0.863-0.242-1.087c-0.162-0.223-0.421-0.335-0.775-0.335
					c-0.306,0-0.569,0.142-0.789,0.423s-0.33,0.625-0.33,1.031v2.876h-1.073v-2.981c0-0.898-0.344-1.349-1.032-1.349
					c-0.318,0-0.582,0.137-0.791,0.408c-0.209,0.272-0.314,0.624-0.314,1.056v2.866h-1.077v-5.072h1.077v0.798h0.023
					c0.363-0.611,0.896-0.917,1.596-0.917c0.713,0,1.194,0.338,1.445,1.013c0.379-0.675,0.944-1.013,1.696-1.013
					c1.11,0,1.665,0.686,1.665,2.059V50.299z"/>
				<path d="M171.787,45.565c0.518-0.306,1.115-0.458,1.794-0.458c1.281,0,1.922,0.661,1.922,1.985v3.206h-1.046v-0.771h-0.023
					c-0.346,0.593-0.859,0.89-1.541,0.89c-0.498,0-0.891-0.135-1.176-0.403c-0.286-0.27-0.429-0.632-0.429-1.087
					c0-0.954,0.566-1.511,1.701-1.67l1.472-0.201c0-0.756-0.331-1.133-0.995-1.133c-0.608,0-1.168,0.196-1.679,0.591V45.565z
					 M173.342,47.941c-0.367,0.049-0.627,0.143-0.778,0.279c-0.15,0.138-0.227,0.34-0.227,0.605c0,0.224,0.081,0.406,0.243,0.549
					c0.162,0.142,0.37,0.213,0.624,0.213c0.36,0,0.66-0.128,0.898-0.383c0.238-0.256,0.357-0.577,0.357-0.966V47.79L173.342,47.941z
					"/>
				<path d="M179.957,50.244c-0.198,0.112-0.484,0.169-0.857,0.169c-0.963,0-1.444-0.522-1.444-1.568v-2.766h-0.858v-0.853h0.858
					v-1.188l1.073-0.325v1.514h1.229v0.853h-1.229v2.578c0,0.314,0.056,0.542,0.167,0.683s0.291,0.211,0.539,0.211
					c0.192,0,0.367-0.055,0.522-0.165V50.244z"/>
				<path d="M181.278,43.483c0-0.181,0.063-0.329,0.186-0.447c0.124-0.117,0.281-0.177,0.471-0.177c0.187,0,0.344,0.06,0.473,0.177
					c0.128,0.118,0.192,0.267,0.192,0.447s-0.064,0.329-0.192,0.447c-0.129,0.117-0.286,0.177-0.473,0.177s-0.343-0.06-0.468-0.179
					C181.34,43.809,181.278,43.661,181.278,43.483z M181.383,50.299v-5.072h1.078v5.072H181.383z"/>
				<path d="M184.077,47.809c0-0.835,0.238-1.494,0.713-1.977c0.476-0.483,1.123-0.725,1.942-0.725c0.774,0,1.386,0.233,1.835,0.701
					s0.674,1.107,0.674,1.917c0,0.816-0.236,1.47-0.711,1.959c-0.474,0.489-1.106,0.733-1.898,0.733
					c-0.776,0-1.396-0.236-1.859-0.711C184.308,49.233,184.077,48.601,184.077,47.809z M185.173,47.785
					c0,0.557,0.135,0.991,0.405,1.303s0.639,0.468,1.104,0.468c0.976,0,1.463-0.601,1.463-1.803c0-0.58-0.125-1.023-0.376-1.327
					c-0.251-0.305-0.613-0.457-1.087-0.457c-0.475,0-0.844,0.162-1.11,0.486C185.306,46.779,185.173,47.223,185.173,47.785z"/>
				<path d="M195.315,50.299h-1.073v-2.866c0-0.976-0.354-1.464-1.064-1.464c-0.357,0-0.653,0.136-0.887,0.406
					c-0.234,0.271-0.352,0.614-0.352,1.03v2.894h-1.077v-5.072h1.077v0.83h0.023c0.376-0.633,0.926-0.949,1.651-0.949
					c1.134,0,1.701,0.696,1.701,2.091V50.299z"/>
				<path d="M200.059,45.565c0.518-0.306,1.115-0.458,1.794-0.458c1.281,0,1.922,0.661,1.922,1.985v3.206h-1.046v-0.771h-0.023
					c-0.346,0.593-0.859,0.89-1.541,0.89c-0.498,0-0.891-0.135-1.176-0.403c-0.286-0.27-0.429-0.632-0.429-1.087
					c0-0.954,0.566-1.511,1.701-1.67l1.472-0.201c0-0.756-0.331-1.133-0.995-1.133c-0.608,0-1.168,0.196-1.679,0.591V45.565z
					 M201.615,47.941c-0.367,0.049-0.627,0.143-0.778,0.279c-0.15,0.138-0.227,0.34-0.227,0.605c0,0.224,0.081,0.406,0.243,0.549
					c0.162,0.142,0.37,0.213,0.624,0.213c0.36,0,0.66-0.128,0.898-0.383c0.238-0.256,0.357-0.577,0.357-0.966V47.79L201.615,47.941z
					"/>
				<path d="M210.078,50.299h-1.073v-2.866c0-0.976-0.354-1.464-1.064-1.464c-0.357,0-0.653,0.136-0.887,0.406
					c-0.234,0.271-0.352,0.614-0.352,1.03v2.894h-1.077v-5.072h1.077v0.83h0.023c0.376-0.633,0.926-0.949,1.651-0.949
					c1.134,0,1.701,0.696,1.701,2.091V50.299z"/>
				<path d="M216.48,50.299h-1.073v-0.803h-0.022c-0.367,0.614-0.927,0.922-1.679,0.922c-0.643,0-1.153-0.229-1.534-0.686
					s-0.571-1.074-0.571-1.851c0-0.841,0.214-1.514,0.643-2.019c0.428-0.504,0.985-0.756,1.674-0.756
					c0.688,0,1.177,0.26,1.468,0.779h0.022v-3.096h1.073V50.299z M215.417,47.327c0-0.386-0.125-0.708-0.374-0.968
					s-0.558-0.391-0.924-0.391c-0.435,0-0.78,0.167-1.037,0.5c-0.257,0.334-0.385,0.789-0.385,1.367c0,0.532,0.12,0.951,0.362,1.259
					c0.241,0.308,0.57,0.461,0.985,0.461c0.404,0,0.733-0.152,0.989-0.456c0.255-0.305,0.383-0.688,0.383-1.153V47.327z"/>
				<path d="M225.202,50.299h-3.876v-7.104h1.101v6.16h2.775V50.299z"/>
				<path d="M226.422,43.483c0-0.181,0.063-0.329,0.186-0.447c0.124-0.117,0.281-0.177,0.471-0.177c0.187,0,0.344,0.06,0.473,0.177
					c0.128,0.118,0.192,0.267,0.192,0.447s-0.064,0.329-0.192,0.447c-0.129,0.117-0.286,0.177-0.473,0.177s-0.343-0.06-0.468-0.179
					C226.485,43.809,226.422,43.661,226.422,43.483z M226.528,50.299v-5.072h1.078v5.072H226.528z"/>
				<path d="M230.625,49.615v0.684h-1.077v-7.508h1.077v3.279h0.023c0.392-0.643,0.963-0.963,1.715-0.963
					c0.643,0,1.147,0.225,1.516,0.676s0.553,1.063,0.553,1.833c0,0.844-0.209,1.521-0.627,2.033
					c-0.416,0.513-0.975,0.769-1.675,0.769c-0.654,0-1.148-0.268-1.481-0.803H230.625z M230.616,48.18
					c0,0.386,0.123,0.711,0.369,0.978c0.246,0.266,0.554,0.398,0.924,0.398c0.45,0,0.799-0.172,1.046-0.516
					c0.249-0.344,0.372-0.82,0.372-1.429c0-0.511-0.117-0.912-0.351-1.204c-0.233-0.292-0.553-0.438-0.956-0.438
					s-0.738,0.146-1.004,0.438c-0.267,0.292-0.399,0.669-0.399,1.131V48.18z"/>
				<path d="M238.928,46.254c-0.16-0.104-0.371-0.156-0.633-0.156c-0.35,0-0.631,0.153-0.848,0.459
					c-0.215,0.306-0.322,0.711-0.322,1.215v2.527h-1.078v-5.072h1.078v1.009h0.023c0.25-0.73,0.693-1.097,1.33-1.097
					c0.189,0,0.338,0.021,0.449,0.064V46.254z"/>
				<path d="M240.299,45.565c0.518-0.306,1.115-0.458,1.793-0.458c1.281,0,1.922,0.661,1.922,1.985v3.206h-1.045v-0.771h-0.023
					c-0.346,0.593-0.859,0.89-1.541,0.89c-0.498,0-0.891-0.135-1.176-0.403c-0.287-0.27-0.43-0.632-0.43-1.087
					c0-0.954,0.566-1.511,1.701-1.67l1.473-0.201c0-0.756-0.332-1.133-0.996-1.133c-0.607,0-1.168,0.196-1.678,0.591V45.565z
					 M241.854,47.941c-0.367,0.049-0.627,0.143-0.777,0.279c-0.15,0.138-0.227,0.34-0.227,0.605c0,0.224,0.08,0.406,0.242,0.549
					c0.162,0.142,0.371,0.213,0.625,0.213c0.359,0,0.66-0.128,0.898-0.383c0.238-0.256,0.357-0.577,0.357-0.966V47.79
					L241.854,47.941z"/>
				<path d="M248.744,46.254c-0.16-0.104-0.371-0.156-0.633-0.156c-0.35,0-0.631,0.153-0.848,0.459
					c-0.215,0.306-0.322,0.711-0.322,1.215v2.527h-1.078v-5.072h1.078v1.009h0.023c0.25-0.73,0.693-1.097,1.33-1.097
					c0.189,0,0.338,0.021,0.449,0.064V46.254z"/>
				<path d="M254.717,45.227l-2.234,5.742c-0.443,1.144-1.086,1.715-1.926,1.715c-0.275,0-0.498-0.029-0.67-0.087v-0.908
					c0.178,0.079,0.361,0.119,0.551,0.119c0.402,0,0.701-0.225,0.895-0.674l0.354-0.844l-2.01-5.063h1.197l1.221,3.618
					c0.027,0.077,0.066,0.238,0.119,0.486h0.021c0.016-0.098,0.057-0.257,0.125-0.477l1.27-3.628H254.717z"/>
				<path d="M258.494,48.826c0.543,0.443,1.184,0.665,1.922,0.665c0.941,0,1.412-0.322,1.412-0.968c0-0.186-0.053-0.354-0.156-0.504
					c-0.104-0.15-0.244-0.28-0.42-0.393c-0.176-0.111-0.523-0.291-1.043-0.539c-0.639-0.306-1.086-0.615-1.34-0.931
					c-0.254-0.314-0.381-0.685-0.381-1.11c0-0.611,0.242-1.093,0.725-1.444c0.484-0.352,1.102-0.527,1.854-0.527
					c0.713,0,1.25,0.087,1.615,0.262v1.128c-0.438-0.303-0.984-0.454-1.639-0.454c-0.418,0-0.756,0.084-1.014,0.252
					c-0.256,0.169-0.385,0.399-0.385,0.693c0,0.266,0.094,0.484,0.283,0.655c0.188,0.172,0.584,0.4,1.189,0.688
					c0.707,0.33,1.193,0.661,1.463,0.992c0.27,0.332,0.404,0.714,0.404,1.145c0,0.643-0.232,1.133-0.697,1.473
					c-0.465,0.339-1.109,0.509-1.932,0.509c-0.303,0-0.639-0.036-1.008-0.11c-0.371-0.073-0.656-0.171-0.854-0.293V48.826z"/>
				<path d="M268.205,50.083c-0.373,0.224-0.852,0.335-1.436,0.335c-0.74,0-1.34-0.233-1.799-0.701
					c-0.459-0.469-0.688-1.08-0.688-1.835c0-0.847,0.246-1.521,0.738-2.022c0.492-0.502,1.148-0.752,1.967-0.752
					c0.506,0,0.914,0.081,1.225,0.242v1.01c-0.359-0.26-0.75-0.391-1.17-0.391c-0.494,0-0.896,0.166-1.203,0.498
					s-0.461,0.777-0.461,1.337c0,0.548,0.146,0.977,0.438,1.286c0.293,0.311,0.686,0.466,1.178,0.466
					c0.428,0,0.83-0.138,1.211-0.413V50.083z"/>
				<path d="M269.668,43.483c0-0.181,0.063-0.329,0.186-0.447c0.123-0.117,0.281-0.177,0.471-0.177c0.186,0,0.344,0.06,0.473,0.177
					c0.127,0.118,0.191,0.267,0.191,0.447s-0.064,0.329-0.191,0.447c-0.129,0.117-0.287,0.177-0.473,0.177
					c-0.188,0-0.344-0.06-0.469-0.179C269.73,43.809,269.668,43.661,269.668,43.483z M269.773,50.299v-5.072h1.078v5.072H269.773z"
					/>
				<path d="M277.039,48.052h-3.486c0.047,1.024,0.568,1.536,1.564,1.536c0.563,0,1.074-0.168,1.537-0.505v0.891
					c-0.453,0.296-1.047,0.444-1.785,0.444c-0.752,0-1.34-0.229-1.766-0.688c-0.424-0.459-0.637-1.102-0.637-1.927
					c0-0.782,0.229-1.428,0.686-1.936s1.029-0.761,1.717-0.761c0.686,0,1.219,0.216,1.6,0.648s0.57,1.028,0.57,1.786V48.052z
					 M275.994,47.268c-0.004-0.435-0.104-0.768-0.299-1s-0.475-0.349-0.834-0.349c-0.328,0-0.613,0.123-0.854,0.369
					c-0.242,0.246-0.393,0.572-0.449,0.979H275.994z"/>
				<path d="M283.039,50.299h-1.072v-2.866c0-0.976-0.355-1.464-1.064-1.464c-0.357,0-0.654,0.136-0.887,0.406
					c-0.234,0.271-0.352,0.614-0.352,1.03v2.894h-1.078v-5.072h1.078v0.83h0.023c0.375-0.633,0.926-0.949,1.65-0.949
					c1.135,0,1.701,0.696,1.701,2.091V50.299z"/>
				<path d="M288.484,50.083c-0.373,0.224-0.852,0.335-1.436,0.335c-0.74,0-1.34-0.233-1.797-0.701
					c-0.459-0.469-0.689-1.08-0.689-1.835c0-0.847,0.246-1.521,0.738-2.022c0.492-0.502,1.148-0.752,1.969-0.752
					c0.504,0,0.912,0.081,1.225,0.242v1.01c-0.361-0.26-0.752-0.391-1.17-0.391c-0.496,0-0.896,0.166-1.203,0.498
					c-0.309,0.332-0.461,0.777-0.461,1.337c0,0.548,0.145,0.977,0.438,1.286c0.291,0.311,0.684,0.466,1.176,0.466
					c0.428,0,0.832-0.138,1.211-0.413V50.083z"/>
				<path d="M294.311,48.052h-3.486c0.047,1.024,0.568,1.536,1.564,1.536c0.563,0,1.074-0.168,1.537-0.505v0.891
					c-0.453,0.296-1.047,0.444-1.785,0.444c-0.752,0-1.34-0.229-1.766-0.688c-0.424-0.459-0.637-1.102-0.637-1.927
					c0-0.782,0.229-1.428,0.686-1.936s1.029-0.761,1.717-0.761c0.686,0,1.219,0.216,1.6,0.648s0.57,1.028,0.57,1.786V48.052z
					 M293.266,47.268c-0.004-0.435-0.104-0.768-0.299-1s-0.475-0.349-0.834-0.349c-0.328,0-0.613,0.123-0.854,0.369
					c-0.242,0.246-0.393,0.572-0.449,0.979H293.266z"/>
				<path d="M296.867,49.129l-0.771,2.459h-0.807l0.555-2.459H296.867z"/>
				<path d="M306.045,44.14h-2.041v6.159h-1.105V44.14h-2.035v-0.945h5.182V44.14z"/>
				<path d="M306.449,45.565c0.518-0.306,1.115-0.458,1.795-0.458c1.281,0,1.922,0.661,1.922,1.985v3.206h-1.047v-0.771h-0.023
					c-0.346,0.593-0.859,0.89-1.541,0.89c-0.498,0-0.891-0.135-1.176-0.403c-0.285-0.27-0.428-0.632-0.428-1.087
					c0-0.954,0.566-1.511,1.701-1.67l1.471-0.201c0-0.756-0.33-1.133-0.994-1.133c-0.609,0-1.168,0.196-1.68,0.591V45.565z
					 M308.006,47.941c-0.367,0.049-0.627,0.143-0.779,0.279c-0.15,0.138-0.227,0.34-0.227,0.605c0,0.224,0.082,0.406,0.244,0.549
					c0.162,0.142,0.369,0.213,0.623,0.213c0.361,0,0.66-0.128,0.898-0.383c0.238-0.256,0.357-0.577,0.357-0.966V47.79
					L308.006,47.941z"/>
				<path d="M319.518,50.299h-1.078v-2.908c0-0.501-0.08-0.863-0.242-1.087c-0.162-0.223-0.42-0.335-0.775-0.335
					c-0.305,0-0.568,0.142-0.789,0.423c-0.219,0.281-0.33,0.625-0.33,1.031v2.876h-1.072v-2.981c0-0.898-0.344-1.349-1.033-1.349
					c-0.318,0-0.582,0.137-0.791,0.408c-0.209,0.272-0.314,0.624-0.314,1.056v2.866h-1.076v-5.072h1.076v0.798h0.023
					c0.363-0.611,0.896-0.917,1.596-0.917c0.713,0,1.195,0.338,1.445,1.013c0.379-0.675,0.945-1.013,1.697-1.013
					c1.109,0,1.664,0.686,1.664,2.059V50.299z"/>
				<path d="M325.885,50.299h-1.398l-2.018-2.463h-0.023v2.463h-1.078v-7.508h1.078v4.765h0.023l1.912-2.329h1.34l-2.166,2.426
					L325.885,50.299z"/>
				<path d="M327.174,45.565c0.518-0.306,1.115-0.458,1.795-0.458c1.281,0,1.922,0.661,1.922,1.985v3.206h-1.047v-0.771h-0.023
					c-0.346,0.593-0.859,0.89-1.541,0.89c-0.498,0-0.891-0.135-1.176-0.403c-0.285-0.27-0.428-0.632-0.428-1.087
					c0-0.954,0.566-1.511,1.701-1.67l1.471-0.201c0-0.756-0.33-1.133-0.994-1.133c-0.609,0-1.168,0.196-1.68,0.591V45.565z
					 M328.73,47.941c-0.367,0.049-0.627,0.143-0.779,0.279c-0.15,0.138-0.227,0.34-0.227,0.605c0,0.224,0.082,0.406,0.244,0.549
					c0.162,0.142,0.369,0.213,0.623,0.213c0.361,0,0.66-0.128,0.898-0.383c0.238-0.256,0.357-0.577,0.357-0.966V47.79L328.73,47.941
					z"/>
				<path d="M337.191,50.299h-1.072v-2.866c0-0.976-0.355-1.464-1.064-1.464c-0.357,0-0.654,0.136-0.887,0.406
					c-0.234,0.271-0.352,0.614-0.352,1.03v2.894h-1.078v-5.072h1.078v0.83h0.023c0.375-0.633,0.926-0.949,1.65-0.949
					c1.135,0,1.701,0.696,1.701,2.091V50.299z"/>
				<path d="M343.6,49.831c0,1.901-0.951,2.853-2.852,2.853c-0.646,0-1.193-0.11-1.643-0.33v-0.99
					c0.557,0.312,1.096,0.468,1.619,0.468c1.199,0,1.797-0.613,1.797-1.84v-0.504h-0.018c-0.373,0.62-0.934,0.931-1.684,0.931
					c-0.635,0-1.146-0.227-1.529-0.681s-0.576-1.061-0.576-1.818c0-0.856,0.211-1.539,0.631-2.048c0.42-0.51,0.98-0.764,1.682-0.764
					c0.664,0,1.156,0.261,1.477,0.784h0.018v-0.665h1.078V49.831z M342.531,47.327c0-0.376-0.123-0.696-0.371-0.961
					s-0.553-0.397-0.918-0.397c-0.443,0-0.793,0.168-1.047,0.503c-0.256,0.335-0.383,0.799-0.383,1.392
					c0,0.514,0.121,0.924,0.365,1.231c0.246,0.308,0.568,0.461,0.969,0.461c0.406,0,0.738-0.151,0.998-0.454
					c0.258-0.303,0.387-0.685,0.387-1.146V47.327z"/>
				<path d="M353.848,47.354c0,2.042-0.934,3.063-2.801,3.063c-1.793,0-2.688-0.987-2.688-2.963v-4.261h1.1v4.233
					c0,1.349,0.557,2.022,1.67,2.022c1.078,0,1.619-0.651,1.619-1.954v-4.302h1.1V47.354z"/>
				<path d="M360.289,50.299h-1.074v-2.866c0-0.976-0.354-1.464-1.064-1.464c-0.357,0-0.652,0.136-0.887,0.406
					s-0.352,0.614-0.352,1.03v2.894h-1.076v-5.072h1.076v0.83h0.023c0.377-0.633,0.926-0.949,1.652-0.949
					c1.133,0,1.701,0.696,1.701,2.091V50.299z"/>
				<path d="M362.023,43.483c0-0.181,0.063-0.329,0.186-0.447c0.123-0.117,0.281-0.177,0.471-0.177c0.186,0,0.344,0.06,0.473,0.177
					c0.127,0.118,0.191,0.267,0.191,0.447s-0.064,0.329-0.191,0.447c-0.129,0.117-0.287,0.177-0.473,0.177
					c-0.188,0-0.344-0.06-0.469-0.179C362.086,43.809,362.023,43.661,362.023,43.483z M362.129,50.299v-5.072h1.078v5.072H362.129z"
					/>
				<path d="M369.436,45.227l-1.977,5.072h-1.143l-1.881-5.072h1.17l1.143,3.49c0.098,0.3,0.156,0.558,0.178,0.774h0.023
					c0.027-0.25,0.082-0.501,0.164-0.752l1.189-3.513H369.436z"/>
				<path d="M374.84,48.052h-3.486c0.045,1.024,0.566,1.536,1.564,1.536c0.563,0,1.074-0.168,1.535-0.505v0.891
					c-0.451,0.296-1.047,0.444-1.783,0.444c-0.752,0-1.342-0.229-1.766-0.688c-0.426-0.459-0.639-1.102-0.639-1.927
					c0-0.782,0.229-1.428,0.686-1.936s1.031-0.761,1.719-0.761c0.684,0,1.217,0.216,1.598,0.648s0.572,1.028,0.572,1.786V48.052z
					 M373.793,47.268c-0.002-0.435-0.102-0.768-0.297-1c-0.197-0.232-0.475-0.349-0.836-0.349c-0.326,0-0.611,0.123-0.854,0.369
					c-0.24,0.246-0.391,0.572-0.449,0.979H373.793z"/>
				<path d="M379.266,46.254c-0.158-0.104-0.369-0.156-0.633-0.156c-0.348,0-0.631,0.153-0.846,0.459s-0.324,0.711-0.324,1.215
					v2.527h-1.076v-5.072h1.076v1.009h0.023c0.25-0.73,0.693-1.097,1.33-1.097c0.189,0,0.34,0.021,0.449,0.064V46.254z"/>
				<path d="M380.344,49.12c0.475,0.321,0.967,0.481,1.479,0.481c0.672,0,1.008-0.208,1.008-0.624c0-0.174-0.07-0.316-0.211-0.429
					c-0.141-0.111-0.457-0.259-0.949-0.442c-0.516-0.198-0.865-0.41-1.045-0.635c-0.182-0.226-0.271-0.507-0.271-0.847
					c0-0.468,0.195-0.838,0.588-1.109c0.391-0.272,0.875-0.408,1.453-0.408c0.443,0,0.857,0.073,1.242,0.22v0.954
					c-0.385-0.238-0.814-0.357-1.293-0.357c-0.271,0-0.492,0.057-0.66,0.169c-0.168,0.113-0.252,0.262-0.252,0.445
					c0,0.181,0.063,0.322,0.186,0.427c0.123,0.104,0.408,0.241,0.855,0.412c0.551,0.202,0.926,0.417,1.127,0.645
					c0.199,0.228,0.299,0.512,0.299,0.851c0,0.48-0.195,0.858-0.586,1.133c-0.393,0.275-0.906,0.413-1.541,0.413
					c-0.545,0-1.02-0.095-1.428-0.284V49.12z"/>
				<path d="M385.326,43.483c0-0.181,0.063-0.329,0.186-0.447c0.125-0.117,0.281-0.177,0.471-0.177c0.188,0,0.344,0.06,0.473,0.177
					c0.129,0.118,0.193,0.267,0.193,0.447s-0.064,0.329-0.193,0.447c-0.129,0.117-0.285,0.177-0.473,0.177
					c-0.186,0-0.342-0.06-0.467-0.179C385.389,43.809,385.326,43.661,385.326,43.483z M385.432,50.299v-5.072h1.078v5.072H385.432z"
					/>
				<path d="M391.057,50.244c-0.199,0.112-0.484,0.169-0.857,0.169c-0.963,0-1.445-0.522-1.445-1.568v-2.766h-0.857v-0.853h0.857
					v-1.188l1.074-0.325v1.514h1.229v0.853h-1.229v2.578c0,0.314,0.055,0.542,0.166,0.683s0.291,0.211,0.539,0.211
					c0.193,0,0.367-0.055,0.523-0.165V50.244z"/>
				<path d="M396.809,45.227l-2.234,5.742c-0.443,1.144-1.086,1.715-1.926,1.715c-0.275,0-0.498-0.029-0.67-0.087v-0.908
					c0.178,0.079,0.361,0.119,0.551,0.119c0.402,0,0.701-0.225,0.895-0.674l0.354-0.844l-2.01-5.063h1.197l1.221,3.618
					c0.027,0.077,0.066,0.238,0.119,0.486h0.021c0.016-0.098,0.057-0.257,0.125-0.477l1.27-3.628H396.809z"/>
			</g>
			<g>
				<path d="M68.862,28.963c-0.935,2.613-2.292,5.347-4.071,8.202l-2.036-1.419c1.483-2.322,2.773-4.947,3.87-7.875L68.862,28.963z
					 M68.795,24.595l-1.618,1.711c-1.717-1.464-3.164-2.54-4.341-3.228l1.685-1.771C65.986,22.221,67.411,23.317,68.795,24.595z
					 M68.97,18.504l-1.712,1.735c-1.33-1.383-2.674-2.56-4.031-3.531l1.793-1.638C66.539,16.194,67.855,17.339,68.97,18.504z
					 M87.184,35.224l-1.241,1.894c-4.143-0.915-6.745-2.763-7.806-5.545c-0.872,2.5-3.672,4.315-8.399,5.448l-1.213-2.063
					c2.921-0.478,5.076-1.363,6.464-2.657c1.389-1.294,2.033-3.632,1.935-7.013h2.427c-0.063,2.37,0.112,4.016,0.526,4.938
					c1.402-0.874,2.687-1.966,3.855-3.276l1.968,1.371c-1.276,1.399-2.84,2.666-4.691,3.798
					C82.133,33.412,84.191,34.447,87.184,35.224z M86.914,24.619l-1.523,1.687c-1.833-1.391-4.292-2.831-7.375-4.319
					c-1.609,2.014-3.981,3.454-7.118,4.319l-1.402-1.917c1.95-0.413,3.6-1.062,4.948-1.947s2.132-2.118,2.353-3.695
					c0.22-1.577,0.308-2.742,0.263-3.495h2.48c-0.027,1.48-0.211,2.937-0.553,4.368c1.771-0.946,3.353-2.164,4.746-3.652
					l1.968,1.311c-0.979,1.157-2.57,2.411-4.772,3.762C83.31,22.253,85.305,23.446,86.914,24.619z M75.037,30.431l-1.982,1.311
					c-0.845-1.205-1.879-2.423-3.101-3.652l1.996-1.262C73.028,27.822,74.057,29.023,75.037,30.431z M75.239,19.923l-2.022,1.213
					c-0.602-1.06-1.568-2.354-2.898-3.883l2.13-1.189C73.68,17.457,74.61,18.743,75.239,19.923z"/>
				<path d="M96.985,28.769c-0.881,2.395-2.296,5.108-4.247,8.141l-2.211-1.141c1.95-3.041,3.37-5.783,4.26-8.226L96.985,28.769z
					 M96.985,24.413l-1.591,1.82c-1.258-1.132-2.872-2.176-4.84-3.13l1.469-1.844C93.929,22.148,95.583,23.2,96.985,24.413z
					 M97.484,18.674l-1.793,1.747c-1.222-1.213-2.804-2.415-4.745-3.604l1.712-1.82C94.446,16.041,96.055,17.266,97.484,18.674z
					 M114.632,36.268H96.877V34.06h7.537V17.958h-6.754v-2.184h16.259v2.184h-6.903V34.06h7.617V36.268z"/>
				<path d="M142.351,35.321l-1.483,1.796c-5.456-3.131-9.001-7.297-10.637-12.498c-1.717,4.999-5.303,9.104-10.758,12.315
					l-1.469-1.929c5.635-3.309,9.068-7.361,10.3-12.158h-9.72l-0.027-2.232h10.071c0.197-1.739,0.31-3.511,0.337-5.314h2.48
					c-0.027,2.16-0.108,3.931-0.243,5.314H142v2.232h-10.004C133.345,28.187,136.796,32.344,142.351,35.321z"/>
				<path d="M169.799,33.186h-10.597v1.541c0,0.558-0.142,0.999-0.425,1.322s-0.643,0.544-1.078,0.661
					c-0.437,0.117-1.257,0.176-2.461,0.176c-0.558,0-1.19-0.016-1.9-0.048l-0.796-2.015c0.629,0.017,1.843,0.024,3.641,0.024
					c0.332,0,0.498-0.138,0.498-0.412v-1.25h-10.934v-1.759h10.934v-1.068c1.366-0.25,2.638-0.574,3.815-0.971H150.25v-1.589h14.695
					v1.589c-1.501,0.639-3.415,1.27-5.743,1.893v0.146h10.597V33.186z M169.381,29.533h-2.319v-2.827h-18.47v2.803h-2.453v-4.55
					h1.712l-0.499-8.918c1.789-0.073,3.582-0.389,5.379-0.947l1.133,1.723c-1.285,0.364-2.646,0.619-4.085,0.764l0.081,1.323h3.6
					v1.614h-3.505l0.054,1.408h3.451v1.602h-3.344l0.081,1.432h15.207l0.055-1.432h-3.722v-1.602h3.815l0.081-1.408h-3.896v-1.614
					h3.95l0.081-1.323h-4.22v-1.735h6.619l-0.444,9.112h1.658V29.533z M160.996,15.822c-0.432,0.518-1.029,1.031-1.793,1.541
					c0.449,0.356,0.863,0.72,1.24,1.092l-1.47,1.165c-0.458-0.493-0.916-0.906-1.375-1.238c-0.952,0.51-1.883,0.931-2.791,1.262
					l-1.159-1.396c0.8-0.25,1.582-0.583,2.346-0.995c-0.251-0.21-0.76-0.55-1.523-1.019l1.335-1.213l1.847,1.189
					c0.603-0.396,1.079-0.784,1.43-1.165L160.996,15.822z M161.13,23.648l-1.47,1.141c-0.691-0.688-1.316-1.217-1.874-1.589
					c-0.961,0.55-1.9,1.015-2.817,1.395l-1.133-1.371c0.665-0.259,1.456-0.639,2.373-1.14c-0.467-0.372-1.074-0.744-1.819-1.117
					l1.334-1.225c0.485,0.259,1.2,0.7,2.144,1.322c0.755-0.574,1.271-1.015,1.551-1.322l1.686,0.897
					c-0.531,0.526-1.102,1.016-1.713,1.468C160.011,22.593,160.591,23.106,161.13,23.648z"/>
				<path d="M204.554,22.799l-1.159,1.99c-0.71-0.129-1.51-0.335-2.399-0.619v9.343h-11.648l1.187,1.237
					c-2.598,1.075-5.662,1.872-9.194,2.39l-1.187-1.989c2.624-0.283,5.137-0.829,7.536-1.638h-4.058v-9.392h5.217l-1.052-1.371
					c3.227-0.736,5.631-2.026,7.213-3.871l2.508,0.498c-0.27,0.445-0.472,0.724-0.606,0.837
					C198.87,21.355,201.417,22.217,204.554,22.799z M188.404,22.107h-8.035v-2.038h8.035V22.107z M188.161,18.152h-7.428v-1.99
					h7.428V18.152z M198.515,26.755v-0.874h-12.31v0.874H198.515z M198.515,29.291v-0.922h-12.31v0.922H198.515z M198.515,31.875
					v-0.971h-12.31v0.971H198.515z M204.069,18.431c-0.854,1.1-1.658,2.026-2.413,2.778l-2.09-1.116
					c0.234-0.243,0.729-0.796,1.483-1.662h-8.695c-0.846,0.874-1.654,1.602-2.427,2.184l-1.874-1.444
					c1.429-0.93,2.8-2.338,4.111-4.223l2.266,0.691c-0.081,0.284-0.257,0.575-0.526,0.874h10.165V18.431z M200.726,24.122
					c-1.852-0.542-3.649-1.338-5.393-2.39c-1.151,0.938-2.647,1.735-4.49,2.39H200.726z M204.393,35.321l-1.321,1.917
					c-2.409-0.696-5.105-1.201-8.089-1.517l1.267-1.869C199.162,34.079,201.876,34.568,204.393,35.321z"/>
				<path d="M216.85,19.341h-8.952v-2.002h3.532c-0.144-0.38-0.437-0.894-0.876-1.541l2.427-0.825
					c0.485,0.817,0.89,1.605,1.213,2.366h2.656V19.341z M216.243,23.03h-7.685v-1.99h7.685V23.03z M216.243,26.658h-7.685v-1.966
					h7.685V26.658z M216.27,36.34h-2.427v-1.116h-2.898v1.711h-2.387V28.32h7.712V36.34z M213.843,33.186v-2.803h-2.898v2.803
					H213.843z M232.259,31.123c-0.126,1.286-0.375,2.465-0.748,3.538c-0.373,1.071-0.732,1.74-1.079,2.008
					c-0.346,0.267-0.743,0.4-1.192,0.4c-0.549,0-1.022-0.188-1.423-0.564c-0.399-0.376-0.781-1.486-1.146-3.33
					c-0.364-1.845-0.546-3.503-0.546-4.975V17.836h-3.734v6.698h2.966v2.148h-2.966v10.277h-2.373V26.682h-2.562v-2.148h2.562
					v-6.698h-2.238V15.75h10.718v12.947c0,1.925,0.297,3.786,0.891,5.581c0.341-1.133,0.562-2.588,0.66-4.368L232.259,31.123z"/>
				<path d="M245.094,33.562c-2.166,1.384-4.916,2.601-8.25,3.652l-1.416-1.82c3.064-0.914,5.576-1.966,7.535-3.154L245.094,33.562z
					 M259.586,31.851h-24.023v-2.038h1.859l-0.283-13.02c1.816-0.372,3.582-0.914,5.299-1.626l1.24,1.844
					c-1.168,0.485-2.529,0.935-4.084,1.347l0.027,2.257h3.154v2.014h-3.088l0.027,2.512h3.088v1.978h-3.061l0.053,2.694h15.369
					l0.121-2.694h-2.871v-2.002h2.898l0.082-2.512h-2.98v-1.99h3.033l0.055-2.463h-3.141v-2.063h5.648l-0.352,13.723h1.928V31.851z
					 M246.887,23.491c-0.422,2.087-1.105,3.919-2.049,5.497l-1.9-1.116c0.889-1.658,1.486-3.248,1.793-4.769L246.887,23.491z
					 M251.336,18.601h-4.449l-0.27,1.759h4.719c0,1.383-0.049,2.912-0.148,4.586s-0.283,2.696-0.553,3.064s-0.609,0.633-1.018,0.794
					c-0.41,0.162-1.217,0.214-2.42,0.158l-0.756-2.038c0.359,0.057,0.738,0.084,1.133,0.084c0.449,0,0.734-0.038,0.855-0.115
					c0.123-0.077,0.203-0.164,0.244-0.261c0.039-0.097,0.102-0.633,0.188-1.607c0.086-0.975,0.129-1.891,0.129-2.749h-5.002
					l0.998-7.001h2.373l-0.189,1.408h4.166V18.601z M259.721,35.346l-1.537,1.819c-2.641-1.343-5.283-2.395-7.926-3.154l1.482-1.845
					C254.58,33.048,257.24,34.107,259.721,35.346z"/>
				<path d="M286.227,36.995h-2.428v-1.298h-17.283v1.237h-2.373V15.64h22.084V36.995z M283.799,33.756V17.558h-17.283v16.198
					H283.799z M282.924,24.364h-15.518v-1.517h6.619V22.01h-5.514v-3.652h13.307v3.652h-5.475v0.837h6.58V24.364z M282.141,32.943
					h-13.939v-7.753h13.939V32.943z M279.822,31.475v-4.792h-9.275v4.792H279.822z M279.418,20.688v-0.995h-8.533v0.995H279.418z
					 M278.367,30.698h-6.377v-3.252h6.377V30.698z M276.291,29.509v-0.874h-2.238v0.874H276.291z"/>
				<path d="M314.754,28.465h-24.053v-1.614h10.773v-1.116h-8.643v-1.541h8.643v-1.067h-8.225v-1.468h8.225v-1.165h-10.826v-1.565
					h10.826v-1.043h-8.225V16.32h8.225v-1.104h2.426v1.104h8.533v2.609h2.293v1.565h-2.293v2.633H303.9v1.067h8.777v1.541H303.9
					v1.116h10.854V28.465z M312.246,36.959h-2.494V36.34h-13.994v0.619h-2.508v-7.45h18.996V36.959z M309.752,32.142v-1.116h-13.994
					v1.116H309.752z M309.752,34.775v-1.141h-13.994v1.141H309.752z M310.008,18.929v-1.043H303.9v1.043H310.008z M310.008,21.659
					v-1.165H303.9v1.165H310.008z"/>
				<path d="M329.139,19.074l-1.295,1.759c-0.422-0.477-0.895-0.922-1.416-1.334v1.614h-5.109v-0.971
					c-0.684,0.55-1.537,1.112-2.561,1.687l-0.688-2.208c2.031-1.092,3.859-2.673,5.486-4.744l2.238,0.716
					c-0.127,0.235-0.262,0.417-0.404,0.546C327.053,17.262,328.303,18.241,329.139,19.074z M328.949,35.369l-2.184,1.02
					c-0.234-0.695-0.445-1.217-0.635-1.565c-2.443,0.955-4.57,1.634-6.377,2.039l-0.66-1.881c0.342-0.234,0.514-0.526,0.514-0.874
					V22.205h8.426v8.105h-6.094v3.773c0.943-0.259,2-0.639,3.168-1.14c-0.145-0.372-0.41-0.821-0.795-1.347l2.115-0.898
					C327.453,32.154,328.293,33.711,328.949,35.369z M325.768,25.335v-1.262h-3.828v1.262H325.768z M325.768,28.441v-1.517h-3.828
					v1.517H325.768z M326.186,19.292c-0.619-0.526-1.34-1.063-2.156-1.614c-0.459,0.51-1.021,1.048-1.686,1.614H326.186z
					 M342.201,22.156h-1.549v5.521h-7.592v1.687h8.535v6.504h-8.535v1.067h-2.426V22.156h-1.188v-4.405h4.936
					c-0.172-0.485-0.539-1.213-1.105-2.184l2.494-0.619c0.467,0.809,0.889,1.743,1.268,2.803h5.162V22.156z M339.803,21.562v-1.893
					h-7.9v1.893H339.803z M338.225,25.735v-2.245h-5.164v2.245H338.225z M339.223,33.938v-2.584h-6.162v2.584H339.223z"/>
				<path d="M369.975,33.186h-10.598v1.541c0,0.558-0.141,0.999-0.424,1.322s-0.643,0.544-1.078,0.661
					c-0.438,0.117-1.258,0.176-2.461,0.176c-0.559,0-1.191-0.016-1.9-0.048l-0.797-2.015c0.629,0.017,1.844,0.024,3.641,0.024
					c0.332,0,0.498-0.138,0.498-0.412v-1.25h-10.934v-1.759h10.934v-1.068c1.367-0.25,2.639-0.574,3.816-0.971h-10.246v-1.589
					h14.695v1.589c-1.502,0.639-3.416,1.27-5.744,1.893v0.146h10.598V33.186z M369.557,29.533h-2.32v-2.827h-18.469v2.803h-2.453
					v-4.55h1.711l-0.498-8.918c1.789-0.073,3.582-0.389,5.379-0.947l1.133,1.723c-1.285,0.364-2.646,0.619-4.086,0.764l0.082,1.323
					h3.6v1.614h-3.506l0.055,1.408h3.451v1.602h-3.344l0.08,1.432h15.207l0.055-1.432h-3.721v-1.602h3.814l0.082-1.408h-3.896
					v-1.614h3.949l0.082-1.323h-4.221v-1.735h6.619l-0.443,9.112h1.658V29.533z M361.17,15.822
					c-0.432,0.518-1.029,1.031-1.793,1.541c0.449,0.356,0.863,0.72,1.24,1.092l-1.469,1.165c-0.459-0.493-0.916-0.906-1.375-1.238
					c-0.953,0.51-1.883,0.931-2.791,1.262l-1.16-1.396c0.801-0.25,1.582-0.583,2.346-0.995c-0.25-0.21-0.76-0.55-1.523-1.019
					l1.336-1.213l1.846,1.189c0.604-0.396,1.08-0.784,1.43-1.165L361.17,15.822z M361.305,23.648l-1.469,1.141
					c-0.691-0.688-1.316-1.217-1.875-1.589c-0.961,0.55-1.9,1.015-2.816,1.395l-1.133-1.371c0.664-0.259,1.455-0.639,2.373-1.14
					c-0.467-0.372-1.074-0.744-1.82-1.117l1.334-1.225c0.486,0.259,1.201,0.7,2.145,1.322c0.754-0.574,1.271-1.015,1.551-1.322
					l1.686,0.897c-0.531,0.526-1.102,1.016-1.713,1.468C360.186,22.593,360.766,23.106,361.305,23.648z"/>
				<path d="M382.539,31.948c-2.311,1.634-4.84,2.924-7.59,3.871l-1.471-1.783c2.67-0.874,5.074-2.043,7.213-3.507L382.539,31.948z
					 M397.273,29.533l-2.063,1.323c-0.637-0.817-1.145-1.424-1.523-1.82c-2.588,0.292-4.854,0.498-6.795,0.619v5.072
					c0.037,0.672-0.186,1.203-0.666,1.596c-0.48,0.392-1.939,0.588-4.375,0.588l-0.971-2.208c0.998,0.064,1.936,0.097,2.816,0.097
					c0.496,0,0.742-0.214,0.742-0.643v-4.295c-3.775,0.17-6.578,0.267-8.412,0.291l-0.58-1.905c2.328-0.583,5.043-1.609,8.143-3.082
					c-3.227,0.146-5.518,0.219-6.875,0.219l-0.391-1.614c3.793-1.068,7.172-2.791,10.139-5.169l2.264,1.165
					c-1.814,1.456-4.053,2.69-6.713,3.701l2.184-0.097l3.33-0.231c0.152-0.016,0.768-0.368,1.848-1.055l1.914-1.274l2.156,1.347
					c-4.322,2.766-8.391,4.744-12.201,5.933c3.219-0.121,6.777-0.4,10.678-0.837c-0.467-0.444-1.012-0.918-1.631-1.419l2.184-1.116
					C394.523,26.439,396.123,28.045,397.273,29.533z M388.809,16.235c-2.77,2.022-6.652,3.64-11.648,4.854l-1.416-1.893
					c4.439-0.857,8.102-2.24,10.988-4.149L388.809,16.235z M397.867,34.302l-1.658,1.675c-1.859-1.416-4.283-2.783-7.266-4.102
					l1.711-1.541C393.604,31.653,396.008,32.975,397.867,34.302z"/>
			</g>
		</g>
	</g>
	<rect x="0.042" fill="none" width="400" height="65"/>
</g>
</svg>
